<?xml version="1.0" encoding="UTF-8" standalone="no"?>
<!-- Creator: CorelDRAW X6 -->

<svg
   xmlns:dc="http://purl.org/dc/elements/1.1/"
   xmlns:cc="http://creativecommons.org/ns#"
   xmlns:rdf="http://www.w3.org/1999/02/22-rdf-syntax-ns#"
   xmlns:svg="http://www.w3.org/2000/svg"
   xmlns="http://www.w3.org/2000/svg"
   xmlns:sodipodi="http://sodipodi.sourceforge.net/DTD/sodipodi-0.dtd"
   xmlns:inkscape="http://www.inkscape.org/namespaces/inkscape"
   xml:space="preserve"
   width="2.77778in"
   height="2.72222in"
   version="1.1"
   style="shape-rendering:geometricPrecision; text-rendering:geometricPrecision; image-rendering:optimizeQuality; fill-rule:evenodd; clip-rule:evenodd"
   viewBox="0 0 2778 2722"
   id="svg44869"
   sodipodi:docname="ShapeMaster7.svg"
   inkscape:version="0.92.3 (2405546, 2018-03-11)"><metadata
   id="metadata44873"><rdf:RDF><cc:Work
       rdf:about=""><dc:format>image/svg+xml</dc:format><dc:type
         rdf:resource="http://purl.org/dc/dcmitype/StillImage" /><dc:title></dc:title></cc:Work></rdf:RDF></metadata><sodipodi:namedview
   pagecolor="#ffffff"
   bordercolor="#666666"
   borderopacity="1"
   objecttolerance="10"
   gridtolerance="10"
   guidetolerance="10"
   inkscape:pageopacity="0"
   inkscape:pageshadow="2"
   inkscape:window-width="1920"
   inkscape:window-height="1013"
   id="namedview44871"
   showgrid="false"
   inkscape:zoom="2.554245"
   inkscape:cx="195.18651"
   inkscape:cy="120.6397"
   inkscape:window-x="-9"
   inkscape:window-y="29"
   inkscape:window-maximized="1"
   inkscape:current-layer="svg44869" />
 <defs
   id="defs43971">
  <style
   type="text/css"
   id="style43969">
   <![CDATA[
    .fil15 {fill:#282828;fill-rule:nonzero}
    .fil31 {fill:#363636;fill-rule:nonzero}
    .fil30 {fill:#373435;fill-rule:nonzero}
    .fil1 {fill:#393939;fill-rule:nonzero}
    .fil22 {fill:#6C6D6D;fill-rule:nonzero}
    .fil7 {fill:#6FC9E7;fill-rule:nonzero}
    .fil29 {fill:#738EA5;fill-rule:nonzero}
    .fil25 {fill:#80CDEB;fill-rule:nonzero}
    .fil21 {fill:#8BA150;fill-rule:nonzero}
    .fil19 {fill:#8C6FA9;fill-rule:nonzero}
    .fil33 {fill:#A3D8F1;fill-rule:nonzero}
    .fil13 {fill:#A7A0A0;fill-rule:nonzero}
    .fil27 {fill:#A8D27A;fill-rule:nonzero}
    .fil32 {fill:#C6E5F0;fill-rule:nonzero}
    .fil0 {fill:#D0EDFB;fill-rule:nonzero}
    .fil20 {fill:#D1A7CD;fill-rule:nonzero}
    .fil24 {fill:#DCA239;fill-rule:nonzero}
    .fil18 {fill:#E5654F;fill-rule:nonzero}
    .fil11 {fill:#EC6451;fill-rule:nonzero}
    .fil9 {fill:#ED757E;fill-rule:nonzero}
    .fil26 {fill:#F05D89;fill-rule:nonzero}
    .fil8 {fill:#F16A87;fill-rule:nonzero}
    .fil16 {fill:#F4855F;fill-rule:nonzero}
    .fil2 {fill:#F6A4A9;fill-rule:nonzero}
    .fil5 {fill:#F7A69D;fill-rule:nonzero}
    .fil10 {fill:#F9A643;fill-rule:nonzero}
    .fil17 {fill:#F9B398;fill-rule:nonzero}
    .fil6 {fill:#FBAF30;fill-rule:nonzero}
    .fil28 {fill:#FBD15B;fill-rule:nonzero}
    .fil14 {fill:#FDBC47;fill-rule:nonzero}
    .fil4 {fill:#FEFEFE;fill-rule:nonzero}
    .fil23 {fill:#FFDFA4;fill-rule:nonzero}
    .fil12 {fill:#FFF7ED;fill-rule:nonzero}
    .fil3 {fill:#F83A56;fill-rule:nonzero}
   ]]>
  </style>
 
  
  
  
  
  
  
  
  
  
  
  
  
  
  
  
  
  
  
  
  
  
  
  
  
  
  
  
  
  
  
  
  
  
  
  
  
  
  
  
  
  
  
  
  
  
  
  
  
  
  
  
  
  
  
  
  
  
  
  
  
  
  
  
  
  
  
  
  
  
  
  
  
  
  
  
  
  
  
  
  
  
  
  
  
  
  
  
  
  
  
  
  
  
  
  
  
  
  
  
  
  
  
  
  
  
  
  
  
  
  
  
  
  
  
  
  
  
  
  
  
  
  
  
  
  
  
  
  
  
  
  
  
  
  
  
  
  
  
  
  
  
  
  
  
  
  
  
  
  
  
  
  
  
  
  
  
  
  
  
  
  
  
  
  
  
  
  
  
  
  
  
  
  
  
  
  
  
  
  
  
  
  
  
  
  
  
  
  
  
  
  
  
  
  
  
  
  
  
  
  
  
  
  
  
  
  
  
  
  
  
  
  
  
  
  
  
  
  
  
  
  
  
  
  
  
  
  
  
  
  
  
  
  
  
  
  
  
  
  
  
  
  
  
  
  
  
  
  
  
  
  
  
  
  
  
  
  
  
  
  
  
  
  
  
  
  
  
  
  
  
  
  
  
  
  
  
  
  
  
  
  
  
  
  
  
  
  
  
  
  
  
  
  
  
  
  
  
  
  
  
  
  
  
  
  
  
  
  
  
  
  
  
  
  
  
  
  
  
  
  
  
  
  
  
  
  
  
  
  
  
  
  
  
  
  
  
  
  
  
  
  
  
  
  
  
  
  
  
  
  
  
  
  
  
  
  
  
  
  
  
  
  
  
  
  
  
  
  
  
  
  
  
  
  
  
  
  
  
  
  
  
  
  
  
  
  
  
  
  
  
  
  
  
  
  
  
  
  
  
  
  
  
  
  
  
  
  
  
  
  
  
  
  
  
  
  
  
  
  
  
  
  
  
  
  
  
  
  
  
  
  
  
  
  
  
  
  
  
  
  
  
  
  
  
  
  
  
  
 </defs>
 <g
   id="g47969"><path
     class="fil12"
     d="m 3939.1928,1092.6753 c 23,16 53,25 82,31 2,-9 9,-33 18,-63 -21,0 -42,3 -62,7 -11,2 -22,5 -32,8 -11,4 -19,8 -7,16 z"
     id="path44188"
     inkscape:connector-curvature="0"
     style="fill:#fff7ed;fill-rule:nonzero" /><path
     class="fil2"
     d="m 4510.1928,1135.6753 c 22,4 32,22 30,44 -4,61 -83,83 -132,89 0,0 0,0 0,0 -6,8 -13,15 -20,22 50,3 112,-16 149,-49 27,-25 43,-69 23,-103 -21,-35 -64,-25 -97,-16 -1,8 -1,16 -3,24 16,-8 33,-14 50,-11 z"
     id="path44190"
     inkscape:connector-curvature="0"
     style="fill:#f6a4a9;fill-rule:nonzero" /><path
     class="fil2"
     d="m 4322.1928,1337.6753 c -15,7 -30,14 -46,18 -74,22 -165,23 -236,-9 -2,-1 -5,-2 -7,-4 -1,8 -3,16 -2,23 2,12 19,13 30,15 32,6 66,7 98,10 34,2 67,4 101,3 15,0 42,2 54,-7 9,-7 6,-13 7,-24 0,-9 1,-17 1,-26 z"
     id="path44192"
     inkscape:connector-curvature="0"
     style="fill:#f6a4a9;fill-rule:nonzero" /><path
     class="fil2"
     d="m 4016.1928,1277.6753 c 18,19 11,42 7,50 54,34 127,42 193,33 1,-9 6,-36 31,-40 25,-3 40,14 45,21 2,-1 3,-1 5,-2 29,-11 54,-28 76,-47 0,-2 1,-3 3,-3 38,-35 63,-82 73,-134 -25,7 -36,-11 -40,-19 -11,3 -22,6 -33,8 0,0 0,1 0,1 0,0 -3,0 -8,1 -23,4 -46,7 -69,9 -4,17 -19,39 -47,37 -27,-1 -35,-28 -37,-36 -51,-1 -102,-6 -152,-16 -5,10 -20,33 -52,27 -32,-6 -31,-35 -30,-47 -18,-6 -38,-13 -49,-22 1,29 4,58 7,86 2,19 6,38 13,56 4,10 9,20 14,29 9,-4 32,-11 50,8 z m 287,-30 c 11,-51 75,-44 75,-5 0,40 -84,47 -75,5 z m -200,9 c 7,-54 86,-54 85,-3 -1,51 -90,43 -85,3 z"
     id="path44194"
     inkscape:connector-curvature="0"
     style="fill:#f6a4a9;fill-rule:nonzero" /><path
     class="fil12"
     d="m 3982.1928,1115.6753 c 0,0 -10,45 29,52 40,7 54,-31 54,-31 -34,-4 -83,-21 -83,-21 z"
     id="path44196"
     inkscape:connector-curvature="0"
     style="fill:#fff7ed;fill-rule:nonzero" /><path
     class="fil12"
     d="m 4103.1928,1256.6753 c -5,40 84,48 85,-3 1,-51 -79,-51 -85,3 z"
     id="path44198"
     inkscape:connector-curvature="0"
     style="fill:#fff7ed;fill-rule:nonzero" /><path
     class="fil12"
     d="m 4302.1928,1247.6753 c -9,42 75,35 75,-5 0,-40 -64,-47 -75,5 z"
     id="path44200"
     inkscape:connector-curvature="0"
     style="fill:#fff7ed;fill-rule:nonzero" /><path
     class="fil12"
     d="m 4216.1928,1363.6753 c 0,0 0,-39 32,-43 32,-4 47,25 47,25 l -79,19 z"
     id="path44202"
     inkscape:connector-curvature="0"
     style="fill:#fff7ed;fill-rule:nonzero" /><path
     class="fil12"
     d="m 3962.1928,1271.6753 c 0,0 31,-17 54,6 22,23 6,52 6,52 -28,-4 -60,-58 -60,-58 z"
     id="path44204"
     inkscape:connector-curvature="0"
     style="fill:#fff7ed;fill-rule:nonzero" /><path
     class="fil12"
     d="m 4215.1928,1154.6753 c 0,0 6,37 38,38 32,1 47,-26 48,-43 -23,12 -86,5 -86,5 z"
     id="path44206"
     inkscape:connector-curvature="0"
     style="fill:#fff7ed;fill-rule:nonzero" /><path
     class="fil12"
     d="m 4409.1928,1132.6753 c 0,0 11,36 47,21 l 2,-34 c -19,13 -49,14 -49,14 z"
     id="path44208"
     inkscape:connector-curvature="0"
     style="fill:#fff7ed;fill-rule:nonzero" /><path
     class="fil12"
     d="m 4383.1928,1135.6753 c 15,-3 62,-11 68,-26 9,-21 -60,-34 -84,-37 5,25 8,48 9,64 2,0 4,-1 6,-1 z"
     id="path44210"
     inkscape:connector-curvature="0"
     style="fill:#fff7ed;fill-rule:nonzero" /><path
     class="fil13"
     d="m 4454.1928,1121.6753 c 0,0 0,-1 0,-1 0,0 0,0 0,0 -5,3 -11,6 -18,8 6,-2 12,-4 18,-7 z"
     id="path44212"
     inkscape:connector-curvature="0"
     style="fill:#a7a0a0;fill-rule:nonzero" /><path
     class="fil14"
     d="m 4021.1928,1127.6753 c 0,0 42,-151.00004 66,-204.00004 23,-53 37,-81 43,-66 6,15 25,49 25,49 0,0 18,-7 58,-7 41,0 55,9 55,9 0,0 26,-70 40,-56 14,15 69,226.00004 70,293.00004 0,0 -102,7 -178,7 -77,0 -178,-26 -178,-26 z"
     id="path44214"
     inkscape:connector-curvature="0"
     style="fill:#fdbc47;fill-rule:nonzero" /><path
     class="fil15"
     d="m 4045.1928,1053.6753 c -24,-1 -49,3 -72,8 -12,3 -43,7 -49,20 -10,23 84,46 98,49 64,16 130,24 196,25 66,2 134,-3 198,-22 13,-4 55,-12 45,-33 -5,-11 -22,-18 -32,-22 -22,-9 -45,-14 -68,-15 -4,0 -4,7 0,7 19,2 38,5 56,11 9,3 35,11 38,23 4,16 -58,28 -69,31 -54,13 -110,16 -166,15 -55,-1 -111,-7 -165,-18 -39,-8 -84,-17 -118,-39 -5,-3 -9,-4 -5,-9 2,-3 9,-5 12,-6 10,-4 22,-7 32,-9 22,-5 46,-9 69,-7 4,0 4,-7 0,-7 v 0 z"
     id="path44216"
     inkscape:connector-curvature="0"
     style="fill:#282828;fill-rule:nonzero" /><path
     class="fil15"
     d="m 3923.1928,1084.6753 c 1,33 4,66 8,99 2,18 5,35 10,52 16,48 49,87 95,109 71,34 162,33 237,12 56,-16 107,-49 141,-97 32,-45 48,-99 49,-154 0,-4 -7,-4 -7,0 -1,106 -63,199 -162,237 -115,43 -294,31 -343,-102 -7,-18 -11,-37 -13,-56 -3,-33 -7,-67 -8,-100 0,-4 -7,-4 -7,0 z"
     id="path44218"
     inkscape:connector-curvature="0"
     style="fill:#282828;fill-rule:nonzero" /><path
     class="fil15"
     d="m 4026.1928,1336.6753 c -1,11 -8,33 0,42 6,7 30,9 39,11 14,2 29,4 43,5 73,6 145,12 218,2 2,0 3,-2 3,-3 1,-19 1,-39 2,-58 0,-4 -7,-4 -7,0 0,9 -1,17 -1,26 0,5 2,22 -1,26 -5,7 -23,6 -30,7 -9,1 -18,1 -27,2 -35,1 -70,-1 -105,-3 -33,-2 -67,-4 -99,-10 -7,-1 -15,-2 -22,-5 -8,-3 -8,-4 -8,-11 -1,-9 1,-19 2,-28 0,-4 -7,-4 -7,0 v 0 z"
     id="path44220"
     inkscape:connector-curvature="0"
     style="fill:#282828;fill-rule:nonzero" /><path
     class="fil15"
     d="m 4409.1928,1267.6753 c 49,-6 126,-27 131,-87 2,-22 -9,-41 -32,-44 -19,-3 -38,6 -54,15 -4,2 0,8 4,6 10,-5 21,-11 33,-13 14,-3 31,-1 39,13 7,13 4,30 -2,43 -20,42 -77,56 -119,61 -4,1 -4,7 0,7 v 0 z"
     id="path44222"
     inkscape:connector-curvature="0"
     style="fill:#282828;fill-rule:nonzero" /><path
     class="fil15"
     d="m 4377.1928,1296.6753 c 33,4 69,-4 99,-14 31,-11 64,-27 83,-56 19,-29 26,-69 4,-98 -25,-34 -71,-23 -106,-13 -4,1 -2,8 2,7 34,-9 80,-21 102,16 19,33 5,77 -22,102 -23,21 -54,34 -83,42 -25,7 -53,12 -79,8 -4,-1 -4,6 0,7 v 0 z"
     id="path44224"
     inkscape:connector-curvature="0"
     style="fill:#282828;fill-rule:nonzero" /><path
     class="fil15"
     d="m 4143.1928,1023.6753 c 0,6 -5,10 -10,10 -6,0 -10,-5 -10,-10 0,-6 5,-10 10,-10 6,0 10,5 10,10 z"
     id="path44226"
     inkscape:connector-curvature="0"
     style="fill:#282828;fill-rule:nonzero" /><path
     class="fil15"
     d="m 4283.1928,1023.6753 c 0,6 -5,10 -10,10 -6,0 -10,-5 -10,-10 0,-6 5,-10 10,-10 6,0 10,5 10,10 z"
     id="path44228"
     inkscape:connector-curvature="0"
     style="fill:#282828;fill-rule:nonzero" /><path
     class="fil15"
     d="m 4178.1928,1059.6753 c 8,18 33,18 41,0 2,-4 -4,-8 -6,-4 -6,13 -23,13 -29,0 -2,-4 -8,-1 -6,4 z"
     id="path44230"
     inkscape:connector-curvature="0"
     style="fill:#282828;fill-rule:nonzero" /><path
     class="fil15"
     d="m 4173.1928,1105.6753 c 20,7 29,-15 31,-31 -2,0 -5,-1 -7,-1 -1,10 -1,23 8,31 7,5 16,6 22,0 3,-3 -2,-8 -5,-5 -3,2 -8,2 -11,0 -4,-2 -6,-7 -7,-11 -1,-5 -1,-10 0,-15 0,-4 -6,-5 -7,-1 -2,11 -7,32 -23,26 -4,-2 -6,5 -2,7 v 0 z"
     id="path44232"
     inkscape:connector-curvature="0"
     style="fill:#282828;fill-rule:nonzero" /><path
     class="fil15"
     d="m 4052.1928,1072.6753 c 22,0 43,6 62,19 4,3 7,-3 4,-6 -19,-13 -42,-20 -65,-20 -4,0 -4,7 0,7 v 0 z"
     id="path44234"
     inkscape:connector-curvature="0"
     style="fill:#282828;fill-rule:nonzero" /><path
     class="fil15"
     d="m 4060.1928,1102.6753 c 14,-2 28,-2 42,0 4,1 6,-6 2,-7 -15,-2 -30,-2 -45,0 -4,1 -3,7 2,7 v 0 z"
     id="path44236"
     inkscape:connector-curvature="0"
     style="fill:#282828;fill-rule:nonzero" /><path
     class="fil15"
     d="m 4269.1928,1090.6753 c 22,-10 45,-11 68,-6 4,1 6,-6 2,-7 -25,-6 -50,-4 -73,6 -4,2 -1,8 4,6 v 0 z"
     id="path44238"
     inkscape:connector-curvature="0"
     style="fill:#282828;fill-rule:nonzero" /><path
     class="fil15"
     d="m 4278.1928,1107.6753 c 11,0 22,2 32,7 4,2 8,-4 4,-6 -11,-5 -23,-8 -35,-8 -4,0 -4,7 0,7 v 0 z"
     id="path44240"
     inkscape:connector-curvature="0"
     style="fill:#282828;fill-rule:nonzero" /></g><path
   style="fill:#f4855f;fill-rule:nonzero"
   inkscape:connector-curvature="0"
   id="path44242"
   d="m 3402.4996,1772.3729 c 38,2 57,-28 72,-58 13,-27 25,-55 34,-84 3,-9 3,-16 11,-21 8,-5 17,-8 25,-13 34,-25 39,-66 41,-105 1,-40 -12,-76 -51,-92 -20,-8 -42,-12 -62,-15 -60,-10 -120,-16 -180,-21 -21,-2 -42,-3 -63,-5 1,25 -9,56 -25,76 48,16 96,33 145,49 2,1 3,2 2,4 -6,36 -4,100 43,110 2,0 3,3 2,4 -3,10 -5,21 -8,31 17,2 33,3 50,5 4,0 4,7 0,7 -17,-2 -34,-3 -52,-5 -2,8 -4,17 -6,25 13,2 27,3 40,5 4,1 4,7 0,7 -14,-2 -28,-4 -42,-5 0,0 0,0 0,0 -2,7 -3,13 -5,20 -1,5 -3,10 -4,16 9,0 18,1 26,2 4,1 2,7 -2,7 -9,-1 -17,-2 -26,-2 -4,28 -1,58 34,59 z m -21,-202 c -20,-9 -21,-32 -19,-52 0,-4 7,-4 7,0 -2,17 -2,37 16,46 4,2 1,8 -3,6 z m 14,11 c -1,0 -2,-1 -3,-1 -4,-2 0,-8 3,-6 1,0 2,1 3,1 4,2 0,8 -3,6 z m 24,-44 c -18,-24 -16,-58 0,-82 16,-24 47,-37 75,-33 33,5 52,31 57,62 0,0 0,0 0,0 0,0 0,0 0,0 4,36 -17,66 -51,76 -29,8 -63,0 -81,-24 z"
   class="fil16" /><path
   style="fill:#f9b398;fill-rule:nonzero"
   inkscape:connector-curvature="0"
   id="path44244"
   d="m 3545.4996,1485.3729 c -6,-37 -35,-64 -74,-56 -34,6 -60,36 -58,71 4,85 141,70 132,-14 z m -103,13 c -2,-20 13,-38 32,-42 22,-4 38,11 42,31 0,0 0,0 0,0 0,0 0,0 0,0 5,46 -69,56 -74,10 z"
   class="fil17" /><path
   style="fill:#fff7ed;fill-rule:nonzero"
   inkscape:connector-curvature="0"
   id="path44246"
   d="m 3220.4996,1357.3729 c -4,0 -12,0 -18,-1 -1,14 -7,28 -13,40 -3,6 -10,20 -18,27 8,3 16,5 24,8 16,-19 26,-50 25,-74 z"
   class="fil12" /><path
   style="fill:#e5654f;fill-rule:nonzero"
   inkscape:connector-curvature="0"
   id="path44248"
   d="m 3169.4996,1415.3729 c 13,-15 25,-38 27,-59 -17,4 -24,24 -27,40 -1,6 -1,14 -2,21 1,-1 1,-1 2,-1 z"
   class="fil18" /><path
   style="fill:#e5654f;fill-rule:nonzero"
   inkscape:connector-curvature="0"
   id="path44250"
   d="m 3384.4996,1775.3729 c -1,5 -3,10 -3,15 0,2 -1,5 0,7 0,4 2,5 7,4 0,-1 1,-1 1,-1 6,-5 9,-13 12,-20 -6,0 -12,-1 -17,-4 z"
   class="fil18" /><path
   style="fill:#fff7ed;fill-rule:nonzero"
   inkscape:connector-curvature="0"
   id="path44252"
   d="m 3475.4996,1463.3729 c -16,3 -28,17 -26,34 4,38 64,30 60,-8 -3,-17 -16,-30 -34,-26 z"
   class="fil12" /><path
   style="fill:#282828;fill-rule:nonzero"
   inkscape:connector-curvature="0"
   id="path44254"
   d="m 3197.4996,1354.3729 c 4,5 19,3 24,4 22,2 44,4 67,5 61,5 122,11 182,21 21,3 42,7 61,14 39,15 54,49 54,89 -1,38 -5,79 -35,105 -8,7 -18,13 -28,17 -9,4 -8,5 -12,17 -9,28 -20,56 -33,83 -14,30 -32,63 -70,64 -50,2 -43,-49 -35,-82 7,-30 15,-60 23,-89 0,-2 -1,-4 -2,-4 -48,-9 -49,-73 -43,-109 0,-2 0,-4 -2,-4 -61,-21 -122,-41 -183,-62 -4,-1 -6,5 -2,7 61,21 122,41 183,62 -1,-1 -2,-3 -2,-4 -6,40 -4,108 48,118 -1,-1 -2,-3 -2,-4 -8,30 -15,60 -23,89 -5,22 -13,46 -2,67 19,41 76,23 98,-6 15,-20 25,-45 35,-68 5,-13 10,-26 15,-39 2,-6 4,-22 8,-26 5,-5 17,-8 24,-12 12,-8 23,-19 31,-32 18,-30 21,-78 16,-112 -5,-33 -26,-58 -57,-70 -23,-9 -49,-13 -73,-16 -33,-5 -66,-9 -100,-12 -35,-4 -71,-7 -107,-10 -12,-1 -24,-2 -37,-3 -4,0 -8,-1 -11,-1 -3,0 -4,-2 -2,1 -3,-4 -9,0 -6,4 v 0 z"
   class="fil15" /><path
   style="fill:#282828;fill-rule:nonzero"
   inkscape:connector-curvature="0"
   id="path44256"
   d="m 3200.4996,1348.3729 c -16,2 -26,14 -32,28 -3,8 -5,17 -6,26 -1,6 -4,17 -1,23 1,1 2,2 3,2 11,-1 22,-23 26,-31 7,-13 13,-30 14,-45 0,-4 -7,-4 -7,0 0,22 -13,47 -27,63 -1,1 -4,3 -4,4 -1,0 -1,1 -2,1 1,0 3,-1 4,-1 3,-6 1,-18 3,-25 3,-16 11,-38 30,-40 4,0 4,-7 0,-7 z"
   class="fil15" /><path
   style="fill:#282828;fill-rule:nonzero"
   inkscape:connector-curvature="0"
   id="path44258"
   d="m 3220.4996,1353.3729 c 3,26 -9,62 -27,81 -3,3 2,8 5,5 19,-21 32,-58 29,-86 -1,-4 -7,-4 -7,0 z"
   class="fil15" /><path
   style="fill:#282828;fill-rule:nonzero"
   inkscape:connector-curvature="0"
   id="path44260"
   d="m 3551.4996,1484.3729 c -5,-31 -25,-58 -57,-62 -29,-4 -60,9 -76,34 -17,25 -17,60 2,84 19,24 53,30 81,22 34,-11 54,-41 50,-76 -1,-4 -7,-4 -7,0 10,83 -125,101 -131,17 -3,-36 24,-67 59,-73 39,-7 67,20 73,57 1,4 7,3 7,-2 z"
   class="fil15" /><path
   style="fill:#282828;fill-rule:nonzero"
   inkscape:connector-curvature="0"
   id="path44262"
   d="m 3516.4996,1488.3729 c -4,-21 -20,-35 -42,-31 -20,4 -34,21 -32,42 5,46 79,37 74,-10 0,-4 -7,-4 -7,0 4,38 -57,47 -60,9 -2,-16 10,-31 26,-34 19,-4 31,9 34,26 1,4 7,3 7,-2 z"
   class="fil15" /><path
   style="fill:#282828;fill-rule:nonzero"
   inkscape:connector-curvature="0"
   id="path44264"
   d="m 3384.4996,1638.3729 c 18,2 35,3 53,5 4,0 4,-7 0,-7 -18,-2 -35,-3 -53,-5 -4,0 -4,7 0,7 z"
   class="fil15" /><path
   style="fill:#282828;fill-rule:nonzero"
   inkscape:connector-curvature="0"
   id="path44266"
   d="m 3378.4996,1670.3729 c 14,2 28,4 42,5 4,1 4,-6 0,-7 -14,-2 -28,-4 -42,-5 -4,-1 -4,6 0,7 z"
   class="fil15" /><path
   style="fill:#282828;fill-rule:nonzero"
   inkscape:connector-curvature="0"
   id="path44268"
   d="m 3368.4996,1713.3729 c 9,0 17,1 26,2 4,1 6,-6 2,-7 -9,-1 -18,-2 -28,-2 -4,0 -4,7 0,7 z"
   class="fil15" /><path
   style="fill:#282828;fill-rule:nonzero"
   inkscape:connector-curvature="0"
   id="path44270"
   d="m 3378.4996,1772.3729 c -3,8 -10,36 5,38 6,1 11,-5 15,-10 5,-7 9,-15 11,-23 1,-4 -5,-6 -7,-2 -2,8 -7,20 -14,25 -9,6 -8,-6 -7,-10 0,-5 2,-11 3,-16 1,-4 -5,-6 -7,-2 v 0 z"
   class="fil15" /><path
   style="fill:#282828;fill-rule:nonzero"
   inkscape:connector-curvature="0"
   id="path44272"
   d="m 3380.4996,1806.3729 c -13,34 -6,70 19,97 18,20 37,37 30,67 -6,27 -28,44 -54,51 -4,1 -2,8 2,7 36,-11 68,-44 58,-85 -5,-21 -22,-33 -36,-49 -21,-24 -25,-57 -13,-86 2,-4 -5,-6 -7,-2 v 0 z"
   class="fil15" /><path
   style="fill:#282828;fill-rule:nonzero"
   inkscape:connector-curvature="0"
   id="path44274"
   d="m 3362.4996,1519.3729 c -2,19 -1,42 19,52 4,2 8,-4 4,-6 -18,-8 -17,-29 -16,-46 0,-4 -7,-4 -7,0 z"
   class="fil15" /><path
   style="fill:#282828;fill-rule:nonzero"
   inkscape:connector-curvature="0"
   id="path44276"
   d="m 3393.4996,1580.3729 c 1,0 2,1 3,1 4,2 7,-4 4,-6 -1,0 -2,-1 -3,-1 -4,-2 -8,4 -4,6 z"
   class="fil15" /><path
   style="fill:#282828;fill-rule:nonzero"
   inkscape:connector-curvature="0"
   id="path44278"
   d="m 3063.4996,1417.3729 c 15,1 29,1 44,2 4,0 4,-7 0,-7 -15,-1 -29,-1 -44,-2 -4,0 -4,7 0,7 z"
   class="fil15" /><path
   style="fill:#282828;fill-rule:nonzero"
   inkscape:connector-curvature="0"
   id="path44280"
   d="m 3045.4996,1374.3729 c 27,0 54,3 81,6 4,1 6,-6 2,-7 -28,-4 -55,-6 -83,-7 -4,0 -4,7 0,7 v 0 z"
   class="fil15" /><path
   style="fill:#282828;fill-rule:nonzero"
   inkscape:connector-curvature="0"
   id="path44282"
   d="m 3057.4996,1337.3729 c 28,1 56,5 84,10 4,1 6,-6 2,-7 -28,-5 -57,-9 -86,-10 -4,0 -4,7 0,7 z"
   class="fil15" /><g
   id="g49276"><path
     class="fil13"
     d="m 3921.2811,1722.6557 c -1,0 -1,0 -2,-1 0,3 0,5 0,8 z"
     id="path44338"
     inkscape:connector-curvature="0"
     style="fill:#a7a0a0;fill-rule:nonzero" /><path
     class="fil13"
     d="m 4216.2811,1751.6557 c 1,-1 1,-1 0,0 z"
     id="path44340"
     inkscape:connector-curvature="0"
     style="fill:#a7a0a0;fill-rule:nonzero" /><path
     class="fil19"
     d="m 4000.2811,1789.6557 c 0,-15 0,-31 0,-46 -16,-3 -31,-7 -47,-11 0,5 0,17 -15,22 -9,3 -15,2 -19,0 0,7 0,13 0,20 0,7 -3,20 2,25 4,5 18,5 24,6 9,2 19,3 28,5 2,-7 7,-23 27,-21 z"
     id="path44342"
     inkscape:connector-curvature="0"
     style="fill:#8c6fa9;fill-rule:nonzero" /><path
     class="fil19"
     d="m 4097.2811,1764.6557 c -4,-1 -7,-2 -10,-3 -1,0 -2,0 -3,-1 -5,7 -17,21 -32,16 -16,-6 -14,-20 -13,-26 -3,-1 -7,-1 -10,-2 -7,-2 -15,-3 -22,-5 0,15 0,31 0,46 18,6 22,24 23,31 4,1 8,2 12,3 15,3 32,6 47,11 5,2 5,2 9,1 2,-24 2,-48 0,-72 z"
     id="path44344"
     inkscape:connector-curvature="0"
     style="fill:#8c6fa9;fill-rule:nonzero" /><path
     class="fil19"
     d="m 4149.2811,1773.6557 c 7,-3 11,-2 15,-1 0,-17 0,-34 0,-52 -11,9 -23,18 -34,27 -6,5 -13,13 -21,17 -2,1 -4,1 -6,1 1,23 1,45 0,68 6,-4 12,-10 17,-14 4,-3 8,-6 13,-9 0,-9 0,-31 16,-37 z"
     id="path44346"
     inkscape:connector-curvature="0"
     style="fill:#8c6fa9;fill-rule:nonzero" /><path
     class="fil19"
     d="m 4216.2811,1740.6557 c 0,0 0,-1 0,-1 -5,2 -16,4 -19,-10 -3,-15 12,-26 19,-31 0,-6 0,-12 0,-19 -5,4 -11,8 -15,11 -10,8 -20,16 -30,24 0,21 0,42 1,62 1,1 2,3 2,4 6,-4 12,-9 18,-13 7,-5 15,-13 23,-17 1,0 1,-1 2,-1 0,-3 0,-7 0,-10 z"
     id="path44348"
     inkscape:connector-curvature="0"
     style="fill:#8c6fa9;fill-rule:nonzero" /><path
     class="fil12"
     d="m 4039.2811,1749.6557 c 0,0 -6,21 13,28 19,7 34,-19 34,-19 z"
     id="path44350"
     inkscape:connector-curvature="0"
     style="fill:#fff7ed;fill-rule:nonzero" /><path
     class="fil12"
     d="m 3972.2811,1813.6557 c 0,0 2,-29 30,-24 27,5 28,36 28,36 z"
     id="path44352"
     inkscape:connector-curvature="0"
     style="fill:#fff7ed;fill-rule:nonzero" /><path
     class="fil12"
     d="m 3913.2811,1749.6557 c 0,0 5,13 24,6 19,-7 15,-24 15,-24 l -31,-10 -8,29 z"
     id="path44354"
     inkscape:connector-curvature="0"
     style="fill:#fff7ed;fill-rule:nonzero" /><path
     class="fil12"
     d="m 4133.2811,1814.6557 c 1,-1 -4,-33 16,-42 20,-8 26,11 26,11 l -42,30 z"
     id="path44356"
     inkscape:connector-curvature="0"
     style="fill:#fff7ed;fill-rule:nonzero" /><path
     class="fil12"
     d="m 4219.2811,1697.6557 c 0,0 -26,14 -22,33 4,19 22,8 22,8 z"
     id="path44358"
     inkscape:connector-curvature="0"
     style="fill:#fff7ed;fill-rule:nonzero" /><path
     class="fil20"
     d="m 3999.2811,1694.6557 c 0,-6 -1,-12 -1,-17 -28,-8 -56,-15 -83,-24 0,20 2,40 0,60 27,11 56,18 85,24 0,-14 0,-28 -1,-42 z"
     id="path44360"
     inkscape:connector-curvature="0"
     style="fill:#d1a7cd;fill-rule:nonzero" /><path
     class="fil20"
     d="m 4104.2811,1759.6557 c 0,-1 -1,-1 -1,-2 -1,-17 -2,-34 -2,-52 -10,1 -30,-9 -39,-11 -19,-6 -38,-11 -57,-16 -2,9 0,19 0,28 0,10 0,20 1,31 12,3 25,5 37,8 19,4 39,7 58,13 3,1 3,2 3,2 z"
     id="path44362"
     inkscape:connector-curvature="0"
     style="fill:#d1a7cd;fill-rule:nonzero" /><path
     class="fil20"
     d="m 3999.2811,1670.6557 c 1,-2 2,-4 4,-6 4,-4 9,-7 13,-10 12,-9 24,-17 36,-26 -27,-6 -54,-12 -81,-20 -1,0 -1,-1 -2,-1 -18,13 -36,26 -53,39 28,9 56,17 84,24 z"
     id="path44364"
     inkscape:connector-curvature="0"
     style="fill:#d1a7cd;fill-rule:nonzero" /><path
     class="fil20"
     d="m 4042.2811,1619.6557 c -14,-11 -28,-25 -36,-40 -10,8 -21,16 -31,23 22,6 45,12 67,17 z"
     id="path44366"
     inkscape:connector-curvature="0"
     style="fill:#d1a7cd;fill-rule:nonzero" /><path
     class="fil20"
     d="m 4156.2811,1599.6557 c -19,16 -52,26 -76,29 29,6 58,13 86,21 15,-12 30,-23 45,-35 -19,-3 -37,-9 -56,-15 z"
     id="path44368"
     inkscape:connector-curvature="0"
     style="fill:#d1a7cd;fill-rule:nonzero" /><path
     class="fil20"
     d="m 4068.2811,1610.6557 c 7,-9 13,-19 19,-30 -6,-2 -13,-3 -19,-5 2,12 2,23 0,35 z"
     id="path44370"
     inkscape:connector-curvature="0"
     style="fill:#d1a7cd;fill-rule:nonzero" /><path
     class="fil20"
     d="m 4117.2811,1588.6557 c 0,0 0,0 -1,1 -15,11 -29,22 -44,33 22,-1 44,-6 64,-17 5,-2 9,-5 13,-8 -2,-1 -4,-1 -6,-2 -9,-2 -17,-5 -26,-7 z"
     id="path44372"
     inkscape:connector-curvature="0"
     style="fill:#d1a7cd;fill-rule:nonzero" /><path
     class="fil20"
     d="m 4062.2811,1574.6557 c -2,0 -3,-1 -5,-1 -9,-2 -18,-4 -27,-7 -1,0 -3,-1 -4,-1 0,0 -1,1 -2,2 -4,3 -8,6 -12,9 3,4 5,8 8,12 10,13 22,26 36,35 1,0 1,1 1,2 0,0 0,0 0,0 5,-13 7,-32 4,-49 z"
     id="path44374"
     inkscape:connector-curvature="0"
     style="fill:#d1a7cd;fill-rule:nonzero" /><path
     class="fil20"
     d="m 4109.2811,1586.6557 c -5,-1 -10,-3 -15,-4 -1,1 -1,2 -2,3 -5,9 -10,17 -16,24 11,-8 21,-16 32,-24 z"
     id="path44376"
     inkscape:connector-curvature="0"
     style="fill:#d1a7cd;fill-rule:nonzero" /><path
     class="fil20"
     d="m 4161.2811,1653.6557 c -5,-1 -15,-3 -17,-3 -11,-3 -23,-6 -34,-8 -16,-4 -32,-7 -48,-11 -1,1 -1,1 -2,1 -9,7 -18,13 -27,20 -6,5 -13,9 -19,14 -3,2 -4,5 -6,8 16,4 33,9 49,13 11,3 25,6 36,11 4,2 6,4 9,3 6,-2 13,-10 18,-14 14,-11 29,-22 43,-33 z"
     id="path44378"
     inkscape:connector-curvature="0"
     style="fill:#d1a7cd;fill-rule:nonzero" /><path
     class="fil20"
     d="m 4164.2811,1712.6557 c 0,-14 0,-27 0,-41 0,-2 1,-8 1,-13 -15,12 -31,24 -46,36 -3,2 -7,6 -10,9 0,18 1,35 2,53 3,-2 5,-5 8,-7 15,-12 31,-25 46,-37 z"
     id="path44380"
     inkscape:connector-curvature="0"
     style="fill:#d1a7cd;fill-rule:nonzero" /><path
     class="fil20"
     d="m 4212.2811,1674.6557 c 1,0 3,-2 4,-3 0,-2 0,-7 0,-9 0,-14 0,-28 0,-42 0,0 0,0 0,0 -15,12 -30,23 -45,35 0,18 0,35 0,53 5,-4 10,-8 16,-12 9,-7 17,-14 26,-21 z"
     id="path44382"
     inkscape:connector-curvature="0"
     style="fill:#d1a7cd;fill-rule:nonzero" /><path
     class="fil15"
     d="m 3908.2811,1645.6557 c -1,23 2,46 -1,69 0,2 0,3 2,4 37,15 78,22 118,31 20,4 40,8 59,13 8,2 16,6 23,3 7,-3 14,-11 20,-16 12,-9 23,-19 35,-28 12,-10 24,-19 36,-29 6,-4 15,-10 19,-16 4,-6 2,-15 2,-21 0,-14 0,-28 0,-42 0,-2 -1,-3 -3,-3 -49,-13 -98,-26 -147,-39 -12,-3 -24,-6 -36,-10 -4,-1 -10,-4 -14,-3 -5,1 -11,8 -15,11 -12,9 -24,18 -36,27 -21,16 -42,32 -63,47 -4,3 0,9 4,6 16,-12 31,-23 47,-35 20,-15 45,-29 62,-46 2,-2 6,-3 1,-3 1,0 3,1 5,1 8,3 18,5 26,7 29,8 57,15 86,23 23,6 47,12 70,19 2,1 4,1 6,2 2,1 -2,-2 -2,-3 0,2 0,4 0,6 -2,14 0,28 0,42 0,3 1,9 0,12 2,-4 -1,0 -3,1 -9,6 -17,13 -25,20 -23,18 -46,37 -68,55 -4,3 -8,7 -12,9 -5,3 0,1 -5,0 -19,-4 -38,-9 -57,-13 -45,-9 -91,-17 -133,-34 1,1 2,3 2,4 3,-24 0,-47 1,-71 0,-4 -7,-4 -7,0 z"
     id="path44384"
     inkscape:connector-curvature="0"
     style="fill:#282828;fill-rule:nonzero" /><path
     class="fil15"
     d="m 3912.2811,1719.6557 c 0,28 -1,56 -1,85 0,1 1,3 3,3 58,9 115,21 172,35 10,3 11,3 18,-2 9,-6 17,-13 26,-19 23,-17 46,-34 69,-50 9,-6 22,-11 23,-23 2,-25 0,-51 0,-76 0,-4 -7,-4 -7,0 0,23 0,46 0,69 0,3 1,7 0,10 1,-3 2,-2 -2,0 -8,4 -16,12 -24,17 -24,17 -47,34 -71,51 -6,5 -15,14 -22,16 -5,2 -7,0 -13,-2 -15,-4 -30,-7 -45,-11 -33,-8 -67,-14 -101,-20 -7,-1 -16,-1 -20,-7 -3,-5 0,-20 0,-26 0,-17 0,-35 1,-52 0,-4 -7,-4 -7,0 v 0 z"
     id="path44386"
     inkscape:connector-curvature="0"
     style="fill:#282828;fill-rule:nonzero" /><path
     class="fil15"
     d="m 4097.2811,1764.6557 c 2,25 1,51 0,76 0,4 7,4 7,0 2,-25 2,-51 0,-76 0,-4 -7,-4 -7,0 z"
     id="path44388"
     inkscape:connector-curvature="0"
     style="fill:#282828;fill-rule:nonzero" /><path
     class="fil15"
     d="m 3911.2811,1652.6557 c 49,16 98,28 147,42 11,3 35,15 45,12 5,-2 10,-8 14,-11 34,-27 69,-53 103,-80 4,-3 -1,-8 -5,-5 -33,25 -66,51 -99,76 -5,4 -12,12 -17,13 -4,1 -7,-3 -12,-4 -11,-4 -23,-7 -34,-10 -47,-13 -95,-25 -142,-40 -4,-1 -6,5 -2,7 v 0 z"
     id="path44390"
     inkscape:connector-curvature="0"
     style="fill:#282828;fill-rule:nonzero" /><path
     class="fil15"
     d="m 4101.2811,1702.6557 c 0,19 1,37 2,56 0,4 7,4 7,0 -1,-19 -2,-37 -2,-56 0,-4 -7,-4 -7,0 z"
     id="path44392"
     inkscape:connector-curvature="0"
     style="fill:#282828;fill-rule:nonzero" /><path
     class="fil15"
     d="m 4111.2811,1584.6557 c -31,24 -64,47 -95,70 -4,3 -10,7 -14,11 -7,8 -4,20 -3,29 1,40 1,80 1,120 0,4 7,4 7,0 1,-37 1,-73 0,-110 0,-15 -4,-30 9,-41 6,-5 12,-9 18,-13 28,-21 57,-41 84,-62 4,-3 -1,-8 -5,-5 v 0 z"
     id="path44394"
     inkscape:connector-curvature="0"
     style="fill:#282828;fill-rule:nonzero" /><path
     class="fil15"
     d="m 3971.2811,1608.6557 c 47,14 94,23 141,33 11,3 22,5 33,8 2,1 18,4 18,3 2,3 0,16 0,19 0,39 1,78 1,117 0,4 7,4 7,0 0,-46 -1,-91 -1,-137 0,-2 -1,-3 -3,-3 -64,-19 -131,-29 -195,-48 -4,-1 -6,5 -2,7 v 0 z"
     id="path44396"
     inkscape:connector-curvature="0"
     style="fill:#282828;fill-rule:nonzero" /><path
     class="fil15"
     d="m 4062.2811,1629.6557 c 10,-23 11,-48 2,-71 -7,-17 -25,-41 -47,-33 -16,6 -21,26 -16,41 8,24 32,47 52,60 4,2 7,-4 4,-6 -19,-12 -76,-65 -41,-87 23,-14 41,21 45,37 5,18 3,37 -4,55 -2,4 4,8 6,4 v 0 z"
     id="path44398"
     inkscape:connector-curvature="0"
     style="fill:#282828;fill-rule:nonzero" /><path
     class="fil15"
     d="m 4064.2811,1624.6557 c 25,-22 40,-86 79,-80 12,2 15,5 18,18 2,8 1,16 -2,23 -4,10 -16,16 -26,21 -21,10 -45,15 -68,16 -4,0 -4,7 0,7 39,-1 132,-24 97,-82 -11,-19 -33,-13 -48,-1 -24,20 -32,53 -55,74 -3,3 2,8 5,5 v 0 z"
     id="path44400"
     inkscape:connector-curvature="0"
     style="fill:#282828;fill-rule:nonzero" /></g><path
   style="fill:#8ba150;fill-rule:nonzero"
   inkscape:connector-curvature="0"
   id="path44402"
   d="m 3435.4595,2217.1472 c -11,4 8,72 18,73 10,1 166,-24 221,-43 55,-20 87,-27 83,-58 -3,-30 -18,-55 -39,-64 -27,-11 -272,88 -283,92 z"
   class="fil21" /><path
   style="fill:#fdbc47;fill-rule:nonzero"
   inkscape:connector-curvature="0"
   id="path44404"
   d="m 2989.4595,2356.1472 c 0,43 107,26 101,-18 -5,-44 -101,-25 -101,18 z"
   class="fil14" /><path
   style="fill:#fdbc47;fill-rule:nonzero"
   inkscape:connector-curvature="0"
   id="path44406"
   d="m 3117.4595,2336.1472 c -11,50 105,31 105,-5 0,-36 -94,-42 -105,5 z"
   class="fil14" /><path
   style="fill:#6c6d6d;fill-rule:nonzero"
   inkscape:connector-curvature="0"
   id="path44408"
   d="m 2898.4595,2420.1472 c 3,-17 11,-32 24,-44 0,0 1,0 1,-1 -8,-26 -3,-57 18,-76 27,-21 61,-28 95,-30 18,-1 36,0 54,2 24,3 48,1 73,0 18,-1 39,-2 59,2 37,1 85,9 111,38 16,-60 -77,-86 -123,-91 -92,-10 -194,7 -270,62 -27,20 -56,47 -64,81 -6,25 4,45 21,59 z"
   class="fil22" /><path
   style="fill:#6c6d6d;fill-rule:nonzero"
   inkscape:connector-curvature="0"
   id="path44410"
   d="m 3162.4595,2423.1472 c 35,-11 70,-25 102,-43 23,-13 49,-29 62,-53 1,-2 3,-5 4,-7 0,0 0,0 0,0 -17,-20 -45,-30 -73,-35 4,2 8,5 11,8 17,16 13,37 0,55 -35,49 -103,69 -159,80 -51,10 -127,20 -168,-22 -6,-6 -11,-14 -15,-21 -11,11 -19,26 -20,42 4,3 8,5 12,7 74,32 169,12 243,-11 z"
   class="fil22" /><path
   style="fill:#e5654f;fill-rule:nonzero"
   inkscape:connector-curvature="0"
   id="path44412"
   d="m 3337.4595,2326.1472 c 0,0 0,0 0,1 -12,26 -40,45 -64,59 -36,21 -76,37 -117,49 -75,22 -168,40 -242,7 -5,-2 -9,-5 -14,-8 -1,0 -2,-1 -3,-2 -5,-3 -9,-7 -13,-11 6,18 13,35 22,52 5,11 12,28 23,34 5,3 14,4 20,5 61,11 128,10 189,-4 60,-14 122,-39 171,-76 7,-5 16,-12 21,-19 7,-11 4,-29 5,-42 0,-15 1,-30 2,-45 z"
   class="fil18" /><path
   style="fill:#282828;fill-rule:nonzero"
   inkscape:connector-curvature="0"
   id="path44414"
   d="m 2918.4595,2434.1472 c -28,-13 -50,-37 -43,-71 7,-32 33,-59 58,-79 75,-58 178,-76 272,-68 51,5 164,34 124,109 -13,23 -38,40 -60,53 -32,19 -67,33 -103,44 -42,13 -86,23 -131,26 -39,3 -80,1 -115,-14 -4,-2 -8,4 -4,6 72,32 164,15 237,-6 40,-12 80,-27 116,-47 24,-14 52,-32 66,-57 37,-68 -47,-106 -100,-116 -99,-17 -215,0 -298,60 -30,22 -62,52 -68,91 -6,35 17,61 47,76 4,2 8,-4 4,-6 z"
   class="fil15" /><path
   style="fill:#282828;fill-rule:nonzero"
   inkscape:connector-curvature="0"
   id="path44416"
   d="m 2867.4595,2389.1472 c 7,24 15,47 25,69 7,16 17,45 32,55 10,6 27,7 39,9 25,3 50,5 75,5 62,0 122,-12 179,-36 41,-16 87,-37 118,-70 14,-15 9,-40 9,-60 1,-26 3,-53 -1,-79 -1,-4 -7,-3 -7,2 3,22 2,44 1,66 0,11 -1,22 -1,33 0,10 2,21 -4,29 -9,13 -26,23 -39,32 -20,13 -41,24 -63,34 -54,24 -111,38 -170,41 -41,2 -85,2 -125,-9 -18,-5 -26,-29 -34,-45 -12,-25 -21,-51 -28,-77 -1,-4 -8,-2 -7,2 v 0 z"
   class="fil15" /><path
   style="fill:#282828;fill-rule:nonzero"
   inkscape:connector-curvature="0"
   id="path44418"
   d="m 2942.4595,2300.1472 c -31,28 -28,78 1,106 42,40 118,30 169,20 55,-11 126,-32 158,-82 12,-19 11,-39 -7,-53 -30,-23 -73,-20 -108,-18 -69,4 -153,-20 -212,28 -3,3 1,8 5,5 44,-35 105,-29 157,-25 33,3 65,-4 98,-2 26,2 82,13 68,51 -9,26 -37,45 -61,57 -22,12 -47,20 -71,26 -49,13 -111,24 -160,6 -46,-16 -70,-78 -30,-114 3,-3 -2,-8 -5,-5 z"
   class="fil15" /><path
   style="fill:#282828;fill-rule:nonzero"
   inkscape:connector-curvature="0"
   id="path44420"
   d="m 2905.4595,2429.1472 c 1,-18 9,-35 23,-47 3,-3 -2,-8 -5,-5 -15,14 -24,32 -25,52 0,4 7,4 7,0 z"
   class="fil15" /><path
   style="fill:#282828;fill-rule:nonzero"
   inkscape:connector-curvature="0"
   id="path44422"
   d="m 3222.4595,2280.1472 c 36,1 84,9 109,38 3,3 8,-2 5,-5 -26,-31 -76,-40 -114,-40 -4,0 -4,7 0,7 z"
   class="fil15" /><path
   style="fill:#282828;fill-rule:nonzero"
   inkscape:connector-curvature="0"
   id="path44424"
   d="m 3343.4595,2277.1472 c 31,-15 62,-29 93,-44 4,-2 1,-8 -4,-6 -31,15 -62,29 -93,44 -4,2 -1,8 4,6 z"
   class="fil15" /><path
   style="fill:#282828;fill-rule:nonzero"
   inkscape:connector-curvature="0"
   id="path44426"
   d="m 3347.4595,2322.1472 c 31,-20 63,-35 98,-45 4,-1 2,-8 -2,-7 -36,10 -69,26 -100,46 -4,2 0,8 4,6 z"
   class="fil15" /><path
   style="fill:#282828;fill-rule:nonzero"
   inkscape:connector-curvature="0"
   id="path44428"
   d="m 2954.4595,2358.1472 c 1,19 14,35 32,39 4,1 6,-6 2,-7 -15,-4 -26,-17 -27,-33 0,-4 -7,-4 -7,0 v 0 z"
   class="fil15" /><path
   style="fill:#282828;fill-rule:nonzero"
   inkscape:connector-curvature="0"
   id="path44430"
   d="m 2998.4595,2397.1472 c 0,0 0,1 0,1 0,4 7,4 7,0 0,0 0,-1 0,-1 0,-4 -7,-4 -7,0 z"
   class="fil15" /><g
   id="g46522"><path
     class="fil23"
     d="m 4093.1419,207.3782 c -32,-13 -68,-12 -102,-11 h -4 l 1,3 c 1,8 1,15 -1,22 l -1,4 h 4 c 10,1 21,1 31,1 25,0 49,-3 72,-15 l 6,-3 -6,-2 z"
     id="path44432"
     inkscape:connector-curvature="0"
     style="fill:#ffdfa4;fill-rule:nonzero" /><path
     class="fil23"
     d="m 3893.1419,146.3782 3,-1 c 11,-5 23,-6 34,-3 l 4,1 -1,-4 c -3,-21 -7,-41.999998 -13,-61.999998 v -1 c 0,0 0,0 0,0 v -1 c -6,-20 -14,-41 -23,-61 l -3,-7.0000001 -2,7.0000001 c -14,45 -8,92.999998 0,128.999998 l 1,4 z"
     id="path44434"
     inkscape:connector-curvature="0"
     style="fill:#ffdfa4;fill-rule:nonzero" /><path
     class="fil23"
     d="m 3934.1419,265.3782 c -12,3 -24,3 -34,0 l -2,-1 -1,2 c -19,29 -7,78 -1,97 l 2,5 4,-4 c 21,-26 32,-58 33,-92 0,0 1,0 1,0 l 6,2 -2,-10 -3,1 z"
     id="path44436"
     inkscape:connector-curvature="0"
     style="fill:#ffdfa4;fill-rule:nonzero" /><path
     class="fil23"
     d="m 3793.1419,163.3782 c 20,16 39,24 60,26 h 2 l 1,-2 c 2,-8 7,-16 12,-22 l 3,-4 v 0 l 2,-2 c 4,-4 8,-7 12,-9 l 4,-2 -1,-2 c -15,-36 -38,-65.999998 -69,-90.999998 l -5,-4 v 6 c 0,20 6,39 18,57.999998 7,11 22,36 37,45 h 1 l -3,-1 c 0,0 0,0 0,0 -29,-24 -66,-34 -103,-29 l -6,1 4,4 c 10,10 19,19 29,27 z"
     id="path44438"
     inkscape:connector-curvature="0"
     style="fill:#ffdfa4;fill-rule:nonzero" /><path
     class="fil23"
     d="m 3894.1419,263.3782 -3,-1 c -9,-4 -17,-10 -24,-19 l -2,-2 -2,2 c -25,17 -44,41 -56,69 l -2,6 6,-2 c 9,-2 21,-6 33,-10 h 1 l 1,-2 1,1 1,-1 c 20,-9 35,-21 44,-37 l 2,-3 z"
     id="path44440"
     inkscape:connector-curvature="0"
     style="fill:#ffdfa4;fill-rule:nonzero" /><path
     class="fil23"
     d="m 3863.1419,237.3782 -2,-3 c -6,-12 -8,-25 -7,-37 l 1,-5 -4,1 c -38,10 -62,28 -75,54 l -2,4 h 5 c 1,0 1,0 2,0 27,0 54,-5 79,-14 l 3,-1 z"
     id="path44442"
     inkscape:connector-curvature="0"
     style="fill:#ffdfa4;fill-rule:nonzero" /><path
     class="fil23"
     d="m 3958.1419,154.3782 2,1 2,-2 c 17,-15 33,-29 46,-46 8,-10.999998 14,-20.999998 18,-31.999998 6,-16 11,-36 2,-41 -8,-5 -35,18 -38,20 -8,7 -15,14 -21,23 -12,16 -22,34.999998 -31,61.999998 l -1,3 3,1 c 7,2 13,6 19,10 z"
     id="path44444"
     inkscape:connector-curvature="0"
     style="fill:#ffdfa4;fill-rule:nonzero" /><path
     class="fil23"
     d="m 3966.1419,251.3782 -3,2 c -4,2 -7,4 -10,6 -4,2 -8,4 -13,5 l -3,1 1,3 c 8,36 29,66 60,86 l 4,3 v -5 c 3,-35 -17,-68 -35,-97 l -2,-3 z"
     id="path44446"
     inkscape:connector-curvature="0"
     style="fill:#ffdfa4;fill-rule:nonzero" /><path
     class="fil23"
     d="m 3966.1419,156.3782 -3,2 3,2 c 9,9 16,19 20,30 l 1,3 3,-1 c 16,-5 31,-12 47,-24 7,-5 14,-11 23,-18 1,-1 2,-1 3,-2 2,-2 5,-4 7,-6 0,0 11,-15 4,-21 -4,-3 -15,-2 -32,1 h -3 c -8,1 -16,3 -24,6 -17,6 -34,15 -49,27 z"
     id="path44448"
     inkscape:connector-curvature="0"
     style="fill:#ffdfa4;fill-rule:nonzero" /><path
     class="fil23"
     d="m 4041.1419,259.3782 -4,-3 c -14,-13 -32,-26 -50,-28 h -2 l -1,2 c -3,6 -8,12 -14,17 l -3,2 3,2 c 23,20 62,41 95,41 1,0 2,0 4,0 h 6 l -4,-5 c -9,-10 -20,-20 -30,-29 z"
     id="path44450"
     inkscape:connector-curvature="0"
     style="fill:#ffdfa4;fill-rule:nonzero" /><path
     class="fil24"
     d="m 3770.1419,255.3782 1,-1 v -2 c 3,-8 7,-15 12,-21 l 5,-6 -7,1 c -29,4 -57,0 -83,-12 l -2,-1 -2,1 c -9,9 -16,18 -22,26 l -1,2 c -8,11 -16,24 -11,30 1,2 3,3 17,4 1,0 2,0 2,0 7,1 15,2 22,3 11,1 22,2 35,2 0,0 0,0 0,0 l 2,2 2,-2 c 9,-11 19,-20 30,-27 z"
     id="path44452"
     inkscape:connector-curvature="0"
     style="fill:#dca239;fill-rule:nonzero" /><path
     class="fil24"
     d="m 3804.1419,319.3782 c 0,0 -1,0 -1,0 1,-4 3,-7 5,-12 l 5,-11 -9,7 c -13,9 -26,17 -40,24 l -3,1 1,3 c -14,22 -11,57 -9,81 v 4 l 4,-2 c 11,-5 23,-10 34,-16 5,-3 9,-7 13,-11 4,-4 8,-8 13,-10 l 1,-1 1,-3 c 1,-3 2,-6 2,-8 4,-17 8,-35 17,-51 l 4,-7 -7,3 c -11,4 -21,6 -31,9 z"
     id="path44454"
     inkscape:connector-curvature="0"
     style="fill:#dca239;fill-rule:nonzero" /><path
     class="fil24"
     d="m 3690.1419,127.3782 c 3,2 5,5 8,7 l 2,2 c 12,11 24,22 40,27 l 1,1 h 1 c 13,-2 26,-3 39,-2 h 9 l -7,-6 c -9,-8 -17,-16 -27,-25 l -2,2 v 0 l 2,-3 c 13,-2 26,-3 38,-2 l 10,1 -8,-6 c -13,-10 -22,-19 -31,-26.999998 l -1,-1 h -1 c -33,-5 -68,-9 -97,0 l -3,1 2,3 c 6,10.999998 16,19.999998 25,27.999998 z"
     id="path44456"
     inkscape:connector-curvature="0"
     style="fill:#dca239;fill-rule:nonzero" /><path
     class="fil24"
     d="m 3922.1419,342.3782 -2,-8 -4,7 c -6,11 -12,21 -20,30 v 0 c 0,0 -1,0 -1,-1 -3,-9 -6,-20 -8,-29 l -2,-10 -4,9 c -6,15 -14,28 -24,39 l -1,1 v 1 c 1,13 3,24 7,35 8,24 16,35 23,35 0,0 0,0 0,0 2,0 5,-2 13,-8 1,-1 2,-1 2,-1 7,-5 12,-9 17,-13 10,-9 17,-18 23,-28 l 1,-2 -1,-2 c -9,-18 -16,-37 -21,-56 z"
     id="path44458"
     inkscape:connector-curvature="0"
     style="fill:#dca239;fill-rule:nonzero" /><path
     class="fil24"
     d="m 4029.1419,33.378202 v 0 c 9,4 4,23 1,33 l -3,10 8,-7 c 10,-8 21,-15 36,-21 l 2,-1 -1,-3 c 0,0 17,-42.0000001 7,-56 -2,-3 -5,-5 -9,-5 -10,0 -24,6.9999999 -33,10.9999999 -8,4 -15,8 -23,14 l -1,1 v 1.0000001 c -1,8 -2,16 -3,24 l -1,6 6,-3 c 3,-2 12,-7 16,-5 z"
     id="path44460"
     inkscape:connector-curvature="0"
     style="fill:#dca239;fill-rule:nonzero" /><path
     class="fil24"
     d="m 4057.1419,112.3782 -7,6 10,-1 c 10,-1 17,1 19,4 2,2 6,8 -9,22 l -8,7 10,-2 c 17,-3 34,-5 52,-6 h 3 v -3 c 6,-7 13,-15 20,-25 0,-1 1,-2 2,-3 7,-9 13,-18.999998 11,-24.999998 -2,-4 -10,-7 -31,-11 h -2 c -10,-2 -20,-3 -31,-2 h -2 l -1,1 c -10,13 -21,25 -35,36.999998 z"
     id="path44462"
     inkscape:connector-curvature="0"
     style="fill:#dca239;fill-rule:nonzero" /><path
     class="fil24"
     d="m 3829.1419,15.378202 v -1 l -1,-1 c -17,-14.00000013 -35,-24 -57,-30 l -4,-1 v 4 c 0,3.9999999 1,8.9999999 1,12.99999987 0,9.00000003 1,17.00000013 3,26.00000013 3,14 9,28 17,43 v 1 h 1 c 8,6 16,11 24,17 l 7,5 -2,-8 c -3,-11 -4,-23 -4,-34 0,0 0,-1 1,-1 8,6 16,13 23,20 l 9,9 -4,-12 c -5,-16 -10,-33 -13,-50 z"
     id="path44464"
     inkscape:connector-curvature="0"
     style="fill:#dca239;fill-rule:nonzero" /><path
     class="fil24"
     d="m 3879.1419,41.378202 4,11 2,-11 c 2,-12 5,-24 9,-36.0000001 0,0 1,-1 1,-1 8,17.0000001 15,34.0000001 21,52.0000001 l 4,12 2,-13 c 2,-14 5,-28 11,-41 1,-1 1,-3 2,-5.0000001 1,-3 2,-6 4,-10.00000003 l 1,-1.99999997 -2,-1 c -3,-12.9999999 -8,-23.9999999 -15,-33.9999999 -12,-18 -20,-25 -26,-24 -7,1 -12,12 -18,24 -1,2 -1,3 -2,4 -7,14 -11,27.9999999 -12,41.9999999 l -1,1 1,1.0000001 c 5,10 11,20 15,30 z"
     id="path44466"
     inkscape:connector-curvature="0"
     style="fill:#dca239;fill-rule:nonzero" /><path
     class="fil24"
     d="m 4046.1419,361.3782 -2,-1 c -2,-1 -4,-3 -6,-4 -11,-8 -21,-18 -30,-29 l -7,-9 2,12 c 2,10 2,19 1,28 0,0 -1,0 -1,0 -11,-6 -20,-14 -29,-22 l -7,-7 2,10 c 5,22 8,43 9,64 v 2 l 2,1 c 1,2 4,5 20,15 2,1 3,2 4,2 10,6 23,14 36,18 l 3,1 1,-4 c 4,-25 5,-49 2,-74 l 1,-2 z"
     id="path44468"
     inkscape:connector-curvature="0"
     style="fill:#dca239;fill-rule:nonzero" /><path
     class="fil24"
     d="m 4118.1419,269.3782 h -2 c -18,1 -38,-1 -57,-4 l -10,-2 7,7 c 8,8 15,15 21,22 0,0 0,1 0,1 -8,1 -17,1 -26,-1 l -7,-1 4,6 c 8,12 16,26 26,44 l 1,2 h 2 c 11,2 22,3 31,5 1,0 2,1 4,1 5,1 9,2 12,2 1,0 2,0 3,0 7,-3 12,-13 13,-19 2,-20 -12,-44 -22,-61 l -1,-2 z"
     id="path44470"
     inkscape:connector-curvature="0"
     style="fill:#dca239;fill-rule:nonzero" /><path
     class="fil14"
     d="m 3855.1419,247.3782 14,-11 -17,5 c -24,8 -50,12 -75,11 h -1 l -1,1 c -33,18 -49,51 -63,83 l -2,5 6,-1 c 35,-7 67,-22 95,-44 0,0 0,0 1,0 h 2 l 1,-2 c 10,-19 24,-35 41,-48 z"
     id="path44474"
     inkscape:connector-curvature="0"
     style="fill:#fdbc47;fill-rule:nonzero" /><path
     class="fil14"
     d="m 3965.1419,325.3782 -1,-1 c -11,-14 -20,-30 -24,-48 l -5,-19 -1,20 c -1,19 -5,37 -12,55 l -1,2 1,1 c 8,38 25,73 48,105 l 5,7 1,-8 c 2,-36 -1,-74 -11,-112 v -1 z"
     id="path44476"
     inkscape:connector-curvature="0"
     style="fill:#fdbc47;fill-rule:nonzero" /><path
     class="fil14"
     d="m 3846.1419,306.3782 h -1 l -1,1 c -11,15 -16,35 -20,53 l -1,3 c -2,9 -4,18 -6,26 0,1 -1,3 -1,5 -1,6 -3,12 -1,16 0,1 0,1 1,2 0,1 1,3 3,3 h 2 l 1,-2 c 0,0 1,-1 2,-2 11,-8 22,-18 31,-29 l 1,-1 v -1 -1 0 h 1 l 1,-1 c 12,-15 21,-32 27,-49 v -1 -1 c -2,-16 -2,-30 1,-41 l 3,-11 -8,8 c -9,9 -21,17 -36,23 z"
     id="path44478"
     inkscape:connector-curvature="0"
     style="fill:#fdbc47;fill-rule:nonzero" /><path
     class="fil14"
     d="m 3788.1419,224.3782 h 2 l 1,-1 c 12,-12 29,-22 50,-29 l 11,-3 -11,-2 c -17,-4 -32,-11 -49,-24 l -1,-1 h -1 c -42,-4 -83,6 -118,28 l -4,2 3,3 c 26,20 57,30 89,30 9,0 18,-1 27,-3 z"
     id="path44480"
     inkscape:connector-curvature="0"
     style="fill:#fdbc47;fill-rule:nonzero" /><path
     class="fil14"
     d="m 3803.1419,127.3782 2,-2 -2,2 v 3 h 2 c 13,2 26,7 37,13 l 12,6 -8,-10 c -5,-7 -10,-14 -14,-20 -6,-9 -10,-18 -13,-26.999998 l -2,-5 -3,4 c -8,-6 -17,-12 -27,-19 l -3,-2 c -3,-2 -6,-4 -9,-6 -2,-1 -4,-3 -7,-4 -12,-8 -24,-16 -38,-20 l -6,-1 3,6 c 18,35 47,60.999998 76,83.999998 z"
     id="path44482"
     inkscape:connector-curvature="0"
     style="fill:#fdbc47;fill-rule:nonzero" /><path
     class="fil14"
     d="m 3986.1419,134.3782 -17,16 20,-11 c 13,-7 26,-12 40,-16 l 3,-1 c 4,-1 9,-2 14,-3 l 2,-1 1,-1 c 14,-10 25,-20.999998 35,-32.999998 3,-3 6,-7 9,-12 v -1 c 2,-3 4,-5 5,-8 1,-1 1,-2 2,-3 4,-6 8,-11 8,-15 1,-1 2,-4 0,-6 -2,-2 -6,-1 -8,1 l -4,1 c -3,1 -6,2 -10,3 -8,2 -13,4 -19,6 -16,6 -29,15 -39,26 l 2,2 -2,-2 h -2 l -1,2 c -2,6 -4,10 -5,11 -8,14.999998 -19,28.999998 -35,43.999998 z"
     id="path44484"
     inkscape:connector-curvature="0"
     style="fill:#fdbc47;fill-rule:nonzero" /><path
     class="fil14"
     d="m 3883.1419,60.378202 v 0 0 c -3,-14 -10,-28 -17,-42 -2,-4 -5,-9.0000001 -7,-13.0000001 -8,-16.9999999 -16,-30.9999999 -28,-42.9999999 l -5,-5 v 7 c 1,17 2,32.9999999 5,49 v 1 h 3 v 0 h -3 v 0 0 c 4,22 10,43 17,64 v 1 l 1,1 c 13,15 24,30.999998 33,48.999998 l 9,18 -3,-20 c -4,-26 -6,-47.999998 -5,-67.999998 z"
     id="path44486"
     inkscape:connector-curvature="0"
     style="fill:#fdbc47;fill-rule:nonzero" /><path
     class="fil14"
     d="m 3934.1419,129.3782 2,11 4,-11 c 9,-23 18,-40.999998 30,-54.999998 l 1,-2 v 0 l 6,-7 c 1,-1 1,-1 2,-2 v 0 c 8,-9 18,-16 28,-22 l 3,-2 -2,-3 c 4,-24 6,-48 4,-72 l -1,-8 -5,6 c -16,20 -28,41.9999999 -37,67 l -1,1 v 2 c 2,10 2,21 3,33 v 6 l -1,-1 c 0,-19 -2,-37 -6,-53 0,-1 -1,-3 -1,-4 -1,-5.0000001 -2,-11.0000001 -5,-16.0000001 l -1,-2 c -2,-4 -3,-5.9999999 -6,-6.9999999 -3,0 -5,1.9999999 -8,4.9999999 -15,19.0000001 -21,54.0000001 -22,80.0000001 v 0 0 c 5,18 9,35.999998 12,53.999998 z"
     id="path44488"
     inkscape:connector-curvature="0"
     style="fill:#fdbc47;fill-rule:nonzero" /><path
     class="fil14"
     d="m 4149.1419,145.3782 c -30,-2 -60,1 -89,8 v 0 h -1 l -3,2 c -2,1 -3,2 -4,3 -17,14 -33,24 -48,30 l -15,6 h 16 c 24,0 49,0 73,6 h 2 l 1,-1 c 29,-9 53,-26 71,-50 l 3,-5 h -6 z"
     id="path44490"
     inkscape:connector-curvature="0"
     style="fill:#fdbc47;fill-rule:nonzero" /><path
     class="fil14"
     d="m 4043.1419,292.3782 -1,-1 h -1 c -20,-5 -41,-15 -60,-29 l -12,-9 8,13 c 10,17 17,31 21,45 l 1,1 1,1 c 13,20 29,36 48,48 8,5 18,9 26,13 5,2 9,4 14,6 l 8,4 -12,-21 c -13,-24 -26,-48 -41,-71 z"
     id="path44492"
     inkscape:connector-curvature="0"
     style="fill:#fdbc47;fill-rule:nonzero" /><path
     class="fil14"
     d="m 4114.1419,237.3782 -2,-1 c -13,-5 -27,-9 -43,-13 h -1 -1 c -16,4 -34,5 -58,5 h -14 l 12,6 c 6,3 13,7 21,14 6,5 12,10 17,14 l 1,1 h 1 c 18,4 35,6 52,6 3,0 6,0 8,0 41,0 41,-5 41,-8 1,-6 -9,-12 -37,-23 z"
     id="path44494"
     inkscape:connector-curvature="0"
     style="fill:#fdbc47;fill-rule:nonzero" /><path
     class="fil21"
     d="m 3908.1419,705.3782 c -26,-5 -50,-13 -73,-25 -14,-7 -28,-16 -39,-27 -35,-32 -46,-87 -45,-134 0,0 55,-15 98,43 43,57 60,144 60,144 z"
     id="path44496"
     inkscape:connector-curvature="0"
     style="fill:#8ba150;fill-rule:nonzero" /><path
     class="fil21"
     d="m 4140.1419,437.3782 c -21,37 -48,70 -75,103 -13,16 -26,31 -41,44 -24,21 -53,35 -82,48 0,0 5,-94 58,-142 52,-47 140,-55 140,-55 z"
     id="path44498"
     inkscape:connector-curvature="0"
     style="fill:#8ba150;fill-rule:nonzero" /><path
     class="fil24"
     d="m 3884.1419,148.3782 c -73,45 -17,155 71,113 88,-42 2,-159 -71,-113 z"
     id="path44500"
     inkscape:connector-curvature="0"
     style="fill:#dca239;fill-rule:nonzero" /><path
     class="fil15"
     d="m 3939.1419,144.3782 c 8,-24 19,-47.999998 35,-67.999998 7,-8 14,-15 22,-22 4,-3 26,-20 31,-17 7,4 -1,29 -3,35 -4,12 -11,24 -18,33.999998 -14,19 -33,35 -51,51 -3,3 2,8 5,5 24,-21 49,-42 64,-70.999998 5,-10 23,-52 7,-60 -6,-3 -16,4 -21,7 -12,6 -23,15 -32,24 -22,23 -35,51.999998 -45,80.999998 -1,4 5,6 7,2 v 0 z"
     id="path44502"
     inkscape:connector-curvature="0"
     style="fill:#282828;fill-rule:nonzero" /><path
     class="fil15"
     d="m 3896.1419,150.3782 c -10,-48 -16,-96.999998 2,-143.9999981 -2,0 -4,1 -6,1 21,44.0000001 35,90.0000001 41,137.9999981 1,4 7,4 7,0 -6,-48.999998 -20,-96.999998 -41,-141.9999981 -1,-3.00000003 -5,-2 -6,1 -18,48.0000001 -12,97.9999981 -2,146.9999981 1,4 8,3 7,-2 v 0 z"
     id="path44504"
     inkscape:connector-curvature="0"
     style="fill:#282828;fill-rule:nonzero" /><path
     class="fil15"
     d="m 3875.1419,160.3782 c -16,-7 -32,-33 -41,-47 -12,-18.999998 -18,-40.999998 -17,-62.999998 -2,1 -3,2 -5,3 34,25 59,58.999998 75,97.999998 2,4 8,2 7,-2 -17,-41 -43,-74.999998 -78,-101.999998 -2,-2 -5,1 -5,3 -2,25 6,48 19,68.999998 10,16 26,40 43,48 4,2 6,-5 2,-7 z"
     id="path44506"
     inkscape:connector-curvature="0"
     style="fill:#282828;fill-rule:nonzero" /><path
     class="fil15"
     d="m 3870.1419,157.3782 c -32,-27 -73,-37 -114,-30 -3,0 -3,4 -2,6 33,32 61,61 110,61 4,0 4,-7 0,-7 -46,0 -74,-28 -105,-59 -1,2 -1,4 -2,6 39,-7 77,3 108,28 3,3 8,-2 5,-5 z"
     id="path44508"
     inkscape:connector-curvature="0"
     style="fill:#282828;fill-rule:nonzero" /><path
     class="fil15"
     d="m 3859.1419,186.3782 c -39,8 -75,27 -91,65 -1,2 1,4 3,4 33,1 65,-4 96,-17 4,-2 2,-8 -2,-7 -30,12 -61,17 -94,16 1,1 2,3 3,4 15,-36 50,-52 86,-60 4,-1 3,-8 -2,-7 v 0 z"
     id="path44510"
     inkscape:connector-curvature="0"
     style="fill:#282828;fill-rule:nonzero" /><path
     class="fil15"
     d="m 3867.1419,235.3782 c -31,19 -54,48 -66,82 -1,3 2,5 4,4 36,-9 74,-20 92,-55 2,-4 -4,-7 -6,-4 -17,34 -54,44 -88,52 1,1 3,3 4,4 12,-33 34,-59 63,-78 4,-2 0,-8 -4,-6 v 0 z"
     id="path44512"
     inkscape:connector-curvature="0"
     style="fill:#282828;fill-rule:nonzero" /><path
     class="fil15"
     d="m 3893.1419,263.3782 c -10,13 -11,31 -11,47 0,21 4,42 10,61 1,2 4,4 6,2 25,-28 38,-63 38,-100 0,-4 -7,-4 -7,0 0,35 -12,68 -36,95 2,1 4,1 6,2 -10,-28 -20,-77 0,-103 3,-4 -3,-7 -6,-4 z"
     id="path44514"
     inkscape:connector-curvature="0"
     style="fill:#282828;fill-rule:nonzero" /><path
     class="fil15"
     d="m 3934.1419,267.3782 c 8,39 32,72 67,92 2,1 5,0 5,-2 6,-40 -17,-79 -38,-112 -2,-4 -8,0 -6,4 20,31 43,68 37,106 2,-1 3,-1 5,-2 -33,-19 -56,-51 -64,-88 -1,-4 -8,-3 -7,2 v 0 z"
     id="path44516"
     inkscape:connector-curvature="0"
     style="fill:#282828;fill-rule:nonzero" /><path
     class="fil15"
     d="m 3963.1419,250.3782 c 16,16 35,26 55,34 20,8 39,15 60,12 3,0 3,-4 2,-6 -13,-16 -31,-32 -48,-45 -14,-11 -30,-21 -48,-22 -4,0 -4,7 0,7 19,0 37,14 51,26 14,12 29,24 40,38 1,-2 1,-4 2,-6 -22,3 -43,-6 -63,-15 -17,-8 -32,-17 -45,-30 -3,-3 -8,2 -5,5 v 0 z"
     id="path44518"
     inkscape:connector-curvature="0"
     style="fill:#282828;fill-rule:nonzero" /><path
     class="fil15"
     d="m 3964.1419,162.3782 c 15,-13 33,-24 52,-30 9,-3 18,-5 27,-7 5,-1 24,-5 28,-2 4,3 -2,14 -5,17 -2,3 -6,5 -9,7 -8,7 -16,13 -24,19 -16,11 -33,20 -52,25 -4,1 -3,8 2,7 25,-6 46,-19 66,-34 8,-7 43,-28 31,-43 -3,-5 -11,-4 -16,-4 -14,0 -27,2 -40,5 -25,6 -47,19 -66,35 -3,3 2,8 5,5 v 0 z"
     id="path44520"
     inkscape:connector-curvature="0"
     style="fill:#282828;fill-rule:nonzero" /><path
     class="fil15"
     d="m 3983.1419,229.3782 c 41,3 83,5 120,-17 2,-1 2,-5 0,-6 -38,-18 -82,-15 -123,-14 -4,0 -4,7 0,7 40,-1 83,-4 120,13 0,-2 0,-4 0,-6 -36,21 -76,19 -116,16 -4,0 -4,7 0,7 v 0 z"
     id="path44522"
     inkscape:connector-curvature="0"
     style="fill:#282828;fill-rule:nonzero" /><path
     class="fil15"
     d="m 4031.1419,79.378202 c 11,-12 24,-20 38,-25 6,-2 12,-4 19,-6 3,-1 6,-2 9,-3 2,0 3,-1 5,-1 5,-3 6,-2 4,1 0,5 -7,14 -10,18 -4,7 -9,14 -14,20 -10,12 -22,22.999998 -35,32.999998 -4,3 0,9 4,6 17,-13 32,-26.999998 44,-44.999998 4,-6 25,-31 18,-40 -7,-8 -29,4 -36,6 -19,6 -37,16 -50,30 -3,3 2,8 5,5 v 0 z"
     id="path44524"
     inkscape:connector-curvature="0"
     style="fill:#282828;fill-rule:nonzero" /><path
     class="fil15"
     d="m 3925.1419,75.378202 c 0,-14 2,-27 6,-40 3,-11 8,-31.0000001 16,-39.0000001 6,-6.9999999 5,-4 9,2 4,6 5,17.0000001 6,24.0000001 3,16 5,32 5,49 0,4 7,4 7,0 0,-16 -1,-32 -4,-47 -3,-13 -5,-31.0000001 -13,-42 -1,-1 -2,-2 -4,-2 -12,2 -18,25.9999999 -22,35 -7,19 -12,40 -12,61 0,4 7,4 7,0 v 0 z"
     id="path44526"
     inkscape:connector-curvature="0"
     style="fill:#282828;fill-rule:nonzero" /><path
     class="fil15"
     d="m 3851.1419,77.378202 c -14,-39 -22,-80.0000001 -23,-122 -2,1 -3,2 -5,3 16,12 25,29 33,46.9999999 9,17.0000001 21,36.0000001 24,55.0000001 1,4 7,3 7,-2 -3,-22 -18,-43 -27,-62.0000001 -9,-16.9999999 -18,-32.9999999 -34,-43.9999999 -2,-2 -5,1 -5,3 1,41.9999999 8,84 23,124 2,4 8,2 7,-2 z"
     id="path44528"
     inkscape:connector-curvature="0"
     style="fill:#282828;fill-rule:nonzero" /><path
     class="fil15"
     d="m 3805.1419,125.3782 c -31,-25 -62,-51.999998 -79,-89.999998 -1,2 -2,3 -3,5 19,2 35,14 50,25 13,9 27,18 40,28 4,3 7,-3 4,-6 -16,-12 -33,-24 -50,-35 -14,-9 -26,-17 -43,-19 -3,0 -4,3 -3,5 17,38 48,65.999998 80,90.999998 3,3 8,-2 5,-5 v 0 z"
     id="path44530"
     inkscape:connector-curvature="0"
     style="fill:#282828;fill-rule:nonzero" /><path
     class="fil15"
     d="m 3971.1419,31.378202 c 9,-27.0000001 23,-51 42,-72 -2,-1 -4,-2 -6,-2 3,27 2,54 -3,81 -1,4 6,6 7,2 5,-27 6,-55 3,-83 0,-3 -4,-5 -6,-2 -19,22 -34,46.9999999 -44,75 -1,4 5,6 7,2 v 0 z"
     id="path44532"
     inkscape:connector-curvature="0"
     style="fill:#282828;fill-rule:nonzero" /><path
     class="fil15"
     d="m 3792.1419,160.3782 c -45,-5 -89,6 -126,31 -2,1 -3,4 -1,5 35,29 80,41 124,32 4,-1 3,-8 -2,-7 -42,8 -85,-3 -118,-30 0,2 0,4 -1,5 37,-24 79,-35 123,-30 4,0 4,-6 0,-7 v 0 z"
     id="path44534"
     inkscape:connector-curvature="0"
     style="fill:#282828;fill-rule:nonzero" /><path
     class="fil15"
     d="m 3773.1419,250.3782 c -36,19 -53,56 -68,91 -1,3 1,6 4,5 38,-7 73,-23 104,-47 3,-3 -1,-8 -5,-5 -29,24 -64,39 -101,45 1,2 3,3 4,5 15,-34 31,-70 65,-89 4,-2 0,-8 -4,-6 v 0 z"
     id="path44536"
     inkscape:connector-curvature="0"
     style="fill:#282828;fill-rule:nonzero" /><path
     class="fil15"
     d="m 3740.1419,161.3782 c -16,-5 -28,-17 -41,-28 -12,-11 -28,-22 -34,-36.999998 -1,1 -2,3 -2,3.999998 31,-10.999998 69,-5.999998 100,-0.999998 4,0.999998 6,-6 2,-7 -33,-5 -72,-11 -104,1 -2,1 -3,2 -2,4 7,16.999998 23,27.999998 36,40.999998 13,12 26,24 44,30 4,1 6,-5 2,-7 v 0 z"
     id="path44538"
     inkscape:connector-curvature="0"
     style="fill:#282828;fill-rule:nonzero" /><path
     class="fil15"
     d="m 3791.1419,69.378202 c -8,-14 -14,-29 -17,-44 -3,-15 -1,-29.0000001 -4,-44 -1,1 -3,3 -4,4 23,5.9999999 44,15.9999999 62,31 3,3 8,-2 5,-5 -19,-16.0000001 -40,-27 -65,-33 -3,-1 -5,2 -4,4 3,15.9999999 1,32 5,49 4,14 9,28 16,41 2,4 8,0 6,-4 v 0 z"
     id="path44540"
     inkscape:connector-curvature="0"
     style="fill:#282828;fill-rule:nonzero" /><path
     class="fil15"
     d="m 3867.1419,8.3782019 c 1,-15 5,-27.9999999 12,-40.9999999 3,-7 11,-25 18,-27 7,-1 20,17 23,23 7,10 11,21 14,32.9999999 1,3.99999997 8,2 7,-2 -6,-21.9999999 -21,-54.9999999 -44,-63.9999999 -1,0 -3,0 -3,1 -10,9 -17,25 -23,37 -6,13 -10,25.9999999 -10,39.9999999 0,4.0000001 7,4.0000001 7,0 v 0 z"
     id="path44542"
     inkscape:connector-curvature="0"
     style="fill:#282828;fill-rule:nonzero" /><path
     class="fil15"
     d="m 4014.1419,11.378202 c 7,-6.0000001 15,-11.00000013 24,-15.0000001 8,-4 23,-10.9999999 32,-10.9999999 19,1 4,47 0,58 -2,4 5,6 7,2 9,-21 11,-43.0000001 7,-66 0,-1 -2,-3 -3,-3 -26,3 -49,12 -70,27.9999999 -4,3 0,9.0000001 4,6.0000001 v 0 z"
     id="path44544"
     inkscape:connector-curvature="0"
     style="fill:#282828;fill-rule:nonzero" /><path
     class="fil15"
     d="m 4060.1419,156.3782 c 31,-8 63,-10 95,-8 -1,-2 -2,-3 -3,-5 -17,27 -43,45 -73,54 -4,1 -2,8 2,7 32,-10 59,-29 77,-57 2,-2 -1,-5 -3,-5 -33,-2 -65,0 -97,8 -4,1 -3,8 2,7 v 0 z"
     id="path44546"
     inkscape:connector-curvature="0"
     style="fill:#282828;fill-rule:nonzero" /><path
     class="fil15"
     d="m 4092.1419,77.378202 c 11,0 22,0 33,2 5,1 29,5 31,10 3,6 -9,19.999998 -12,24.999998 -6,9 -13,16 -19,24 -3,3 2,8 5,5 15,-17 27,-34 36,-54.999998 1,-1 0,-3 -2,-4 -23,-11 -47,-16 -72,-15 -4,0 -4,7 0,7 v 0 z"
     id="path44548"
     inkscape:connector-curvature="0"
     style="fill:#282828;fill-rule:nonzero" /><path
     class="fil15"
     d="m 4068.1419,226.3782 c 14,3 27,7 40,12 5,2 41,14 42,21 1,7 -44,7 -48,7 -17,0 -34,-2 -51,-6 -4,-1 -6,6 -2,7 24,5 48,7 73,6 10,-1 36,1 40,-11 0,-1 0,-3 -1,-3 -11,-10 -28,-17 -42,-23 -16,-7 -32,-12 -49,-16 -4,-1 -6,6 -2,7 v 0 z"
     id="path44550"
     inkscape:connector-curvature="0"
     style="fill:#282828;fill-rule:nonzero" /><path
     class="fil15"
     d="m 3843.1419,302.3782 c -14,17 -19,42 -25,63 -3,13 -14,44 -5,56 1,1 2,1 3,1 8,-2 12,-11 17,-16 8,-8 17,-14 25,-22 14,-15 23,-34 30,-54 1,-4 -5,-6 -7,-2 -11,32 -33,60 -60,81 -1,1 -4,4 -5,4 -1,0 2,-17 2,-18 1,-9 3,-18 5,-28 5,-19 10,-44 23,-60 3,-3 -2,-8 -5,-5 v 0 z"
     id="path44554"
     inkscape:connector-curvature="0"
     style="fill:#282828;fill-rule:nonzero" /><path
     class="fil15"
     d="m 3918.1419,336.3782 c 9,43 28,80 55,114 2,3 6,0 6,-2 4,-41 0,-83 -11,-122 -1,-4 -8,-2 -7,2 10,39 14,80 10,121 2,-1 4,-2 6,-2 -26,-33 -44,-70 -53,-111 -1,-4 -8,-3 -7,2 v 0 z"
     id="path44556"
     inkscape:connector-curvature="0"
     style="fill:#282828;fill-rule:nonzero" /><path
     class="fil15"
     d="m 3997.1419,315.3782 c 11,16 24,31 39,43 19,14 41,19 61,31 3,2 6,-2 5,-5 -18,-32 -34,-65 -55,-95 -3,-4 -9,0 -6,4 21,30 37,63 55,95 2,-2 3,-3 5,-5 -17,-10 -35,-15 -52,-25 -19,-12 -34,-28 -46,-46 -2,-4 -8,0 -6,4 v 0 z"
     id="path44558"
     inkscape:connector-curvature="0"
     style="fill:#282828;fill-rule:nonzero" /><path
     class="fil15"
     d="m 4077.1419,347.3782 c 15,2 30,7 46,8 9,1 17,-1 21,-10 4,-10 0,-22 -2,-32 -4,-16 -11,-31 -19,-44 -2,-4 -8,0 -6,4 10,16 23,40 22,60 0,5 -6,15 -11,17 -3,1 -13,-2 -17,-3 -10,-2 -21,-4 -32,-5 -4,-1 -6,6 -2,7 v 0 z"
     id="path44560"
     inkscape:connector-curvature="0"
     style="fill:#282828;fill-rule:nonzero" /><path
     class="fil15"
     d="m 3976.1419,406.3782 c 2,7 16,13 22,17 14,9 29,18 46,23 2,1 4,-1 4,-2 5,-26 6,-53 3,-79 -1,-4 -8,-4 -7,0 3,26 3,52 -2,77 1,-1 3,-2 4,-2 -14,-4 -27,-12 -39,-19 -5,-3 -10,-6 -15,-10 -2,-1 -9,-7 -9,-6 -1,-4 -8,-2 -7,2 v 0 z"
     id="path44562"
     inkscape:connector-curvature="0"
     style="fill:#282828;fill-rule:nonzero" /><path
     class="fil15"
     d="m 3853.1419,378.3782 c 1,29 11,56 29,79 1,1 3,1 4,1 23,-15 46,-31 60,-55 2,-4 -4,-7 -6,-4 -6,11 -14,20 -23,28 -5,5 -11,9 -16,13 -2,1 -11,9 -14,9 -9,0 -19,-28 -21,-34 -4,-12 -6,-24 -7,-37 0,-4 -7,-4 -7,0 v 0 z"
     id="path44564"
     inkscape:connector-curvature="0"
     style="fill:#282828;fill-rule:nonzero" /><path
     class="fil15"
     d="m 3758.1419,329.3782 c -14,23 -12,62 -9,88 0,2 2,4 4,3 12,-5 24,-10 35,-16 5,-3 10,-6 14,-9 5,-4 11,-12 17,-15 -2,-1 -3,-1 -5,-2 0,0 0,1 0,1 1,-1 2,-3 2,-4 0,0 0,0 -1,0 -4,2 -2,8 2,7 0,0 0,0 1,0 2,-1 3,-2 2,-4 0,0 0,-1 0,-1 -1,-2 -3,-3 -5,-2 -9,5 -17,16 -26,21 -12,7 -25,13 -38,18 1,1 3,2 4,3 -3,-25 -6,-62 8,-84 2,-4 -4,-7 -6,-4 v 0 z"
     id="path44566"
     inkscape:connector-curvature="0"
     style="fill:#282828;fill-rule:nonzero" /><path
     class="fil15"
     d="m 3692.1419,211.3782 c -11,11 -21,23 -29,37 -3,6 -13,19 -10,26 4,8 23,7 30,8 18,3 35,4 53,4 4,0 4,-7 0,-7 -12,0 -23,-1 -35,-2 -7,-1 -15,-2 -22,-3 -2,0 -16,-2 -17,-3 -4,-6 9,-24 13,-29 7,-10 14,-18 23,-27 3,-3 -2,-8 -5,-5 v 0 z"
     id="path44568"
     inkscape:connector-curvature="0"
     style="fill:#282828;fill-rule:nonzero" /><path
     class="fil15"
     d="m 3903.1419,444.3782 c 2,92 7,183 13,275 0,4 7,4 7,0 -5,-92 -11,-183 -13,-275 0,-4 -7,-4 -7,0 z"
     id="path44570"
     inkscape:connector-curvature="0"
     style="fill:#282828;fill-rule:nonzero" /><path
     class="fil15"
     d="m 3926.1419,425.3782 c -4,90 -2,181 5,271 2,0 5,0 7,0 -3,-32 9,-66 22,-95 11,-25 31,-43 50,-61 39,-39 80,-77 130,-101 4,-2 1,-8 -4,-6 -54,27 -98,68 -140,111 -19,18 -35,36 -45,61 -12,29 -24,61 -21,92 0,4 7,4 7,0 -8,-90 -9,-180 -5,-271 0,-4 -7,-4 -7,0 v 0 z"
     id="path44572"
     inkscape:connector-curvature="0"
     style="fill:#282828;fill-rule:nonzero" /><path
     class="fil15"
     d="m 3749.1419,521.3782 c 70,51 129,121 167,199 2,4 8,0 6,-4 -39,-79 -98,-150 -169,-202 -4,-3 -7,3 -4,6 v 0 z"
     id="path44574"
     inkscape:connector-curvature="0"
     style="fill:#282828;fill-rule:nonzero" /><path
     class="fil15"
     d="m 3909.1419,701.3782 c -60,-11 -121,-41 -143,-101 -4,-12 -7,-24 -9,-36 -2,-11 -7,-31 -3,-41 3,-8 -4,1 -1,-2 1,-1 5,-1 6,-1 5,-1 12,-1 17,0 52,5 82,53 101,96 13,28 23,59 29,90 1,4 8,3 7,-2 -9,-48 -27,-98 -55,-139 -23,-33 -64,-61 -106,-51 -2,0 -3,2 -3,3 -1,42 6,87 32,122 30,39 81,60 128,68 4,1 6,-6 2,-7 z"
     id="path44576"
     inkscape:connector-curvature="0"
     style="fill:#282828;fill-rule:nonzero" /><path
     class="fil15"
     d="m 4137.1419,435.3782 c -25,42 -55,80 -86,117 -31,36 -68,58 -110,78 2,1 3,2 5,3 3,-47 18,-101 52,-135 36,-36 93,-54 143,-58 4,0 4,-7 0,-7 -52,4 -111,23 -148,60 -35,35 -51,91 -54,140 0,3 3,4 5,3 43,-21 81,-43 112,-79 32,-37 63,-76 88,-118 2,-4 -4,-7 -6,-4 z"
     id="path44578"
     inkscape:connector-curvature="0"
     style="fill:#282828;fill-rule:nonzero" /></g><g
   id="g47323"><path
     class="fil25"
     d="m 3202.1455,909.56288 c 0,0 -162,34 -184,90 -23,56.00002 79,137.00002 391,149.00002 312,12 412,-113 400,-157.00002 -12,-43 -158,-83 -158,-83 z"
     id="path44632"
     inkscape:connector-curvature="0"
     style="fill:#80cdeb;fill-rule:nonzero" /><path
     class="fil14"
     d="m 3180.1455,633.56288 c -5,20 -10,40 -15,59 10,-11 18,-24 25,-37 3,-5 8,-14 9,-21 -1,0 -3,0 -4,0 -6,0 -11,0 -15,-2 z"
     id="path44634"
     inkscape:connector-curvature="0"
     style="fill:#fdbc47;fill-rule:nonzero" /><path
     class="fil12"
     d="m 3582.1455,841.56288 v 0 c -36,41 -87,59 -142,46 -4,-1 -2,-7 2,-6 43,10 88,1 121,-29 8,-7 16,-15 22,-24 2,-3 10,-12 8,-17 -4,-10 -26,4 -32,8 -8,8 -17,16 -28,21 -3,2 -7,-4 -3,-5 17,-8 30,-22 41,-36 7,-9 15,-19 18,-31 2,-7 5,-19 -7,-21 -7,-1 -18,6 -23,10 -1,1 -2,1 -2,1 -9,23 -31,43 -51,51 -4,1 -5,-4 -2,-6 24,-10 44,-34 50,-59 4,-16 -2,-26 -20,-21 -8,2 -16,7 -22,13 -5,21 -21,40 -36,52 -3,2 -7,-2 -4,-4 16,-13 29,-29 34,-49 0,0 0,0 0,-1 0,0 0,0 0,0 2,-10 3,-32 -12,-33 -11,0 -22,16 -28,23 -25,27 -51,55 -80,78 -14,11 -53,42 -71,24 -7,-7 -6,-19 -5,-28 3,-23 10,-45 15,-68 10,-43 22,-92 11,-136 -8,-32 -24,-57 -54,-66 -32,-10 -47,-21 -84,0 -37,21 -50,76 -38,85 13,9 22,17 39,15 12,-2 23,-6 33,-12 8,-5 15,-13 23,-17 25,-12 41,13 38,35 -4,33 -22,66 -38,96 -31,58 -78,135 -51,203 27,68.00002 126,82.00002 190,85.00002 71,3 151,-5 211,-47.00002 44,-31 85,-87 88,-144 -31,22 -75,36 -110,13 z m -373,-235 c -6,5 -15,2 -19,-4 -2,-3 3,-6 5,-3 2,3 7,5 10,2 3,-3 3,-8 0,-10 -3,-3 1,-7 4,-4 5,5 5,15 -1,19 z m 54,327 c 0,0 -39,-31 -22,-44 17,-13 22,14 22,14 0,0 12,-24 27,-17 14,7 -27,47 -27,47 z"
     id="path44636"
     inkscape:connector-curvature="0"
     style="fill:#fff7ed;fill-rule:nonzero" /><path
     class="fil15"
     d="m 3581.1455,841.56288 c 37,25 84,8 116,-17 -2,-1 -4,-2 -6,-2 -1,52 -35,106 -74,138 -52,44.00002 -123,56.00002 -189,58.00002 -62,2 -133,-5 -186,-39.00002 -67,-43 -48,-125 -20,-187 12,-26 27,-51 40,-77 13,-26 29,-56 30,-85 1,-19 -12,-38 -33,-33 -15,3 -26,18 -39,24 -17,8 -44,14 -54,-6 -16,-32 11,-74 39,-88 35,-17 76,-2 102,23 30,29 33,67 29,107 -5,44 -17,87 -26,130 -4,18 -6,46 20,43 32,-3 63,-34 85,-55 14,-13 27,-27 41,-41 8,-9 17,-20 26,-28 17,-13 24,6 23,21 -2,23 -17,42 -35,56 -3,3 1,8 5,5 21,-17 44,-47 35,-77 -5,-17 -20,-21 -33,-10 -24,20 -44,47 -67,69 -12,11 -96,84 -96,37 0,-20 8,-42 13,-62 6,-25 11,-50 15,-76 5,-33 8,-71 -10,-101 -34,-56 -120,-81 -161,-19 -13,19 -22,50 -8,71 15,25 52,13 72,1 8,-5 15,-13 23,-17 15,-7 28,4 29,19 2,16 -6,34 -12,48 -14,34 -32,66 -49,99 -27,54 -57,130 -17,185 37,51.00002 115,64.00002 174,68.00002 75,5 161,-3 224,-46.00002 48,-33 92,-95 93,-156 0,-3 -4,-4 -6,-2 -29,23 -73,39 -107,16 -4,-3 -7,4 -4,6 v 0 z"
     id="path44638"
     inkscape:connector-curvature="0"
     style="fill:#282828;fill-rule:nonzero" /><path
     class="fil15"
     d="m 3506.1455,810.56288 c 27,-11 58,-45 56,-76 -2,-32 -43,-13 -56,0 -3,3 2,8 5,5 6,-7 15,-12 24,-15 19,-5 23,8 19,23 -7,24 -26,47 -49,56 -4,2 -2,8 2,7 v 0 z"
     id="path44640"
     inkscape:connector-curvature="0"
     style="fill:#282828;fill-rule:nonzero" /><path
     class="fil15"
     d="m 3560.1455,757.56288 c 11,-9 34,-16 29,7 -2,10 -8,20 -15,28 -12,17 -27,34 -46,42 -4,2 -1,8 4,6 17,-8 29,-21 41,-35 11,-13 22,-27 23,-45 3,-29 -27,-20 -42,-8 -3,3 1,8 5,5 v 0 z"
     id="path44642"
     inkscape:connector-curvature="0"
     style="fill:#282828;fill-rule:nonzero" /><path
     class="fil15"
     d="m 3440.1455,888.56288 c 58,14 113,-7 148,-54 5,-7 17,-24 6,-31 -10,-7 -29,6 -37,11 -4,2 0,8 4,6 7,-4 21,-15 28,-9 10,9 -21,36 -28,42 -32,30 -77,38 -119,28 -4,-1 -6,6 -2,7 z"
     id="path44644"
     inkscape:connector-curvature="0"
     style="fill:#282828;fill-rule:nonzero" /><path
     class="fil15"
     d="m 3174.1455,630.56288 c -6,24 -12,48 -19,72 -1,3 3,6 6,3 14,-15 27,-31 36,-50 3,-6 10,-17 9,-23 0,-4 -7,-4 -7,0 1,6 -7,17 -9,23 -9,17 -20,32 -33,45 2,1 4,2 6,3 6,-24 12,-48 19,-72 1,-4 -6,-6 -7,-2 v 0 z"
     id="path44646"
     inkscape:connector-curvature="0"
     style="fill:#282828;fill-rule:nonzero" /><path
     class="fil15"
     d="m 3189.1455,602.56288 c 4,7 13,9 20,4 6,-5 6,-15 1,-20 -3,-3 -8,2 -5,5 7,7 -4,15 -9,7 -2,-4 -8,0 -6,4 v 0 z"
     id="path44648"
     inkscape:connector-curvature="0"
     style="fill:#282828;fill-rule:nonzero" /><path
     class="fil26"
     d="m 3263.1455,932.56288 c 0,0 -39,-31 -22,-44 17,-13 22,14 22,14 0,0 12,-24 27,-17 14,7 -27,47 -27,47 z"
     id="path44650"
     inkscape:connector-curvature="0"
     style="fill:#f05d89;fill-rule:nonzero" /><path
     class="fil15"
     d="m 3158.1455,960.56288 c -19,2 -107,18 -69,51.00002 21,18 53,26 79,32 49,11 99,15 149,14 4,0 4,-7 0,-7 -68,1 -148,-3 -210,-35 -6,-3 -16,-8 -19,-14 -6,-11.00002 8,-18.00002 17,-21.00002 17,-7 35,-10 53,-12 4,-1 4,-7 0,-7 v 0 z"
     id="path44652"
     inkscape:connector-curvature="0"
     style="fill:#282828;fill-rule:nonzero" /><path
     class="fil15"
     d="m 3488.1455,1063.5629 c 43,0 86,-4 128,-12 37,-7 78,-17 109,-39 18,-12 32,-37.00002 12,-55.00002 -16,-14 -49,-22 -71,-18 -4,1 -3,8 2,7 19,-4 52,4 65,18 28,29 -35,55.00002 -54,63.00002 -61,23 -127,29 -192,30 -4,0 -4,7 0,7 v 0 z"
     id="path44654"
     inkscape:connector-curvature="0"
     style="fill:#282828;fill-rule:nonzero" /><path
     class="fil15"
     d="m 3347.1455,1060.5629 c 37,3 74,4 110,3 4,0 4,-7 0,-7 -37,1 -74,1 -110,-3 -4,0 -4,7 0,7 z"
     id="path44656"
     inkscape:connector-curvature="0"
     style="fill:#282828;fill-rule:nonzero" /><path
     class="fil15"
     d="m 3597.1455,1026.5629 c 27,-4 53,-14 76,-28.00002 4,-2 0,-8 -4,-6 -23,14.00002 -48,23.00002 -75,27.00002 -4,1 -3,7 2,7 v 0 z"
     id="path44658"
     inkscape:connector-curvature="0"
     style="fill:#282828;fill-rule:nonzero" /><path
     class="fil15"
     d="m 3155.1455,996.56288 c 13,19.00002 45,17.00002 65,17.00002 4,0 4,-7 0,-7 -17,0 -48,2 -59,-14.00002 -3,-4 -9,0 -6,4 z"
     id="path44660"
     inkscape:connector-curvature="0"
     style="fill:#282828;fill-rule:nonzero" /><path
     class="fil15"
     d="m 3200.1455,1072.5629 c 68,18 138,27 209,26 4,0 4,-7 0,-7 -70,1 -139,-8 -207,-26 -4,-1 -6,6 -2,7 z"
     id="path44662"
     inkscape:connector-curvature="0"
     style="fill:#282828;fill-rule:nonzero" /><path
     class="fil15"
     d="m 3444.1455,1099.5629 c 32,-1 65,-3 97,-7 4,0 4,-7 0,-7 -32,4 -65,6 -97,7 -4,0 -4,7 0,7 z"
     id="path44664"
     inkscape:connector-curvature="0"
     style="fill:#282828;fill-rule:nonzero" /></g><g
   id="g50629"><path
     class="fil28"
     d="m 3936.7351,2323.8788 c 0,0 -1,0 -1,0 -9,0 -18,0 -28,0 0,8 0,17 0,25 10,0 19,-1 29,-1 z"
     id="path44672"
     inkscape:connector-curvature="0"
     style="fill:#fbd15b;fill-rule:nonzero" /><path
     class="fil28"
     d="m 3902.7351,2348.8788 c 0,-9 0,-17 0,-26 -10,0 -20,0 -29,0 v 25 c 10,0 20,1 29,0 z"
     id="path44674"
     inkscape:connector-curvature="0"
     style="fill:#fbd15b;fill-rule:nonzero" /><path
     class="fil28"
     d="m 3908.7351,2317.8788 c 9,0 18,0 28,0 0,0 1,0 1,0 v -25 h -29 c 0,8 0,17 0,25 z"
     id="path44676"
     inkscape:connector-curvature="0"
     style="fill:#fbd15b;fill-rule:nonzero" /><path
     class="fil28"
     d="m 3908.7351,2354.8788 c 0,7 0,14 0,21 h 29 v -22 c -10,1 -19,1 -29,1 z"
     id="path44678"
     inkscape:connector-curvature="0"
     style="fill:#fbd15b;fill-rule:nonzero" /><path
     class="fil28"
     d="m 3902.7351,2317.8788 c 0,-8 0,-17 0,-25 h -29 v 25 c 10,0 20,0 29,0 z"
     id="path44680"
     inkscape:connector-curvature="0"
     style="fill:#fbd15b;fill-rule:nonzero" /><path
     class="fil28"
     d="m 3902.7351,2354.8788 c -10,0 -20,0 -29,0 v 21 h 29 c 0,-7 0,-14 0,-21 z"
     id="path44682"
     inkscape:connector-curvature="0"
     style="fill:#fbd15b;fill-rule:nonzero" /><path
     class="fil28"
     d="m 4033.7351,2357.8788 c 6,0 12,-1 18,-1 v -14 l -18,-1 c 0,5 0,11 0,16 z"
     id="path44684"
     inkscape:connector-curvature="0"
     style="fill:#fbd15b;fill-rule:nonzero" /><path
     class="fil28"
     d="m 4028.7351,2357.8788 c 0,-6 0,-11 0,-16 l -15,-1 v 17 c 5,0 10,0 15,0 z"
     id="path44686"
     inkscape:connector-curvature="0"
     style="fill:#fbd15b;fill-rule:nonzero" /><path
     class="fil28"
     d="m 4028.7351,2363.8788 c -5,0 -10,0 -15,0 v 17 h 15 c 0,-6 0,-12 0,-17 z"
     id="path44688"
     inkscape:connector-curvature="0"
     style="fill:#fbd15b;fill-rule:nonzero" /><path
     class="fil28"
     d="m 4033.7351,2363.8788 c 0,6 0,12 0,18 h 18 v -19 c -6,1 -12,1 -18,1 z"
     id="path44690"
     inkscape:connector-curvature="0"
     style="fill:#fbd15b;fill-rule:nonzero" /><path
     class="fil28"
     d="m 4073.7351,2450.8788 c 6,0 12,-1 18,-1 v -14 l -18,-1 c 0,5 0,11 0,16 z"
     id="path44692"
     inkscape:connector-curvature="0"
     style="fill:#fbd15b;fill-rule:nonzero" /><path
     class="fil28"
     d="m 4067.7351,2450.8788 c 0,-6 0,-11 0,-16 l -15,-1 v 17 c 5,0 10,0 15,0 z"
     id="path44694"
     inkscape:connector-curvature="0"
     style="fill:#fbd15b;fill-rule:nonzero" /><path
     class="fil28"
     d="m 4067.7351,2456.8788 c -5,0 -10,0 -15,0 v 17 h 15 c 0,-6 0,-12 0,-17 z"
     id="path44696"
     inkscape:connector-curvature="0"
     style="fill:#fbd15b;fill-rule:nonzero" /><path
     class="fil28"
     d="m 4073.7351,2456.8788 c 0,6 0,12 0,18 h 18 v -19 c -6,1 -12,1 -18,1 z"
     id="path44698"
     inkscape:connector-curvature="0"
     style="fill:#fbd15b;fill-rule:nonzero" /><polygon
     transform="translate(1700.7351,2071.8788)"
     class="fil29"
     points="2176,336 2176,466 2250,466 2250,336 "
     id="polygon44700"
     style="fill:#738ea5;fill-rule:nonzero" /><path
     class="fil4"
     d="m 3885.7351,2425.8788 c 0,9 0,18 0,27 0,2 2,3 3,3 15,0 29,0 44,0 2,0 3,-2 3,-3 0,-8 0,-17 0,-25 0,-2 -2,-3 -3,-3 -15,-1 -29,-1 -44,-2 -4,0 -4,7 0,7 15,1 29,1 44,2 -1,-1 -2,-2 -3,-3 0,8 0,17 0,25 1,-1 2,-2 3,-3 -15,0 -29,0 -44,0 1,1 2,2 3,3 0,-9 0,-18 0,-27 0,-4 -7,-4 -7,0 z"
     id="path44702"
     inkscape:connector-curvature="0"
     style="fill:#fefefe;fill-rule:nonzero" /><path
     class="fil4"
     d="m 3885.7351,2467.8788 c 0,19 0,38 0,57 0,2 2,3 3,3 15,0 29,0 44,0 2,0 3,-2 3,-3 0,-19 0,-37 0,-56 0,-2 -2,-3 -3,-3 -15,0 -29,-1 -44,-1 -4,0 -4,7 0,7 15,0 29,1 44,1 -1,-1 -2,-2 -3,-3 0,19 0,37 0,56 1,-1 2,-2 3,-3 -15,0 -29,0 -44,0 1,1 2,2 3,3 0,-19 0,-38 0,-57 0,-4 -7,-4 -7,0 z"
     id="path44704"
     inkscape:connector-curvature="0"
     style="fill:#fefefe;fill-rule:nonzero" /><polygon
     transform="translate(1700.7351,2071.8788)"
     class="fil9"
     points="2416,101 2206,89 2287,234 2416,229 "
     id="polygon44706"
     style="fill:#ed757e;fill-rule:nonzero" /><polygon
     transform="translate(1700.7351,2071.8788)"
     class="fil29"
     points="2372,41 2330,42 2330,56 2334,61 2332,94 2365,94 2366,65 2372,58 "
     id="polygon44708"
     style="fill:#738ea5;fill-rule:nonzero" /><path
     class="fil30"
     d="m 3983.7351,2305.8788 c 3,84 5,167 8,251 0,4 7,4 7,0 -3,-84 -5,-167 -8,-251 0,-4 -7,-4 -7,0 z"
     id="path44724"
     inkscape:connector-curvature="0"
     style="fill:#373435;fill-rule:nonzero" /><path
     class="fil30"
     d="m 3818.7351,2307.8788 c 5,84 11,169 16,253 0,2 1,4 3,3 93,-2 186,-5 279,-7 2,0 3,-2 3,-3 0,-111 0,-222 0,-334 0,-16 0,-32 0,-48 0,-2 -2,-3 -3,-3 -70,-4 -139,-9 -209,-13 -1,0 -2,1 -3,2 -29,49 -57,99 -86,148 -2,4 4,7 6,4 21,-35 41,-71 62,-106 7,-13 14,-30 24,-41 2,-2 -5,1 -1,1 2,0 4,0 5,0 8,1 16,1 24,2 49,3 98,6 148,9 7,0 15,1 22,1 1,0 5,1 7,0 4,-2 -3,2 -2,-3 -1,8 0,17 0,25 0,96 0,192 0,288 0,17 0,34 0,51 0,4 -1,9 0,13 2,7 -1,-1 3,1 -2,-1 -8,0 -11,0 -8,0 -16,0 -24,1 -24,1 -48,1 -71,2 -52,1 -105,3 -157,4 -3,0 -12,2 -14,0 2,1 1,-17 1,-20 -1,-15 -2,-30 -3,-44 -4,-62 -8,-123 -12,-185 0,-4 -7,-4 -7,0 z"
     id="path44726"
     inkscape:connector-curvature="0"
     style="fill:#373435;fill-rule:nonzero" /><path
     class="fil30"
     d="m 3905.7351,2161.8788 c 23,50 56,96 79,146 0,1 2,2 3,2 43,-2 86,-3 130,-5 4,0 4,-7 0,-7 -37,1 -74,3 -111,4 -4,0 -14,3 -17,1 0,0 -4,-11 -5,-14 -4,-9 -9,-17 -14,-26 -19,-35 -41,-69 -58,-105 -2,-4 -8,-1 -6,4 v 0 z"
     id="path44728"
     inkscape:connector-curvature="0"
     style="fill:#373435;fill-rule:nonzero" /><path
     class="fil30"
     d="m 4031.7351,2132.8788 c 0,11 -1,23 -1,34 0,4 7,4 7,0 0,-11 1,-23 1,-34 0,-4 -7,-4 -7,0 z"
     id="path44730"
     inkscape:connector-curvature="0"
     style="fill:#373435;fill-rule:nonzero" /><path
     class="fil30"
     d="m 4062.7351,2136.8788 c 0,10 0,19 -1,29 0,4 6,4 7,0 0,0 0,0 0,-1 1,-4 -6,-4 -7,0 0,0 0,0 0,1 2,0 5,0 7,0 1,-10 1,-19 1,-29 0,-4 -7,-4 -7,0 z"
     id="path44732"
     inkscape:connector-curvature="0"
     style="fill:#373435;fill-rule:nonzero" /><path
     class="fil30"
     d="m 4072.7351,2126.8788 c -9,1 -18,1 -27,1 -2,0 -4,0 -6,0 -3,0 -3,1 -4,-1 -1,-3 0,-10 0,-13 -1,1 -2,2 -3,3 14,0 27,-1 41,-1 -1,-1 -2,-2 -3,-3 0,6 0,12 0,18 0,4 7,4 7,0 0,-6 0,-12 0,-18 0,-2 -2,-4 -3,-3 -14,0 -27,1 -41,1 -2,0 -3,2 -3,3 0,6 -3,19 5,21 5,1 12,0 17,0 7,0 15,0 22,-1 4,0 4,-7 0,-7 z"
     id="path44734"
     inkscape:connector-curvature="0"
     style="fill:#373435;fill-rule:nonzero" /><path
     class="fil30"
     d="m 3931.7351,2159.8788 c -5,8 -10,17 -15,25 -2,4 4,7 6,4 5,-8 10,-17 15,-25 2,-4 -4,-7 -6,-4 z"
     id="path44736"
     inkscape:connector-curvature="0"
     style="fill:#373435;fill-rule:nonzero" /><path
     class="fil30"
     d="m 3948.7351,2161.8788 c -8,12 -15,24 -21,37 -2,4 4,8 6,4 6,-13 13,-25 21,-37 2,-4 -4,-7 -6,-4 z"
     id="path44738"
     inkscape:connector-curvature="0"
     style="fill:#373435;fill-rule:nonzero" /><path
     class="fil30"
     d="m 3962.7351,2165.8788 c -8,16 -15,31 -23,47 -2,4 4,8 6,4 8,-16 15,-31 23,-47 2,-4 -4,-8 -6,-4 z"
     id="path44740"
     inkscape:connector-curvature="0"
     style="fill:#373435;fill-rule:nonzero" /><path
     class="fil30"
     d="m 3984.7351,2166.8788 c -12,24 -24,47 -35,71 -2,4 4,8 6,4 12,-24 24,-47 35,-71 2,-4 -4,-8 -6,-4 z"
     id="path44742"
     inkscape:connector-curvature="0"
     style="fill:#373435;fill-rule:nonzero" /></g><g
   id="g51332"><path
     class="fil9"
     d="m 4638.0732,2206.198 c 0,0 -89,66 -50,108 39,42 108,-12 108,-12 l -58,-97 z"
     id="path44744"
     inkscape:connector-curvature="0"
     style="fill:#ed757e;fill-rule:nonzero" /><path
     class="fil14"
     d="m 4708.0732,2288.198 c -16,26 -49,2 -58,-12 -10,-14 -27,-79 13,-79 40,0 61,64 45,90 z"
     id="path44746"
     inkscape:connector-curvature="0"
     style="fill:#fdbc47;fill-rule:nonzero" /><path
     class="fil21"
     d="m 4523.0732,2402.198 c 19,-30 28,-71 8,-132 -21,-61 -53,-36 -54,0 0,0 8,105 47,132 z"
     id="path44748"
     inkscape:connector-curvature="0"
     style="fill:#8ba150;fill-rule:nonzero" /><path
     class="fil21"
     d="m 4492.0732,2453.198 c 9,-32 128,-80 160,-43 32,37 -121,74 -160,43 z"
     id="path44750"
     inkscape:connector-curvature="0"
     style="fill:#8ba150;fill-rule:nonzero" /><path
     class="fil21"
     d="m 4445.0732,2544.198 c -34,-23 -49,-48 -59,-100 -10,-52 20,-59 42,-29 22,31 29,111 17,129 z"
     id="path44752"
     inkscape:connector-curvature="0"
     style="fill:#8ba150;fill-rule:nonzero" /><path
     class="fil21"
     d="m 4436.0732,2584.198 c -7,-10 35,-35 98,-40 63,-5 54,36 0,45 -54,9 -91,5 -98,-5 z"
     id="path44754"
     inkscape:connector-curvature="0"
     style="fill:#8ba150;fill-rule:nonzero" /><path
     class="fil15"
     d="m 4705.0732,2287.198 c -17,24 -48,-1 -56,-20 -6,-15 -12,-37 -5,-52 12,-27 44,-6 55,11 10,17 17,43 7,62 -2,4 4,7 6,4 13,-24 4,-57 -13,-77 -14,-17 -48,-30 -60,-4 -9,19 -3,51 8,68 14,22 47,37 65,12 3,-4 -3,-7 -6,-4 z"
     id="path44756"
     inkscape:connector-curvature="0"
     style="fill:#282828;fill-rule:nonzero" /><path
     class="fil15"
     d="m 4648.0732,2198.198 c -27,13 -50,33 -63,61 -11,22 -13,52 9,68 31,23 92,-1 112,-31 2,-4 -4,-7 -6,-4 -16,24 -64,44 -93,33 -33,-13 -24,-52 -9,-75 13,-20 32,-36 54,-46 4,-2 1,-8 -4,-6 z"
     id="path44758"
     inkscape:connector-curvature="0"
     style="fill:#282828;fill-rule:nonzero" /><path
     class="fil15"
     d="m 4656.0732,2229.198 c 4,0 4,-7 0,-7 -4,0 -4,7 0,7 z"
     id="path44760"
     inkscape:connector-curvature="0"
     style="fill:#282828;fill-rule:nonzero" /><path
     class="fil15"
     d="m 4659.0732,2252.198 c 4,0 4,-7 0,-7 -4,0 -4,7 0,7 z"
     id="path44762"
     inkscape:connector-curvature="0"
     style="fill:#282828;fill-rule:nonzero" /><path
     class="fil15"
     d="m 4682.0732,2232.198 c 4,0 4,-7 0,-7 -4,0 -4,7 0,7 z"
     id="path44764"
     inkscape:connector-curvature="0"
     style="fill:#282828;fill-rule:nonzero" /><path
     class="fil15"
     d="m 4678.0732,2255.198 c 4,0 4,-7 0,-7 -4,0 -4,7 0,7 z"
     id="path44766"
     inkscape:connector-curvature="0"
     style="fill:#282828;fill-rule:nonzero" /><path
     class="fil15"
     d="m 4669.0732,2278.198 c 0,0 1,0 1,0 4,0 4,-7 0,-7 -1,0 -1,0 -1,0 -4,0 -4,7 0,7 z"
     id="path44768"
     inkscape:connector-curvature="0"
     style="fill:#282828;fill-rule:nonzero" /><path
     class="fil15"
     d="m 4696.0732,2276.198 c 4,0 4,-7 0,-7 -4,0 -4,7 0,7 z"
     id="path44770"
     inkscape:connector-curvature="0"
     style="fill:#282828;fill-rule:nonzero" /><path
     class="fil15"
     d="m 4697.0732,2250.198 c 4,0 4,-7 0,-7 -4,0 -4,7 0,7 z"
     id="path44772"
     inkscape:connector-curvature="0"
     style="fill:#282828;fill-rule:nonzero" /><path
     class="fil15"
     d="m 4585.0732,2312.198 c -13,11 -23,26 -33,40 -20,27 -38,56 -55,85 -45,77 -82,160 -105,246 -1,4 6,6 7,2 23,-86 60,-168 105,-244 16,-28 34,-56 53,-83 10,-14 20,-30 34,-41 3,-3 -2,-8 -5,-5 v 0 z"
     id="path44774"
     inkscape:connector-curvature="0"
     style="fill:#282828;fill-rule:nonzero" /><path
     class="fil15"
     d="m 4503.0732,2268.198 c 14,44 18,90 13,136 0,4 6,4 7,0 5,-47 1,-93 -13,-138 -1,-4 -8,-2 -7,2 z"
     id="path44776"
     inkscape:connector-curvature="0"
     style="fill:#282828;fill-rule:nonzero" /><path
     class="fil15"
     d="m 4495.0732,2456.198 c 41,-9 81,-20 121,-34 4,-1 2,-8 -2,-7 -39,14 -80,25 -121,34 -4,1 -3,8 2,7 z"
     id="path44778"
     inkscape:connector-curvature="0"
     style="fill:#282828;fill-rule:nonzero" /><path
     class="fil15"
     d="m 4408.0732,2443.198 c 16,32 27,67 33,102 1,4 7,3 7,-2 -6,-36 -17,-71 -34,-104 -2,-4 -8,0 -6,4 z"
     id="path44780"
     inkscape:connector-curvature="0"
     style="fill:#282828;fill-rule:nonzero" /><path
     class="fil15"
     d="m 4431.0732,2587.198 c 28,-8 57,-13 86,-15 4,0 4,-7 0,-7 -30,2 -59,7 -88,15 -4,1 -2,8 2,7 z"
     id="path44782"
     inkscape:connector-curvature="0"
     style="fill:#282828;fill-rule:nonzero" /></g><path
   style="fill:#c6e5f0;fill-rule:nonzero"
   inkscape:connector-curvature="0"
   id="path44808"
   d="m 3355.4524,133.20426 c -12,-14 -24,-27 -35,-41.000004 -6,-6 -11,-15 -17,-20 -2,-2 -3,-4 -5,-6 -7,0 -15,0 -22,0 -4,1 -10,4 -14,6 -32,15 -64,32.000004 -97,45.000004 -10,4 -11,1 -11,9 0,6 1,12 2,18 2,15 4,31 5,46 1,5 2,10 2,15 61,-29 123,-54 187,-75 5,-2 7,6 2,8 -63,21 -125,46 -185,74 5,3 10,5 15,7 42,22 85,43 127,65 16,-50 31,-101 47,-151 z"
   class="fil32" /><path
   style="fill:#282828;fill-rule:nonzero"
   inkscape:connector-curvature="0"
   id="path44810"
   d="m 3362.4524,129.20426 c -15,-18 -31,-36.000004 -46,-54.000004 -11,-13 -18,-27 -36,-19 -45,18 -89,40 -132,61.000004 -1,0 -2,2 -2,3 3,25 6,51 9,76 1,6 0,15 4,19 3,3 11,6 15,8 45,23 91,46 136,69 2,1 4,0 5,-2 16,-53 32,-105 49,-158 1,-4 -5,-6 -7,-2 -16,53 -32,105 -49,158 2,-1 3,-1 5,-2 -44,-23 -89,-45 -133,-68 -6,-3 -13,-5 -18,-9 3,3 1,2 1,-3 0,-6 -1,-13 -2,-19 -2,-16 -4,-31 -5,-47 -1,-5 -3,-12 -2,-16 0,-1 -1,-3 0,-4 0,-1 14,-5 16,-6 32,-15.000004 64,-30.000004 96,-44.000004 3,-1 9,-5 12,-5 7,0 14,0 22,1 2,2 4,5 6,7 6,7 11,13 17,20 12,14.000004 24,28.000004 36,42.000004 3,3 8,-2 5,-5 z"
   class="fil15" /><path
   style="fill:#282828;fill-rule:nonzero"
   inkscape:connector-curvature="0"
   id="path44812"
   d="m 3161.4524,214.20426 c 62,-30 125,-56 191,-77 4,-1 2,-8 -2,-7 -66,22 -130,48 -192,78 -4,2 -1,8 4,6 v 0 z"
   class="fil15" /><path
   style="fill:#282828;fill-rule:nonzero"
   inkscape:connector-curvature="0"
   id="path44814"
   d="m 3157.4524,118.20426 c 27,16 52,35 74,58 2,2 6,1 6,-2 -2,-29 -1,-57 4,-85.000004 -2,1 -4,1 -6,2 17,22.000004 37,41.000004 59,59.000004 2,2 6,1 6,-2 -2,-28 -3,-55.000004 -5,-83.000004 0,-4 -7,-4 -7,0 2,28 3,55.000004 5,83.000004 2,-1 4,-2 6,-2 -22,-17 -42,-37 -59,-59.000004 -2,-2 -5,-1 -6,2 -5,29.000004 -7,58.000004 -5,87.000004 2,-1 4,-2 6,-2 -22,-23 -47,-43 -75,-59 -4,-2 -7,4 -4,6 v 0 z"
   class="fil15" /><path
   style="fill:#282828;fill-rule:nonzero"
   inkscape:connector-curvature="0"
   id="path44816"
   d="m 3227.4524,177.20426 c 23,40 50,77 81,111 2,2 6,0 6,-2 -2,-41 -5,-82 -10,-123 -1,-4 -7,-4 -7,0 5,41 8,82 10,123 2,-1 4,-2 6,-2 -30,-34 -57,-70 -80,-110 -2,-4 -8,0 -6,4 v 0 z"
   class="fil15" />
</svg>