<?xml version="1.0" encoding="UTF-8" standalone="no"?>
<!-- Creator: CorelDRAW X6 -->

<svg
   xmlns:dc="http://purl.org/dc/elements/1.1/"
   xmlns:cc="http://creativecommons.org/ns#"
   xmlns:rdf="http://www.w3.org/1999/02/22-rdf-syntax-ns#"
   xmlns:svg="http://www.w3.org/2000/svg"
   xmlns="http://www.w3.org/2000/svg"
   xmlns:sodipodi="http://sodipodi.sourceforge.net/DTD/sodipodi-0.dtd"
   xmlns:inkscape="http://www.inkscape.org/namespaces/inkscape"
   xml:space="preserve"
   width="2.77778in"
   height="2.72222in"
   version="1.1"
   style="shape-rendering:geometricPrecision; text-rendering:geometricPrecision; image-rendering:optimizeQuality; fill-rule:evenodd; clip-rule:evenodd"
   viewBox="0 0 2778 2722"
   id="svg42104"
   sodipodi:docname="ShapeMaster6.svg"
   inkscape:version="0.92.3 (2405546, 2018-03-11)"><metadata
   id="metadata42108"><rdf:RDF><cc:Work
       rdf:about=""><dc:format>image/svg+xml</dc:format><dc:type
         rdf:resource="http://purl.org/dc/dcmitype/StillImage" /><dc:title></dc:title></cc:Work></rdf:RDF></metadata><sodipodi:namedview
   pagecolor="#ffffff"
   bordercolor="#666666"
   borderopacity="1"
   objecttolerance="10"
   gridtolerance="10"
   guidetolerance="10"
   inkscape:pageopacity="0"
   inkscape:pageshadow="2"
   inkscape:window-width="1920"
   inkscape:window-height="1013"
   id="namedview42106"
   showgrid="false"
   inkscape:zoom="1.2771225"
   inkscape:cx="93.699709"
   inkscape:cy="115.05109"
   inkscape:window-x="-9"
   inkscape:window-y="29"
   inkscape:window-maximized="1"
   inkscape:current-layer="svg42104" />
 <defs
   id="defs41280">
  <style
   type="text/css"
   id="style41278">
   <![CDATA[
    .fil12 {fill:#282828;fill-rule:nonzero}
    .fil17 {fill:#373435;fill-rule:nonzero}
    .fil8 {fill:#393939;fill-rule:nonzero}
    .fil30 {fill:#3D693F;fill-rule:nonzero}
    .fil9 {fill:#4178AC;fill-rule:nonzero}
    .fil34 {fill:#49B3E5;fill-rule:nonzero}
    .fil36 {fill:#4A884A;fill-rule:nonzero}
    .fil4 {fill:#56BEE5;fill-rule:nonzero}
    .fil18 {fill:#738EA5;fill-rule:nonzero}
    .fil11 {fill:#80CDEB;fill-rule:nonzero}
    .fil25 {fill:#83C0B2;fill-rule:nonzero}
    .fil28 {fill:#8BA150;fill-rule:nonzero}
    .fil14 {fill:#8C6FA9;fill-rule:nonzero}
    .fil23 {fill:#8FD2C9;fill-rule:nonzero}
    .fil31 {fill:#9CC96D;fill-rule:nonzero}
    .fil21 {fill:#A7A0A0;fill-rule:nonzero}
    .fil19 {fill:#A8D27A;fill-rule:nonzero}
    .fil35 {fill:#B0D358;fill-rule:nonzero}
    .fil16 {fill:#B3BFE1;fill-rule:nonzero}
    .fil26 {fill:#B5DFD3;fill-rule:nonzero}
    .fil0 {fill:#D0EDFB;fill-rule:nonzero}
    .fil33 {fill:#D1A7CD;fill-rule:nonzero}
    .fil22 {fill:#DEB68B;fill-rule:nonzero}
    .fil3 {fill:#E5654F;fill-rule:nonzero}
    .fil27 {fill:#E66159;fill-rule:nonzero}
    .fil20 {fill:#ED757E;fill-rule:nonzero}
    .fil38 {fill:#EF5266;fill-rule:nonzero}
    .fil15 {fill:#F05D89;fill-rule:nonzero}
    .fil29 {fill:#F4855F;fill-rule:nonzero}
    .fil6 {fill:#F496AF;fill-rule:nonzero}
    .fil32 {fill:#F6A4A9;fill-rule:nonzero}
    .fil5 {fill:#F9A232;fill-rule:nonzero}
    .fil37 {fill:#FBD15B;fill-rule:nonzero}
    .fil2 {fill:#FDBC47;fill-rule:nonzero}
    .fil13 {fill:#FEFEFE;fill-rule:nonzero}
    .fil24 {fill:#FFF7ED;fill-rule:nonzero}
    .fil1 {fill:#4DB5E2;fill-rule:nonzero}
    .fil10 {fill:#DF4F2F;fill-rule:nonzero}
    .fil7 {fill:#EA116F;fill-rule:nonzero}
   ]]>
  </style>
 
  
  
  
  
  
  
  
  
  
  
  
  
  
  
  
  
  
  
  
  
  
  
  
  
  
  
  
  
  
  
  
  
  
  
  
  
  
  
  
  
  
  
  
  
  
  
  
  
  
  
  
  
  
  
  
  
  
  
  
  
  
  
  
  
  
  
  
  
  
  
  
  
  
  
  
  
  
  
  
  
  
  
  
  
  
  
  
  
  
  
  
  
  
  
  
  
  
  
  
  
  
  
  
  
  
  
  
  
  
  
  
  
  
  
  
  
  
  
  
  
  
  
  
  
  
  
  
  
  
  
  
  
  
  
  
  
  
  
  
  
  
  
  
  
  
  
  
  
  
  
  
  
  
  
  
  
  
  
  
  
  
  
  
  
  
  
  
  
  
  
  
  
  
  
  
  
  
  
  
  
  
  
  
  
  
  
  
  
  
  
  
  
  
  
  
  
  
  
  
  
  
  
  
  
  
  
  
  
  
  
  
  
  
  
  
  
  
  
  
  
  
  
  
  
  
  
  
  
  
  
  
  
  
  
  
  
  
  
  
  
  
  
  
  
  
  
  
  
  
  
  
  
  
  
  
  
  
  
  
  
  
  
  
  
  
  
  
  
  
  
  
  
  
  
  
  
  
  
  
  
  
  
  
  
  
  
  
  
  
  
  
  
  
  
  
  
  
  
  
  
  
  
  
  
  
  
  
  
  
  
  
  
  
  
  
  
  
  
  
  
  
  
  
  
  
  
  
  
  
  
  
  
  
  
  
  
  
  
  
  
  
  
  
  
  
  
  
  
  
  
  
  
  
  
  
  
  
  
  
  
  
  
  
  
  
  
  
  
  
  
  
  
  
  
  
  
  
  
  
  
  
  
  
  
  
  
  
  
  
  
  
  
  
  
  
  
  
  
  
  
  
  
  
  
  
  
  
  
  
  
  
 </defs>
 <path
   style="fill:#fefefe;fill-rule:nonzero"
   inkscape:connector-curvature="0"
   id="path41463"
   d="m 1147.0268,2304.6762 c 8,-3 15,-8 19,-15 -5,-2 -14,-7 -17,-23 -2,-16 5,-26 9,-29 -11,-6 -25,-6 -37,1 -12,7 -17,23 -17,37 0,23 21,38 43,31 z"
   class="fil13" /><path
   style="fill:#8c6fa9;fill-rule:nonzero"
   inkscape:connector-curvature="0"
   id="path41465"
   d="m 1060.0268,2580.6762 c 0,0 0,0 0,0 -3,3 -6,7 -9,11 -2,3 -4,5 3,5 1,0 3,-1 4,-1 7,-3 13,-8 19,-13 -3,0 -6,0 -8,-1 -3,0 -6,-1 -9,-1 z"
   class="fil14" /><path
   style="fill:#fefefe;fill-rule:nonzero"
   inkscape:connector-curvature="0"
   id="path41467"
   d="m 1098.0268,2361.6762 c -3,-1 -7,-1 -10,-2 0,2 1,5 1,7 0,2 0,4 1,6 0,-1 1,-1 1,-2 1,-2 2,-3 3,-5 1,-2 3,-3 4,-5 z"
   class="fil13" /><path
   style="fill:#fefefe;fill-rule:nonzero"
   inkscape:connector-curvature="0"
   id="path41469"
   d="m 1162.0268,2353.6762 c 1,3 2,6 4,9 1,1 1,3 2,5 1,-2 1,-3 2,-5 1,-3 2,-7 3,-10 -3,1 -7,1 -10,2 z"
   class="fil13" /><path
   style="fill:#8c6fa9;fill-rule:nonzero"
   inkscape:connector-curvature="0"
   id="path41471"
   d="m 1241.0268,2569.6762 c 3,0 4,-2 4,-5 0,-2 -2,-3 -2,-5 -1,-3 -2,-6 -3,-9 -6,4 -13,7 -20,10 5,4 15,10 22,9 z"
   class="fil14" /><path
   style="fill:#f05d89;fill-rule:nonzero"
   inkscape:connector-curvature="0"
   id="path41473"
   d="m 1282.0268,2371.6762 c -8,-35 -20,-70 -35,-103 0,-1 0,-1 0,-2 0,-1 1,-3 2,-3 1,0 1,0 2,0 5,1 10,3 15,5 2,1 6,3 8,3 3,0 2,0 2,-3 0,-2 -2,-4 -2,-5 -10,-17 -27,-32 -43,-43 -1,0 -1,-1 -2,-2 0,0 0,0 0,0 0,0 0,0 0,-1 0,0 0,0 0,-1 0,0 0,0 0,0 0,0 0,0 0,-1 0,0 0,0 0,0 1,-1 1,-1 2,-1 9,0 17,0 26,2 -12,-15 -29,-23 -48,-24 0,0 0,0 -1,0 -3,2 -5,-2 -4,-4 0,-1 1,-2 2,-2 12,-8 25,-11 39,-10 -12,-10 -26,-15 -41,-16 -20,-1 -33,9 -51,17 -1,1 -3,0 -3,-1 -2,0 -3,-2 -3,-4 1,-8 4,-17 8,-24 2,-4 5,-7 7,-10 1,0 1,-1 2,-1 -1,1 -3,1 -4,2 -2,1 -3,2 -5,3 -15,9 -24,23 -28,40 1,2 -2,5 -5,3 -24,-21 -56,-29 -86,-19 17,4 33,14 42,30 1,1 0,2 0,3 -1,1 -2,2 -3,1 0,0 0,0 0,0 0,0 0,0 0,0 -31,-11 -59,3 -83.00004,23 16.00004,-3 31.00004,-4 47.00004,-2 3,0 3,4 0,5 0,1 0,2 -1,2 -45.00004,21 -73.00004,71 -78.00004,119 9,-4 15,-15 21,-21 6,-6 13,-11 20.00004,-15 0,0 0,-1 1,-1 2,-3 7,0 5,3 0,1 0,2 -1,3 0,0 0,0 0,0 -18.00004,29 -27.00004,64 -31.00004,98 -4,34 -5,71 5,104 7,23 20.00004,40 44.00004,48 24,9 50,11 75,10 54,-1 119,-11 161,-49 43,-39 32,-107 20,-157 z m -164,-141 c 22,-9 47,-3 57,20 8,25 -2,57 -29,66 -25,8 -52,-7 -54,-33 -2,-20 6,-44 26,-52 z m -50,120 c 0,-1 2,-3 4,-2 23,8 46,12 70,11 23,-1 52,-5 68,-23 0,0 1,-1 1,-1 1,-1 3,0 3,1 1,1 1,2 1,3 -9,41 -42,75 -85,77 -24,1 -50,-6 -59,-29 -5,-11 -5,-24 -3,-36 z m 168,82 c -18,-4 -39,-2 -56,4 -5,2 -10,4 -14,6 -2,1 -4,3 -6,5 -2,3 -1,4 3,2 5,0 11,-3 15,-5 3,-1 4,2 3,4 -7,13 22,9 27,9 8,-1 17,-2 25,-3 4,-1 5,5 2,6 -10,2 -64,13 -61,-7 -6,2 -15,5 -19,2 -1,0 -1,-1 -2,-1 0,1 -1,1 -1,2 -3,4 -10,7 -16,8 14,15 -36,36 -46,41 -3,2 -6,-3 -3,-5 7,-3 15,-7 22,-11 5,-3 33,-16 19,-24 -2,-1 -2,-5 1,-5 4,-1 14,-2 17,-6 3,-5 -3,-3 -7,-3 -6,0 -11,1 -16,3 -18,5 -36,16 -49,29 -3,3 -7,-1 -4,-4 17,-18 50,-38 76,-33 3,1 6,1 8,3 1,-4 5,-7 8,-9 20,-15 54,-18 78,-13 4,1 2,6 -2,6 z"
   class="fil15" /><path
   style="fill:#8c6fa9;fill-rule:nonzero"
   inkscape:connector-curvature="0"
   id="path41475"
   d="m 1095.0268,2374.6762 c -2,3 -3,6 -7,6 -4,0 -4,-5 -5,-8 -1,-5 -2,-10 -3,-15 0,0 0,0 0,0 -3,-1 -6,-2 -9,-3 -2,9 -1,19 2,27 9,26 41,31 65,27 32,-5 56,-31 66,-62 -8,6 -18,10 -27,12 0,0 0,0 0,1 -2,6 -4,12 -6,17 -1,3 -2,9 -5,9 -1,0 -2,0 -3,-1 -2,-3 -3,-6 -4,-10 -2,-4 -3,-8 -5,-12 0,0 0,0 0,0 -1,0 -2,0 -4,0 -16,2 -32,1 -48,-2 -3,4 -7,7 -9,12 z"
   class="fil14" /><path
   style="fill:#282828;fill-rule:nonzero"
   inkscape:connector-curvature="0"
   id="path41477"
   d="m 1004.0268,2311.6762 c -34.00004,53 -44.00004,129 -32.00004,191 4,23 13,47 32.00004,61 18,13 43,17 65,19 59,6 128,-3 179,-35 49,-31 56,-83 49,-136 -7,-50 -22,-100 -43,-146 -2,-4 -8,-1 -6,4 15,33 26,68 34,103 12,50 23,118 -20,156 -41,37 -106,48 -160,49 -25,0 -51,-2 -75,-10 -24,-8 -37.00004,-25 -45.00004,-48 -11,-34 -10,-73 -5,-108 5,-33 14,-67 32.00004,-96 2,-4 -4,-7 -6,-4 v 0 z"
   class="fil12" /><path
   style="fill:#282828;fill-rule:nonzero"
   inkscape:connector-curvature="0"
   id="path41479"
   d="m 1037.0268,2224.6762 c -48.00004,22 -78.00004,78 -82.00004,129 0,2 2,4 4,3 9,-2 13,-7 19,-14 9,-10 18,-19 30.00004,-26 4,-2 0,-8 -4,-6 -7.00004,4 -14.00004,9 -20.00004,15 -8,8 -15,21 -27,24 1,1 3,2 4,3 4,-49 32,-102 78.00004,-123 4,-2 1,-8 -4,-6 v 0 z"
   class="fil12" /><path
   style="fill:#282828;fill-rule:nonzero"
   inkscape:connector-curvature="0"
   id="path41481"
   d="m 1042.0268,2221.6762 c -21,-3 -40,-1 -60.00004,5 1,2 2,4 3,6 25.00004,-23 57.00004,-43 92.00004,-31 4,1 6,-5 2,-7 -38,-13 -71,8 -99.00004,32 -3,2 0,7 3,6 19.00004,-6 37.00004,-8 56.00004,-5 4,1 6,-6 2,-7 v 0 z"
   class="fil12" /><path
   style="fill:#282828;fill-rule:nonzero"
   inkscape:connector-curvature="0"
   id="path41483"
   d="m 1081.0268,2196.6762 c -12,-19 -32,-30 -54,-32 1,2 1,4 2,6 32,-15 68,-7 95,15 3,3 8,-2 5,-5 -29,-25 -68,-33 -103,-16 -3,2 -1,6 2,6 20,2 38,11 48,28 2,4 8,0 6,-4 v 0 z"
   class="fil12" /><path
   style="fill:#282828;fill-rule:nonzero"
   inkscape:connector-curvature="0"
   id="path41485"
   d="m 1129.0268,2184.6762 c 3,-17 13,-32 28,-41 2,-1 3,-2 5,-3 1,-1 3,-1 4,-2 -1,0 -2,0 -2,1 -3,3 -5,7 -7,10 -4,8 -6,16 -8,24 -1,4 6,6 7,2 1,-8 3,-16 7,-23 2,-4 7,-8 8,-13 2,-8 -4,-10 -10,-7 -20,8 -35,28 -39,49 -1,4 6,6 7,2 v 0 z"
   class="fil12" /><path
   style="fill:#282828;fill-rule:nonzero"
   inkscape:connector-curvature="0"
   id="path41487"
   d="m 1156.0268,2179.6762 c 16,-8 30,-17 49,-17 19,0 36,8 49,22 1,-2 2,-4 3,-6 -18,-4 -35,-1 -51,9 -4,3 0,9 4,6 14,-10 29,-12 45,-9 3,1 6,-3 3,-6 -13,-14 -30,-22 -50,-24 -23,-2 -37,8 -57,18 -4,2 -1,8 4,6 v 0 z"
   class="fil12" /><path
   style="fill:#282828;fill-rule:nonzero"
   inkscape:connector-curvature="0"
   id="path41489"
   d="m 1209.0268,2193.6762 c 22,0 42,11 53,30 1,-2 3,-3 4,-5 -11,-3 -22,-5 -34,-4 -4,0 -4,7 0,7 11,-1 22,1 32,4 3,1 6,-3 4,-5 -13,-21 -35,-33 -59,-33 -4,0 -4,7 0,7 v 0 z"
   class="fil12" /><path
   style="fill:#282828;fill-rule:nonzero"
   inkscape:connector-curvature="0"
   id="path41491"
   d="m 1230.0268,2220.6762 c 17,11 34,25 44,43 1,1 2,3 2,5 1,3 2,2 -1,2 -2,0 -6,-2 -8,-3 -6,-2 -11,-4 -17,-5 -4,-1 -4,6 0,7 6,1 36,17 34,0 -1,-10 -11,-21 -18,-28 -10,-10 -21,-19 -32,-27 -4,-2 -7,4 -4,6 z"
   class="fil12" /><path
   style="fill:#282828;fill-rule:nonzero"
   inkscape:connector-curvature="0"
   id="path41493"
   d="m 1160.0268,2235.6762 c 0,0 -16,10 -13,34 3,24 21,26 21,26 0,0 13,-15 7,-32 -5,-17 -16,-28 -16,-28 z"
   class="fil12" /><path
   style="fill:#282828;fill-rule:nonzero"
   inkscape:connector-curvature="0"
   id="path41495"
   d="m 1176.0268,2250.6762 c -10,-23 -35,-30 -58,-20 -20,8 -28,32 -26,53 2,27 29,42 54,34 27,-9 38,-41 30,-67 -1,-4 -8,-2 -7,2 7,22 -1,50 -25,58 -24,8 -46,-8 -46,-33 0,-14 5,-32 19,-39 18,-10 43,-7 52,14 2,4 8,2 7,-2 z"
   class="fil12" /><path
   style="fill:#282828;fill-rule:nonzero"
   inkscape:connector-curvature="0"
   id="path41497"
   d="m 1210.0268,2336.6762 c -16,18 -45,22 -68,23 -24,1 -47,-3 -70,-11 -2,-1 -4,1 -4,2 -10,42 23,68 63,66 43,-2 76,-36 85,-77 1,-4 -6,-6 -7,-2 -7,33 -32,64 -66,70 -24,5 -57,1 -67,-26 -3,-9 -4,-21 -2,-30 -1,1 -3,2 -4,2 27,10 55,13 84,10 22,-2 46,-7 61,-24 3,-3 -2,-8 -5,-5 z"
   class="fil12" /><path
   style="fill:#282828;fill-rule:nonzero"
   inkscape:connector-curvature="0"
   id="path41499"
   d="m 1081.0268,2358.6762 c 1,7 2,15 5,21 1,1 2,2 3,2 3,0 4,-1 6,-4 3,-5 6,-9 11,-14 3,-3 -2,-8 -5,-5 -2,2 -5,5 -7,8 -1,1 -5,8 -5,8 1,1 2,1 3,2 -3,-6 -3,-14 -4,-20 -1,-4 -7,-3 -7,2 z"
   class="fil12" /><path
   style="fill:#282828;fill-rule:nonzero"
   inkscape:connector-curvature="0"
   id="path41501"
   d="m 1155.0268,2364.6762 c 3,7 5,15 9,21 1,1 2,2 4,2 4,-1 5,-5 5,-8 2,-6 4,-12 6,-18 2,-4 -5,-6 -7,-2 -2,5 -3,9 -5,14 -1,2 -1,4 -2,6 0,1 -1,1 -1,2 0,2 -1,0 0,0 1,1 3,1 4,2 -4,-5 -6,-14 -8,-20 -2,-4 -8,-2 -7,2 v 0 z"
   class="fil12" /><path
   style="fill:#282828;fill-rule:nonzero"
   inkscape:connector-curvature="0"
   id="path41503"
   d="m 1072.0268,2483.6762 c 13,-14 32,-24 50,-29 4,-1 9,-2 14,-2 4,0 11,-2 6,2 -3,3 -11,4 -16,5 -3,1 -3,5 -1,6 14,7 -13,20 -18,23 -7,4 -14,8 -22,11 -4,2 -1,8 4,6 10,-5 70,-30 40,-46 0,2 -1,4 -1,6 6,-1 20,-4 23,-10 4,-7 -2,-9 -9,-10 -26,-4 -59,15 -76,33 -3,3 2,8 5,5 v 0 z"
   class="fil12" /><path
   style="fill:#282828;fill-rule:nonzero"
   inkscape:connector-curvature="0"
   id="path41505"
   d="m 1237.0268,2426.6762 c -24,-5 -60,-2 -80,14 -5,4 -11,11 -3,15 6,4 19,-2 25,-5 -1,-2 -3,-3 -4,-5 -16,30 47,17 59,15 4,-1 3,-7 -2,-7 -8,1 -16,2 -23,3 -5,1 -10,1 -16,1 -2,0 -4,1 -6,0 -2,-1 -8,-6 -7,-9 1,-2 -1,-6 -4,-5 -4,2 -9,4 -14,4 -8,0 -2,-3 3,-6 4,-3 9,-5 14,-6 17,-6 38,-7 56,-4 4,1 6,-6 2,-7 v 0 z"
   class="fil12" /><path
   style="fill:#282828;fill-rule:nonzero"
   inkscape:connector-curvature="0"
   id="path41507"
   d="m 1055.0268,2576.6762 c -5,5 -21,22 -8,27 6,2 13,-1 18,-4 7,-4 13,-9 19,-14 3,-3 -2,-8 -5,-5 -6,6 -13,12 -21,15 -1,0 -3,1 -4,1 -7,1 -5,-1 -3,-4 3,-4 6,-8 9,-11 3,-3 -2,-8 -5,-5 z"
   class="fil12" /><path
   style="fill:#282828;fill-rule:nonzero"
   inkscape:connector-curvature="0"
   id="path41509"
   d="m 1214.0268,2564.6762 c 8,7 21,14 32,11 4,-1 7,-4 6,-8 0,-3 -2,-5 -3,-7 -2,-4 -3,-8 -4,-12 -1,-4 -8,-2 -7,2 1,3 2,6 3,9 1,3 5,8 0,10 -3,1 -8,-1 -11,-2 -4,-2 -8,-4 -12,-7 -3,-3 -8,2 -5,5 v 0 z"
   class="fil12" /><path
   style="fill:#282828;fill-rule:nonzero"
   inkscape:connector-curvature="0"
   id="path41511"
   d="m 995.02676,2450.6762 c -1,10 -3,19 -4,29 -1,4 6,6 7,2 1,-10 3.00004,-19 4.00004,-29 1,-4 -6.00004,-6 -7.00004,-2 z"
   class="fil12" /><path
   style="fill:#282828;fill-rule:nonzero"
   inkscape:connector-curvature="0"
   id="path41513"
   d="m 999.02676,2502.6762 c -1,8 0,15 3.00004,22 2,4 8,0 6,-4 -3,-5 -4,-11 -3,-17 1,-4 -6.00004,-6 -7.00004,-2 v 0 z"
   class="fil12" /><path
   style="fill:#282828;fill-rule:nonzero"
   inkscape:connector-curvature="0"
   id="path41515"
   d="m 1019.0268,2472.6762 c 3,5 4,11 2,17 -1,4 6,6 7,2 2,-8 1,-15 -3,-22 -2,-4 -8,0 -6,4 v 0 z"
   class="fil12" /><path
   style="fill:#282828;fill-rule:nonzero"
   inkscape:connector-curvature="0"
   id="path41517"
   d="m 1248.0268,2316.6762 c 3,9 7,17 10,26 2,4 8,2 7,-2 -3,-9 -7,-17 -10,-26 -2,-4 -8,-2 -7,2 z"
   class="fil12" /><path
   style="fill:#282828;fill-rule:nonzero"
   inkscape:connector-curvature="0"
   id="path41519"
   d="m 1262.0268,2363.6762 c -2,6 -1,12 3,16 3,3 8,-2 5,-5 -3,-3 -3,-6 -2,-10 1,-4 -5,-6 -7,-2 v 0 z"
   class="fil12" /><path
   style="fill:#282828;fill-rule:nonzero"
   inkscape:connector-curvature="0"
   id="path41521"
   d="m 1242.0268,2358.6762 c 1,4 2,9 3,13 1,4 8,2 7,-2 -1,-4 -2,-9 -3,-13 -1,-4 -8,-2 -7,2 z"
   class="fil12" /><path
   style="fill:#b3bfe1;fill-rule:nonzero"
   inkscape:connector-curvature="0"
   id="path41523"
   d="m 1096.29,1875.2427 c 79,10 174,15 243,-33 4,-3 8,4 4,7 -52,37 -120,42 -182,40 -29,-1 -59,-6 -88,-9 -1,0 -1,0 -2,0 -20,-2 -40,-2 -60,0 -25.00004,3 -53.00004,11 -67.00004,34 -14,23 -10,55 3,77 31,50 103.00004,59 156.00004,58 72,-1 147,-18 207,-59 54,-37 95,-92 115,-154 39,-124 -18,-256 -108,-342 -16,-15 -32,-27 -49,-40 -25,-19 -45,-42 -67,-64 -3,-3 -8,-10 -11,-11 -5,-1 -4,-2 -7,5 -6,11 -11,26 -19,35 -7,9 -15,7 -26,10 -14,3 -29,7 -42,14 -2,1 -4,1 -5,-1 -5,-6 -29,-36 -37,-33 -7,3 -10,29 -12,36 -11,48 -17,97 -20,146 -7,98 11,194 54,282 7,1 15,2 21,2 z m 84,-402 c 13,-5 30,-8 41,2 1,0 1,1 1,2 0,1 0,1 0,2 -1,15 -11,26 -26,30 -11,3 -31,2 -38,-10 -6,-11 12,-22 20,-25 z m -120,50 c -6,-11 12,-22 20,-25 13,-5 30,-8 41,2 1,0 1,1 1,2 0,1 0,1 0,2 -1,15 -11,26 -26,30 -11,3 -31,2 -38,-10 z"
   class="fil16" /><path
   style="fill:#fefefe;fill-rule:nonzero"
   inkscape:connector-curvature="0"
   id="path41525"
   d="m 1115.29,1505.2427 c -12,-8 -54,4 -46,16 5,8 21,7 28,4 10,-3 17,-10 18,-20 z"
   class="fil13" /><path
   style="fill:#fefefe;fill-rule:nonzero"
   inkscape:connector-curvature="0"
   id="path41527"
   d="m 1196.29,1500.2427 c 10,-3 17,-10 18,-20 -12,-8 -54,4 -46,16 5,8 21,7 28,4 z"
   class="fil13" /><path
   style="fill:#373435;fill-rule:nonzero"
   inkscape:connector-curvature="0"
   id="path41529"
   d="m 1109.29,1498.2427 c -14,-6 -16,22 -1,26 15,5 15,-20 1,-26 z"
   class="fil17" /><path
   style="fill:#373435;fill-rule:nonzero"
   inkscape:connector-curvature="0"
   id="path41531"
   d="m 1206.29,1472.2427 c -14,-6 -16,22 -1,26 15,5 15,-20 1,-26 z"
   class="fil17" /><path
   style="fill:#738ea5;fill-rule:nonzero"
   inkscape:connector-curvature="0"
   id="path41533"
   d="m 1249.29,1607.2427 c -5,27 105,21 157,0 v 0 l -33,-54 c 0,0 -119,25 -124,54 z"
   class="fil18" /><path
   style="fill:#738ea5;fill-rule:nonzero"
   inkscape:connector-curvature="0"
   id="path41535"
   d="m 1289.29,1712.2427 c -5,27 72,51 152,32 h 5 l -15,-72 c 0,0 -136,9 -141,39 z"
   class="fil18" /><path
   style="fill:#282828;fill-rule:nonzero"
   inkscape:connector-curvature="0"
   id="path41537"
   d="m 1339.29,1842.2427 c -68,48 -163,44 -241,34 -53,-7 -153.00004,-17 -169.00004,53 -17,76 62,116 124.00004,124 94,13 203,-10 278,-70 68,-54 111,-137 114,-223 3,-92 -40,-182 -101,-249 -24,-27 -52,-47 -80,-70 -19,-15 -35,-33 -52,-51 -5,-6 -17,-23 -26,-24 -10,-1 -17,20 -20,27 -5,9 -8,20 -17,24 -11,4 -24,5 -35,8 -5,1 -10,3 -15,5 -1,0 -9,3 -5,4 -3,-1 -10,-11 -12,-14 -6,-6 -20,-23 -31,-21 -14,3 -18,42 -20,52 -9,41 -14,83 -17,125 -4,46 -5,93 3,139 8,48 23,94 42,139 3,7 6,15 10,22 2,4 8,0 6,-4 -32,-66 -55,-142 -57,-216 -2,-75 6,-154 25,-227 1,-5 3,-11 5,-16 3,-7 2,-8 9,-6 12,4 25,21 32,31 1,1 3,1 4,1 14,-7 30,-11 45,-14 13,-3 18,-1 24,-12 6,-11 11,-27 19,-36 5,-5 4,-4 9,0 4,4 8,8 12,12 22,23 44,46 69,65 17,13 34,26 49,41 91,90 145,224 99,349 -22,60 -64,113 -118,148 -60,39 -136,55 -207,54 -52,0 -121.00004,-10 -151.00004,-59 -13,-22 -17,-53 -3,-76 13,-22 40,-31 64.00004,-34 51,-8 102,6 153,8 62,2 130,-3 182,-40 4,-3 0,-9 -4,-6 v 0 z"
   class="fil12" /><path
   style="fill:#282828;fill-rule:nonzero"
   inkscape:connector-curvature="0"
   id="path41539"
   d="m 1122.29,1500.2427 c -11,-10 -29,-7 -41,-2 -8,3 -26,13 -20,24 6,12 26,13 37,10 14,-4 25,-15 25,-30 0,-4 -7,-4 -7,0 0,12 -8,19 -19,23 -8,2 -24,3 -29,-5 -8,-13 38,-26 49,-16 3,3 8,-2 5,-5 z"
   class="fil12" /><path
   style="fill:#282828;fill-rule:nonzero"
   inkscape:connector-curvature="0"
   id="path41541"
   d="m 1221.29,1476.2427 c -11,-10 -29,-7 -41,-2 -8,3 -26,13 -20,24 6,12 26,13 37,10 14,-4 25,-15 25,-30 0,-4 -7,-4 -7,0 0,12 -8,19 -19,23 -8,2 -24,3 -29,-5 -8,-13 38,-26 49,-16 3,3 8,-2 5,-5 z"
   class="fil12" /><path
   style="fill:#282828;fill-rule:nonzero"
   inkscape:connector-curvature="0"
   id="path41543"
   d="m 1123.29,1533.2427 c 7,6 19,5 24,-4 2,-4 -4,-7 -6,-4 -2,5 -9,6 -13,3 -3,-3 -8,2 -5,5 z"
   class="fil12" /><path
   style="fill:#282828;fill-rule:nonzero"
   inkscape:connector-curvature="0"
   id="path41545"
   d="m 1122.29,1571.2427 c 4,-12 8,-23 13,-34 -2,0 -4,-1 -6,-1 2,10 5,20 7,29 1,4 8,3 7,-2 -2,-10 -5,-20 -7,-29 -1,-3 -5,-4 -6,-1 -5,12 -10,24 -14,36 -1,4 5,6 7,2 v 0 z"
   class="fil12" /><path
   style="fill:#282828;fill-rule:nonzero"
   inkscape:connector-curvature="0"
   id="path41547"
   d="m 1009.29,1992.2427 c 8,8 17,13 28,15 4,1 6,-6 2,-7 -10,-2 -18,-6 -25,-13 -3,-3 -8,2 -5,5 z"
   class="fil12" /><path
   style="fill:#282828;fill-rule:nonzero"
   inkscape:connector-curvature="0"
   id="path41549"
   d="m 1061.29,2014.2427 c 9,5 19,6 28,3 4,-1 2,-8 -2,-7 -8,2 -16,2 -23,-2 -4,-2 -7,4 -4,6 v 0 z"
   class="fil12" /><path
   style="fill:#282828;fill-rule:nonzero"
   inkscape:connector-curvature="0"
   id="path41551"
   d="m 1041.29,1983.2427 c 7,4 15,6 24,7 4,1 4,-6 0,-7 -7,-1 -14,-3 -20,-6 -4,-2 -7,4 -4,6 z"
   class="fil12" /><path
   style="fill:#a7a0a0;fill-rule:nonzero"
   inkscape:connector-curvature="0"
   id="path41563"
   d="m 2038.0303,914.82153 c -1,1 -1,1 -2,2 2,-1 4,-1 6,-2 0,0 0,0 -1,0 -1,1 -2,1 -3,1 z"
   class="fil21" /><path
   style="fill:#deb68b;fill-rule:nonzero"
   inkscape:connector-curvature="0"
   id="path41565"
   d="m 1651.0303,1309.8215 c -6,8 -13,17 -18,26 -2,3 -9,13 -7,16 5,9 17,-2 21,-5 18,-15 33,-35 47,-54 -1,-4 -1,-8 -1,-11 -10,16 -28,36 -42,28 z"
   class="fil22" /><path
   style="fill:#deb68b;fill-rule:nonzero"
   inkscape:connector-curvature="0"
   id="path41567"
   d="m 2051.0303,1332.8215 c -1,-9 -3,-19 -5,-28 -11,3 -22,-3 -30,-11 -1,4 -3,7 -5,11 10,14 20,28 32,40 1,1 3,3 4,4 5,3 7,3 6,-1 1,-3 -2,-13 -2,-16 z"
   class="fil22" /><path
   style="fill:#deb68b;fill-rule:nonzero"
   inkscape:connector-curvature="0"
   id="path41569"
   d="m 1962.0303,1312.8215 c -3,10 -8,20 -14,29 3,9 6,18 10,28 3,7 9,29 16,16 4,-7 2,-22 3,-30 1,-9 1,-18 2,-26 -7,-2 -12,-9 -16,-16 z"
   class="fil22" /><path
   style="fill:#deb68b;fill-rule:nonzero"
   inkscape:connector-curvature="0"
   id="path41571"
   d="m 1773.0303,1345.8215 c -14,-6 -20,-23 -22,-39 -2,4 -4,8 -6,11 -1,21 0,43 4,64 1,8 2,11 7,3 3,-4 6,-10 8,-15 4,-8 8,-16 13,-23 -1,0 -3,-1 -4,-1 z"
   class="fil22" /><path
   style="fill:#deb68b;fill-rule:nonzero"
   inkscape:connector-curvature="0"
   id="path41573"
   d="m 1880.0303,1319.8215 c -4,11 -10,24 -19,32 -1,13 0,25 2,37 1,5 1,10 3,14 6,11 6,3 9,-3 5,-11 9,-23 14,-34 2,-6 3,-14 7,-19 -7,-7 -13,-18 -17,-28 z"
   class="fil22" /><path
   style="fill:#ed757e;fill-rule:nonzero"
   inkscape:connector-curvature="0"
   id="path41575"
   d="m 2014.0303,713.82153 c -21,10 -33,31 -31,55 10,-7 22,-13 34,-16 -7,-11 -6,-26 -3,-39 z"
   class="fil20" /><path
   style="fill:#ed757e;fill-rule:nonzero"
   inkscape:connector-curvature="0"
   id="path41577"
   d="m 2174.0303,896.82153 c -13,0 -25,-2 -35,-11 -3,7 -6,14 -10,21 16,3 32,-1 45,-10 z"
   class="fil20" /><path
   style="fill:#ed757e;fill-rule:nonzero"
   inkscape:connector-curvature="0"
   id="path41579"
   d="m 1833.0303,797.82153 c 0,1 0,1 0,2 21,-13 27,-44 15,-65 -8,14 -19,24 -33,30 8,9 14,21 18,33 z"
   class="fil20" /><path
   style="fill:#ed757e;fill-rule:nonzero"
   inkscape:connector-curvature="0"
   id="path41581"
   d="m 1640.0303,796.82153 c -18,2 -35,-6 -45,-20 -4,11 2,31 8,39 8,10 19,15 32,15 0,-12 2,-24 6,-34 z"
   class="fil20" /><path
   style="fill:#fefefe;fill-rule:nonzero"
   inkscape:connector-curvature="0"
   id="path41583"
   d="m 2015.0303,900.82153 c -4,-2 -7,-4 -11,-6 -1,4 -1,7 -1,11 4,-1 8,-3 12,-5 z"
   class="fil13" /><path
   style="fill:#fefefe;fill-rule:nonzero"
   inkscape:connector-curvature="0"
   id="path41585"
   d="m 2027.0303,913.82153 c 0,0 3,-2 6,-4 -2,-1 -4,-2 -6,-3 0,3 0,7 0,7 z"
   class="fil13" /><path
   style="fill:#fefefe;fill-rule:nonzero"
   inkscape:connector-curvature="0"
   id="path41587"
   d="m 1987.0303,894.82153 c 3,-1 6,-3 10,-4 -3,-2 -5,-3 -8,-5 -1,3 -1,6 -2,9 z"
   class="fil13" /><path
   style="fill:#fefefe;fill-rule:nonzero"
   inkscape:connector-curvature="0"
   id="path41589"
   d="m 1745.0303,886.82153 c 3,0 5,-3 7,-6 -4,1 -8,1 -12,1 -1,0 -2,0 -2,0 2,3 4,5 7,5 z"
   class="fil13" /><path
   style="fill:#fefefe;fill-rule:nonzero"
   inkscape:connector-curvature="0"
   id="path41591"
   d="m 1727.0303,881.82153 c -4,0 -7,-1 -11,-1 4,9 6,7 11,1 z"
   class="fil13" /><path
   style="fill:#fefefe;fill-rule:nonzero"
   inkscape:connector-curvature="0"
   id="path41593"
   d="m 1773.0303,874.82153 c -4,1 -8,2 -11,3 3,2 6,5 9,3 1,-1 2,-3 2,-6 z"
   class="fil13" /><path
   style="fill:#8fd2c9;fill-rule:nonzero"
   inkscape:connector-curvature="0"
   id="path41595"
   d="m 1847.0303,1350.8215 c 16,-3 26,-30 30,-43 1,-3 6,-3 7,0 5,18 18,48 41,42 20,-5 29,-31 33,-49 1,-3 6,-3 7,0 4,14 14,30 30,17 8,-7 13,-20 16,-30 1,-2 4,-4 6,-2 28,36 52,-10 62,-35 19,-47 16,-97 -10,-141 -2,-4 4,-7 6,-4 2,4 4,8 6,12 24,-6 47,-19 66,-35 8,-7 16,-15 23,-23 4,-4 20,-21 19,-29 -2,-17 -44,8 -51,11 -10,5 -20,7 -31,8 -25,0 -53,-11 -63,-35 -8,-17.99997 -4,-39.99997 12,-51.99997 18,-14 38,-21 53,-39 24,-28 40,-75 28,-111 -20,-61 -110,-73 -155,-35 -31,26 -39,64 -46,102 -4,24 -8,51 -24,71 -13,17 -39,42 -63,35 -24,-6 -34,-37 -33,-59 2,-36 15,-72 12,-109 -3,-42 -32,-73 -74,-78 -38,-4 -87,13 -106,49 -16,31 -7,69 7,100 12,25 38,48 41,76 3,26 -18,57.99997 -37,73.99997 -11,9 -25,16 -39,15 -14,-1 -23,-9 -33,-18 -7,-6 -28,-30 -36,-15 -5,9 6,31 9,38 10,20 24,40 43,53 3,-9 5,-19 9,-28 2,-4 8,-2 7,2 -19,50 -23,102 -13,155 2,9 6,34 18,24 4,-3 7,-11 9,-15 4,-9 8,-17 11,-26 2,-4 8,-3 7,2 -4,19 -7,40 -5,59 0,5 1,14 6,18 0,0 1,1 1,1 8,5 19,-6 23,-11 7,-7 12,-16 16,-25 1,-3 7,-2 7,2 0,7 0,16 1,24 0,0 0,0 0,1 2,9 5,17 10,23 20,23 36,-14 38,-30 1,-4 7,-3 7,1 0,14 2,33 11,45 18,24 42,-9 47,-27 1,-4 7,-3 7,1 1,13 7,47 26,44 z m 212,-104 c 2,-6 4,-13 4,-20 0,-5 7,-5 7,0 0,7 -2,15 -4,21 -2,4 -8,2 -7,-2 z m -2,21 c -3,5 -5,10 -8,16 -2,4 -8,0 -6,-4 3,-5 5,-10 8,-16 2,-4 8,0 6,4 z m -14,-30 c 1,-4 8,-3 7,2 -2,9 -6,17 -13,23 -3,3 -8,-2 -5,-5 6,-5 10,-12 11,-20 z m 73,-413.99997 c 6,0 12,3 15,9 3,7 1,14 -2,21 -2,4 -8,1 -6,-4 3,-7 4,-20 -7,-19 -5,0 -4,-7 0,-7 z m -31,15 c 16,1 32,17 26,34 -5,13 -17,22 -31,20 -14,-2 -27,-12 -26,-27 2,-16 15,-28 31,-27 z m -79,-62 c 9,-10 24,-9 31,2 2,4 -4,7 -6,4 -5,-8 -15,-8 -20,-1 -3,3 -8,-2 -5,-5 z m 5,15 c 16,1 32,17 26,34 -5,13 -17,22 -31,20 -14,-2 -27,-12 -26,-27 2,-16 15,-28 31,-27 z m -40,74 c 1,-2 3,-3 4,-2 1,0 1,0 2,0 3,1 3,2 5,5 6,8 12,14 21,18 7,4 14,8 21,11 2,-1 4,0 4,2 8,4 16,8 25,12 3,1 2,5 0,6 -34,23 -97,-9 -81,-53 z m -328,312.99997 c 1,4 -6,6 -7,2 -2,-11 -1,-21 0,-32 1,-4 7,-3 7,2 -1,9 -2,19 0,28 z m 14,-79 c -7,10 -12,21 -14,33 -1,4 -8,3 -7,-2 2,-12 7,-24 14,-34 3,-4 9,0 6,4 z m 20,34 c -3,9 -5,18 -4,27 0,5 -7,4 -7,0 -1,-10 0,-20 4,-29 2,-4 8,-2 7,2 z m 90,-346.99997 c 3,-6 6,-14 14,-15 8,-1 14,6 18,11 3,4 -3,7 -6,4 -2,-3 -6,-9 -11,-8 -4,1 -7,6 -8,10 -2,4 -8,2 -7,-2 z m -104,14 c 3,-7 7,-17 16,-18 8,-1 14,5 15,13 1,4 -7,4 -7,0 -1,-5 -6,-7 -10,-4 -4,3 -6,8 -7,12 -1,4 -8,2 -7,-2 z m -5,52 c -4,-12 -2,-27 9,-35 13,-9 31,-9 40,4 8,14 4,33 -11,41 -13,7 -33,5 -38,-11 z m 123,34 c -7,10 -19,15 -30,18 -23,6 -45,2 -55,-23 0,-1 0,-1 0,-2 -1,-2 0,-5 3,-5 15,1 30,4 45,3 16,-1 25,-7 39,-12 2,-1 3,0 4,2 4,5 -2,15 -5,19 z m 7,-36 c -16,3 -33,-7 -33,-24 0,-13 7,-25 20,-29 14,-4 29,1 35,15 5,17 -5,35 -22,38 z m 14,264.99997 c -3,-28 41,-27 46,1 5,-24 47,-30 47,0 1,30 -32,52 -43,52 -11,0 -48,-25 -50,-54 z"
   class="fil23" /><path
   style="fill:#fefefe;fill-rule:nonzero"
   inkscape:connector-curvature="0"
   id="path41597"
   d="m 1702.0303,844.82153 c -4,-1 -9,-4 -12,-11 -3,-8 0,-14 2,-17 -8,-2 -17,0 -23,6 -6,5 -7,16 -5,23 3,13 20,15 30,9 4,-2 6,-5 8,-9 z"
   class="fil13" /><path
   style="fill:#fefefe;fill-rule:nonzero"
   inkscape:connector-curvature="0"
   id="path41599"
   d="m 2076.0303,863.82153 c -3,8 -8,11 -12,12 3,5 9,8 15,9 10,2 17,-2 23,-10 9,-13 -1,-28 -16,-30 -4,0 -8,0 -11,2 2,3 5,8 2,16 z"
   class="fil13" /><path
   style="fill:#fefefe;fill-rule:nonzero"
   inkscape:connector-curvature="0"
   id="path41601"
   d="m 2001.0303,815.82153 c -3,8 -8,11 -12,12 3,4 9,8 15,9 10,2 17,-2 23,-10 9,-13 -1,-28 -16,-30 -4,0 -8,0 -11,2 2,3 5,8 2,16 z"
   class="fil13" /><path
   style="fill:#fefefe;fill-rule:nonzero"
   inkscape:connector-curvature="0"
   id="path41603"
   d="m 1790.0303,819.82153 c -1,-8 3,-13 6,-16 -6,-3 -13,-3 -19,-2 -9,2 -13,9 -15,18 -3,14 9,24 23,21 5,-1 10,-4 13,-7 -3,-2 -8,-6 -8,-14 z"
   class="fil13" /><path
   style="fill:#738ea5;fill-rule:nonzero"
   inkscape:connector-curvature="0"
   id="path41605"
   d="m 1986.0303,901.82153 c 3,3 6,5 10,7 0,-4 0,-8 1,-12 -3,1 -7,3 -10,4 z"
   class="fil18" /><path
   style="fill:#738ea5;fill-rule:nonzero"
   inkscape:connector-curvature="0"
   id="path41607"
   d="m 1983.0303,880.82153 c 0,0 0,0 0,0 -1,-1 -4,-7 -6,-9 -2,8 0,16 4,22 0,-4 1,-9 3,-13 z"
   class="fil18" /><path
   style="fill:#738ea5;fill-rule:nonzero"
   inkscape:connector-curvature="0"
   id="path41609"
   d="m 2003.0303,912.82153 c 6,2 12,4 19,4 -1,-3 -2,-8 -2,-11 -5,3 -11,5 -17,7 z"
   class="fil18" /><path
   style="fill:#738ea5;fill-rule:nonzero"
   inkscape:connector-curvature="0"
   id="path41611"
   d="m 1708.0303,879.82153 c -2,0 -4,0 -5,-1 3,5 6,9 10,12 -2,-4 -3,-9 -4,-12 z"
   class="fil18" /><path
   style="fill:#738ea5;fill-rule:nonzero"
   inkscape:connector-curvature="0"
   id="path41613"
   d="m 1733.0303,886.82153 c -2,3 -5,7 -9,10 5,1 11,1 17,0 -3,-2 -6,-6 -8,-10 z"
   class="fil18" /><path
   style="fill:#738ea5;fill-rule:nonzero"
   inkscape:connector-curvature="0"
   id="path41615"
   d="m 1763.0303,888.82153 c -2,-1 -4,-3 -6,-5 -2,3 -4,7 -7,9 4,-1 8,-3 12,-5 z"
   class="fil18" /><path
   style="fill:#282828;fill-rule:nonzero"
   inkscape:connector-curvature="0"
   id="path41617"
   d="m 1613.0303,1084.8215 c -12,33 -19,67 -19,102 0,16 2,32 4,48 2,12 4,27 12,36 19,22 36,-33 41,-45 -2,-1 -4,-1 -7,-2 -4,22 -13,60 0,80 17,26 48,-19 54,-33 -2,-1 -4,-1 -6,-2 -1,20 2,53 24,61 24,8 37,-22 39,-41 -2,0 -5,-1 -7,-1 0,19 4,51 24,59 24,9 42,-20 48,-38 -2,0 -5,-1 -7,-1 2,16 7,48 28,51 23,3 37,-31 42,-49 -2,0 -4,0 -7,0 5,20 20,51 45,48 25,-3 38,-33 42,-55 -2,0 -4,0 -7,0 3,12 12,30 27,27 18,-3 28,-26 32,-41 -2,1 -4,1 -6,2 9,11 24,21 38,14 13,-7 22,-24 28,-37 26,-52 26,-111 -4,-162 -2,-4 -8,0 -6,4 26,44 29,95 9,142 -10,24 -34,69 -62,34 -2,-2 -5,-1 -6,2 -3,11 -8,23 -16,30 -16,14 -26,-3 -30,-17 -1,-3 -6,-3 -7,0 -4,18 -13,44 -33,49 -23,5 -36,-25 -41,-42 -1,-3 -6,-3 -7,0 -4,14 -15,44 -33,43 -17,-1 -21,-30 -23,-44 0,-4 -6,-5 -7,-1 -5,17 -27,49 -46,28 -10,-11 -12,-32 -13,-47 0,-4 -6,-5 -7,-1 -2,16 -15,50 -37,32 -13,-11 -14,-35 -13,-50 0,-3 -5,-5 -6,-2 -4,9 -9,18 -16,25 -5,5 -15,15 -24,11 -5,-3 -6,-13 -7,-19 -2,-19 1,-40 5,-59 1,-4 -5,-6 -7,-2 -3,9 -7,18 -11,26 -2,5 -5,12 -9,15 -7,6 -10,0 -13,-7 -3,-5 -3,-11 -4,-17 -10,-52 -6,-105 13,-155 2,-4 -5,-6 -7,-2 v 0 z"
   class="fil12" /><path
   style="fill:#282828;fill-rule:nonzero"
   inkscape:connector-curvature="0"
   id="path41619"
   d="m 1647.0303,1302.8215 c -5,7 -49,62 -18,60 14,-1 25,-14 34,-23 14,-14 26,-29 37,-45 3,-4 -3,-7 -6,-4 -14,19 -29,39 -47,54 -4,3 -16,15 -21,5 -2,-3 5,-13 7,-16 6,-10 14,-20 21,-29 3,-4 -3,-7 -6,-4 v 0 z"
   class="fil12" /><path
   style="fill:#282828;fill-rule:nonzero"
   inkscape:connector-curvature="0"
   id="path41621"
   d="m 1738.0303,1316.8215 c -1,18 -1,35 1,52 1,7 0,25 8,30 5,3 9,-1 12,-5 10,-13 17,-31 25,-45 2,-4 -4,-7 -6,-4 -4,8 -9,17 -14,25 -3,5 -5,11 -8,15 -6,8 -6,5 -8,-3 -4,-22 -5,-44 -4,-66 0,-4 -7,-4 -7,0 v 0 z"
   class="fil12" /><path
   style="fill:#282828;fill-rule:nonzero"
   inkscape:connector-curvature="0"
   id="path41623"
   d="m 1855.0303,1349.8215 c -1,15 0,30 4,45 1,7 3,22 13,23 9,0 12,-15 14,-21 3,-6 5,-13 8,-19 2,-6 5,-21 10,-26 -2,-1 -4,-1 -6,-2 0,0 0,0 0,1 1,-1 2,-3 2,-4 0,0 0,0 0,0 -4,1 -2,8 2,7 0,0 0,0 0,0 2,0 3,-2 2,-4 0,0 0,0 0,-1 -1,-2 -4,-3 -6,-2 -5,5 -6,13 -8,19 -4,12 -9,23 -14,34 -3,6 -3,14 -9,3 -2,-4 -2,-10 -3,-14 -2,-13 -3,-25 -2,-38 0,-4 -7,-4 -7,0 v 0 z"
   class="fil12" /><path
   style="fill:#282828;fill-rule:nonzero"
   inkscape:connector-curvature="0"
   id="path41625"
   d="m 1941.0303,1342.8215 c 5,15 10,31 17,45 2,5 8,16 15,14 8,-1 7,-13 8,-18 2,-19 3,-38 4,-57 0,-4 -7,-4 -7,0 0,9 -1,18 -2,27 -1,8 1,23 -3,30 -7,13 -13,-9 -16,-16 -3,-9 -7,-19 -10,-28 -1,-4 -8,-2 -7,2 v 0 z"
   class="fil12" /><path
   style="fill:#282828;fill-rule:nonzero"
   inkscape:connector-curvature="0"
   id="path41627"
   d="m 2004.0303,1308.8215 c 8,11 16,22 24,32 5,6 14,20 23,20 7,0 8,-6 8,-11 -1,-16 -4,-32 -7,-47 -1,-4 -8,-3 -7,2 2,10 4,19 5,29 0,3 3,13 2,16 1,4 -1,4 -6,1 -1,-1 -3,-2 -4,-4 -13,-12 -23,-27 -33,-41 -3,-4 -9,0 -6,4 v 0 z"
   class="fil12" /><path
   style="fill:#282828;fill-rule:nonzero"
   inkscape:connector-curvature="0"
   id="path41629"
   d="m 1651.0303,1093.8215 c -7,10 -12,22 -14,34 -1,4 6,6 7,2 2,-12 7,-23 14,-33 3,-4 -3,-7 -6,-4 v 0 z"
   class="fil12" /><path
   style="fill:#282828;fill-rule:nonzero"
   inkscape:connector-curvature="0"
   id="path41631"
   d="m 1636.0303,1146.8215 c -2,11 -2,21 0,32 1,4 7,3 7,-2 -1,-9 -1,-19 0,-28 1,-4 -6,-6 -7,-2 z"
   class="fil12" /><path
   style="fill:#282828;fill-rule:nonzero"
   inkscape:connector-curvature="0"
   id="path41633"
   d="m 1670.0303,1129.8215 c -4,9 -5,19 -4,29 0,4 7,4 7,0 -1,-9 0,-18 4,-27 2,-4 -5,-6 -7,-2 z"
   class="fil12" /><path
   style="fill:#282828;fill-rule:nonzero"
   inkscape:connector-curvature="0"
   id="path41635"
   d="m 1607.0303,1114.8215 c -20,-13 -36,-34 -46,-56 -4,-7 -19,-42 -3,-45 8,-1 23,16 28,20 10,9 19,19 34,20 13,1 27,-5 37,-13 20,-15 40,-44.99997 40,-70.99997 0,-29 -26,-51 -38,-75 -14,-29 -25,-65 -14,-96 14,-40 64,-60 103,-59 41,2 74,28 80,69 6,38 -8,75 -11,113 -2,23 6,54 30,63 23,8 48,-15 62,-31 16,-19 21,-42 25,-66 7,-39 13,-79 43,-107 42,-40 130,-34 156,23 17,35 2,80 -18,110 -15,23 -37,31 -58,47 -17,12 -21,33 -14,52.99997 9,24 36,35 60,36 12,0 24,-2 35,-7 8,-4 16,-9 24,-12 5,-2 16,-7 22,-5 17,7 -30,51 -38,57 -20,17 -43,30 -68,36 -4,1 -3,8 2,7 40,-9 77,-36 101,-68 9,-11 27,-41 -1,-38 -29,2 -49,27 -80,24 -30,-3 -71,-34 -47,-67.99997 12,-17 38,-23 53,-38 25,-24 41,-62 42,-97 2,-58 -51,-92 -105,-92 -29,0 -57,12 -76,34 -27,29 -32,67 -39,104 -6,29 -12,55 -36,75 -20,17 -42,27 -59,1 -12,-19 -10,-38 -6,-59 6,-36 16,-75 5,-111 -10,-30 -36,-51 -67,-58 -35,-7 -74,4 -101,26 -24,20 -33,50 -29,80 4,34 20,64 40,91 15,22 20,40 8,64 -10,21.99997 -26,44.99997 -52,49.99997 -27,6 -41,-21 -61,-34 -7,-5 -17,-10 -23,-1 -10,15 4,44 11,57 11,20 26,40 46,53 4,2 7,-4 4,-6 v 0 z"
   class="fil12" /><path
   style="fill:#282828;fill-rule:nonzero"
   inkscape:connector-curvature="0"
   id="path41637"
   d="m 1694.0303,812.82153 c 0,0 -9,7 -4,20 4,13 15,12 15,12 0,0 6,-10 1,-18 -5,-9 -12,-14 -12,-14 z"
   class="fil12" /><path
   style="fill:#282828;fill-rule:nonzero"
   inkscape:connector-curvature="0"
   id="path41639"
   d="m 1707.0303,818.82153 c -10,-13 -28,-13 -40,-4 -10,7 -13,23 -9,35 6,15 25,18 38,11 15,-8 19,-27 11,-41 -2,-4 -8,0 -6,4 6,11 4,25 -7,31 -10,6 -27,4 -30,-9 -2,-7 -1,-18 5,-23 9,-7 24,-10 32,1 3,4 9,0 6,-4 z"
   class="fil12" /><path
   style="fill:#282828;fill-rule:nonzero"
   inkscape:connector-curvature="0"
   id="path41641"
   d="m 1799.0303,800.82153 c 0,0 -10,5 -9,18 1,13 12,15 12,15 0,0 8,-8 6,-18 -3,-10 -9,-16 -9,-16 z"
   class="fil12" /><path
   style="fill:#282828;fill-rule:nonzero"
   inkscape:connector-curvature="0"
   id="path41643"
   d="m 1810.0303,809.82153 c -6,-14 -21,-19 -35,-15 -13,3 -20,16 -20,29 -1,17 17,27 33,24 17,-3 27,-21 22,-38 -1,-4 -8,-2 -7,2 4,13 -4,27 -18,29 -14,2 -26,-7 -23,-21 2,-9 6,-16 15,-18 10,-3 22,-1 26,10 2,4 8,2 7,-2 z"
   class="fil12" /><path
   style="fill:#282828;fill-rule:nonzero"
   inkscape:connector-curvature="0"
   id="path41645"
   d="m 1698.0303,878.82153 c 14,1 28,3 42,3 12,0 21,-4 33,-7 2,-1 3,-2 5,-3 -1,4 -2,7 -5,10 -6,7 -14,10 -22,12 -20,5 -40,4 -49,-17 -2,-4 -8,-2 -7,2 10,24 32,29 55,23 12,-3 23,-8 30,-18 3,-4 9,-14 5,-19 -1,-1 -2,-2 -4,-2 -14,5 -23,12 -39,12 -15,1 -30,-2 -45,-3 -4,0 -4,7 0,7 v 0 z"
   class="fil12" /><path
   style="fill:#282828;fill-rule:nonzero"
   inkscape:connector-curvature="0"
   id="path41647"
   d="m 1708.0303,878.82153 c 2,5 5,17 11,19 7,1 13,-10 17,-14 -2,0 -4,0 -5,-1 3,4 9,15 15,15 7,0 12,-12 16,-16 -2,0 -4,0 -5,1 4,3 11,12 17,10 6,-2 8,-15 9,-20 2,-4 -5,-6 -7,-2 -1,2 -3,10 -4,11 -4,3 -8,-2 -11,-4 -2,-2 -4,-1 -5,1 -2,3 -5,9 -9,9 -5,0 -6,-4 -9,-8 -1,-2 -4,-2 -5,-1 -8,9 -11,14 -16,-1 -1,-4 -8,-2 -7,2 v 0 z"
   class="fil12" /><path
   style="fill:#282828;fill-rule:nonzero"
   inkscape:connector-curvature="0"
   id="path41649"
   d="m 1971.0303,863.82153 c -15,44 48,76 81,53 2,-1 3,-5 0,-6 -17,-8 -34,-16 -50,-25 -9,-5 -15,-11 -21,-19 -2,-3 -2,-4 -5,-5 -2,-1 -4,1 -4,2 0,0 0,1 0,1 0,2 0,4 2,4 0,0 0,0 1,0 4,1 6,-6 2,-7 0,0 0,0 -1,0 1,1 2,3 2,4 0,0 0,-1 0,-1 -1,1 -3,2 -4,2 1,0 6,10 8,12 5,5 10,8 16,11 16,9 33,17 50,25 0,-2 0,-4 0,-6 -29,20 -84,-7 -71,-45 1,-4 -5,-6 -7,-2 v 0 z"
   class="fil12" /><path
   style="fill:#282828;fill-rule:nonzero"
   inkscape:connector-curvature="0"
   id="path41651"
   d="m 1983.0303,878.82153 c -3,7 -4,14 -4,21 0,3 3,4 5,3 6,-3 12,-5 18,-7 -1,-1 -3,-3 -4,-4 -2,6 -2,12 -2,19 0,2 2,4 4,3 9,-3 17,-6 25,-11 -2,-1 -3,-2 -5,-3 0,5 -1,17 4,20 5,3 13,-5 17,-8 -2,0 -3,-1 -5,-1 0,0 0,-1 0,-1 -2,4 4,7 6,4 1,-2 1,-3 0,-6 -1,-2 -3,-2 -5,-1 -1,0 -10,8 -11,7 -1,0 0,-12 0,-13 0,-3 -3,-4 -5,-3 -7,4 -15,7 -23,10 1,1 3,2 4,3 -1,-6 0,-11 2,-17 1,-2 -2,-5 -4,-4 -7,2 -13,5 -19,8 2,1 3,2 5,3 0,-7 1,-13 3,-19 2,-4 -5,-6 -7,-2 v 0 z"
   class="fil12" /><path
   style="fill:#282828;fill-rule:nonzero"
   inkscape:connector-curvature="0"
   id="path41653"
   d="m 1986.0303,828.82153 c 0,0 11,-1 16,-13 4,-13 -5,-19 -5,-19 0,0 -11,4 -12,14 -1,10 1,18 1,18 z"
   class="fil12" /><path
   style="fill:#282828;fill-rule:nonzero"
   inkscape:connector-curvature="0"
   id="path41655"
   d="m 1980.0303,817.82153 c -1,15 12,25 26,27 14,2 26,-8 31,-20 7,-17 -9,-33 -26,-34 -16,-1 -29,11 -31,27 -1,4 6,4 7,0 2,-12 12,-21 24,-20 15,1 26,17 16,30 -6,8 -13,12 -23,10 -10,-2 -18,-9 -18,-20 0,-4 -7,-4 -7,0 z"
   class="fil12" /><path
   style="fill:#282828;fill-rule:nonzero"
   inkscape:connector-curvature="0"
   id="path41657"
   d="m 2060.0303,876.82153 c 0,0 11,-1 16,-13 4,-13 -5,-19 -5,-19 0,0 -11,4 -12,14 -2,10 1,18 1,18 z"
   class="fil12" /><path
   style="fill:#282828;fill-rule:nonzero"
   inkscape:connector-curvature="0"
   id="path41659"
   d="m 2054.0303,864.82153 c -1,15 12,25 26,27 14,2 26,-8 31,-20 7,-17 -9,-33 -26,-34 -16,-1 -29,11 -31,27 -1,4 6,4 7,0 2,-12 12,-21 24,-20 15,1 26,17 16,30 -6,8 -13,12 -23,10 -10,-2 -18,-9 -18,-20 0,-4 -7,-4 -7,0 z"
   class="fil12" /><path
   style="fill:#282828;fill-rule:nonzero"
   inkscape:connector-curvature="0"
   id="path41661"
   d="m 1636.0303,830.82153 c -13,1 -26,-5 -34,-15 -7,-9 -14,-33 -6,-43 -2,0 -4,0 -5,-1 11,19 31,28 52,25 4,-1 3,-7 -2,-7 -18,3 -35,-6 -44,-22 -1,-2 -4,-2 -5,-1 -10,12 -5,37 3,49 9,14 26,22 42,21 4,0 4,-7 0,-7 v 0 z"
   class="fil12" /><path
   style="fill:#282828;fill-rule:nonzero"
   inkscape:connector-curvature="0"
   id="path41663"
   d="m 1812.0303,765.82153 c 18,-7 32,-19 40,-37 -2,0 -4,0 -6,0 17,22 11,61 -16,73 -4,2 -1,8 4,6 30,-13 37,-58 18,-82 -1,-2 -5,-3 -6,0 -7,16 -19,28 -36,34 -4,2 -2,8 2,7 v 0 z"
   class="fil12" /><path
   style="fill:#282828;fill-rule:nonzero"
   inkscape:connector-curvature="0"
   id="path41665"
   d="m 1983.0303,772.82153 c -4,-27 11,-52 37,-61 -1,-1 -3,-3 -4,-4 -5,15 -8,33 2,47 3,4 9,0 6,-4 -9,-12 -5,-28 -1,-42 1,-2 -2,-5 -4,-4 -30,11 -46,39 -42,70 1,4 7,3 7,-2 v 0 z"
   class="fil12" /><path
   style="fill:#282828;fill-rule:nonzero"
   inkscape:connector-curvature="0"
   id="path41667"
   d="m 2125.0303,913.82153 c 23,5 45,-1 61,-18 2,-2 1,-6 -2,-6 -15,0 -31,0 -42,-11 -3,-3 -8,2 -5,5 13,13 30,13 47,13 -1,-2 -2,-4 -2,-6 -15,15 -35,20 -55,16 -4,-1 -6,6 -2,7 z"
   class="fil12" /><path
   style="fill:#282828;fill-rule:nonzero"
   inkscape:connector-curvature="0"
   id="path41669"
   d="m 1669.0303,798.82153 c 1,-4 3,-9 7,-11 5,-4 10,-1 11,5 1,4 7,3 7,-2 -1,-7 -8,-13 -15,-12 -9,1 -13,11 -16,18 -1,4 5,6 7,2 v 0 z"
   class="fil12" /><path
   style="fill:#282828;fill-rule:nonzero"
   inkscape:connector-curvature="0"
   id="path41671"
   d="m 1774.0303,785.82153 c 1,-3 3,-8 6,-9 5,-3 10,4 13,7 3,4 9,0 6,-4 -4,-6 -10,-13 -19,-11 -7,1 -11,9 -13,15 -2,4 5,6 7,2 z"
   class="fil12" /><path
   style="fill:#282828;fill-rule:nonzero"
   inkscape:connector-curvature="0"
   id="path41673"
   d="m 2011.0303,780.82153 c 6,-7 15,-7 20,1 2,4 8,0 6,-4 -7,-11 -22,-13 -31,-2 -3,3 2,8 5,5 z"
   class="fil12" /><path
   style="fill:#282828;fill-rule:nonzero"
   inkscape:connector-curvature="0"
   id="path41675"
   d="m 2116.0303,829.82153 c 11,-1 10,12 7,19 -2,4 4,8 6,4 3,-7 5,-14 2,-21 -3,-6 -8,-9 -15,-9 -4,0 -4,7 0,7 z"
   class="fil12" /><path
   style="fill:#282828;fill-rule:nonzero"
   inkscape:connector-curvature="0"
   id="path41677"
   d="m 2063.0303,1226.8215 c 0,7 -2,13 -4,20 -1,4 5,6 7,2 2,-7 4,-14 4,-21 0,-4 -7,-4 -7,0 v 0 z"
   class="fil12" /><path
   style="fill:#282828;fill-rule:nonzero"
   inkscape:connector-curvature="0"
   id="path41679"
   d="m 2051.0303,1263.8215 c -3,5 -5,10 -8,16 -2,4 4,8 6,4 3,-5 5,-10 8,-16 2,-4 -4,-8 -6,-4 z"
   class="fil12" /><path
   style="fill:#282828;fill-rule:nonzero"
   inkscape:connector-curvature="0"
   id="path41681"
   d="m 2043.0303,1237.8215 c -1,8 -5,14 -11,20 -3,3 2,8 5,5 7,-6 11,-14 13,-23 1,-4 -6,-6 -7,-2 z"
   class="fil12" /><path
   style="fill:#fff7ed;fill-rule:nonzero"
   inkscape:connector-curvature="0"
   id="path41683"
   d="m 1851.0303,1166.8215 c -11,0 -48,-25 -50,-54 -3,-28 41,-27 46,1 5,-24 47,-30 47,0 1,30 -32,52 -43,52 z"
   class="fil24" /><path
   style="fill:#83c0b2;fill-rule:nonzero"
   inkscape:connector-curvature="0"
   id="path41685"
   d="m 636.68246,1522.9759 c -1,28 -2,49 -3,77 -1,17 -63,81 -94,82 -118,4 -236,-8 -350,-35 -16,-4 -35,-9 -42,-25 -5,-10 -4,-21 -3,-32 7,-74 15,-193 34,-226 18,-33 142,-61 142,-61 0,0 241,33 282,54 41,21 35,102 35,102 v 62 z"
   class="fil25" /><path
   style="fill:#b5dfd3;fill-rule:nonzero"
   inkscape:connector-curvature="0"
   id="path41687"
   d="m 705.68246,1360.9759 v 0 c 0,0 0,0 0,0 0,0 0,0 0,0 z"
   class="fil26" /><path
   style="fill:#b5dfd3;fill-rule:nonzero"
   inkscape:connector-curvature="0"
   id="path41689"
   d="m 719.68246,1374.9759 c -7,-8 -14,-14 -14,-14 -6,-4 -13,-8 -21,-13 -63,-34 -264,-83 -296,-87 -32,-5 -55,0 -85,22 -31,22 -62,42 -62,42 l 76,-20 28,1 c 19,-15 47,-11 70,-5 40,11 100,25 137,42 l 54,21 c 21,9 74,23 95,56 -18,16 -50,36 -68,43 -22,9 -54,27 -44,53 10,26 52,-3 63,-9 30,-17 57,-38 82,-61 18,-17 14,-44 -18,-71 z"
   class="fil26" /><path
   style="fill:#b5dfd3;fill-rule:nonzero"
   inkscape:connector-curvature="0"
   id="path41691"
   d="m 602.68246,1470.9759 c 0,0 -56,-3 -48,47 8,50 61,14 61,14 l -14,-61 z"
   class="fil26" /><path
   style="fill:#fdbc47;fill-rule:nonzero"
   inkscape:connector-curvature="0"
   id="path41693"
   d="m 427.68246,1475.9759 c 50,-5 81,44 63,91 -18,47 -102,38 -117,2 -14,-36 3,-87 54,-93 z"
   class="fil2" /><path
   style="fill:#e5654f;fill-rule:nonzero"
   inkscape:connector-curvature="0"
   id="path41695"
   d="m 430.68246,1506.9759 c 25,-3 40,21 31,44 -9,23 -50,19 -57,1 -7,-17 2,-43 26,-46 z"
   class="fil3" /><path
   style="fill:#282828;fill-rule:nonzero"
   inkscape:connector-curvature="0"
   id="path41697"
   d="m 632.68246,1522.9759 c -1,17 -1,33 -2,50 -1,13 1,26 -6,38 -12,20 -31,37 -50,51 -8,6 -17,12 -27,15 -15,5 -34,3 -49,3 -38,0 -75,-1 -113,-5 -41,-3 -81,-8 -121,-15 -19,-3 -37,-7 -56,-11 -16,-3 -35,-6 -49,-15 -25,-17 -11,-67 -8,-93 3,-28 5,-57 9,-85 3,-25 6,-50 14,-74 6,-19 17,-28 34,-37 33,-17 70,-26 106,-36 6,-2 3,-1 11,0 12,2 25,4 37,5 39,6 79,12 118,19 37,7 79,11 114,26 36,15 40,68 38,102 0,4 7,4 7,0 2,-32 -2,-73 -25,-97 -10,-10 -24,-14 -38,-18 -19,-5 -39,-9 -59,-13 -46,-9 -92,-16 -139,-23 -19,-3 -43,-10 -62,-8 -15,2 -31,8 -45,12 -23,7 -45,15 -66,25 -14,7 -28,16 -34,31 -9,22 -12,47 -16,71 -4,30 -7,60 -10,90 -1,16 -3,32 -4,48 -1,15 -5,32 2,46 12,25 50,28 74,33 40,8 81,15 122,20 48,6 97,9 146,9 33,0 62,3 90,-17 21,-14 41,-33 55,-54 5,-9 6,-14 7,-24 1,-23 2,-45 3,-68 0,-4 -7,-4 -7,0 v 0 z"
   class="fil12" /><path
   style="fill:#282828;fill-rule:nonzero"
   inkscape:connector-curvature="0"
   id="path41699"
   d="m 181.68246,1366.9759 c 94,16 189,34 281,59 23,6 49,13 62,34 12,20 10,46 9,68 -2,50 -4,100 -6,150 0,4 7,4 7,0 2,-55 6,-110 7,-165 1,-40 -11,-71 -50,-85 -47,-18 -99,-27 -148,-37 -53,-11 -107,-21 -160,-30 -4,-1 -6,6 -2,7 v 0 z"
   class="fil12" /><path
   style="fill:#282828;fill-rule:nonzero"
   inkscape:connector-curvature="0"
   id="path41701"
   d="m 527.68246,1454.9759 c 33,-17 66,-32 100,-45 4,-2 2,-8 -2,-7 -35,13 -68,29 -102,46 -4,2 0,8 4,6 z"
   class="fil12" /><path
   style="fill:#282828;fill-rule:nonzero"
   inkscape:connector-curvature="0"
   id="path41703"
   d="m 611.68246,1468.9759 c -32,-9 -66,17 -56,51 4,14 17,26 32,27 13,1 33,-6 36,-20 1,-4 -6,-6 -7,-2 -3,15 -27,18 -38,13 -12,-6 -18,-19 -17,-32 3,-24 27,-36 49,-30 4,1 6,-5 2,-7 v 0 z"
   class="fil12" /><path
   style="fill:#282828;fill-rule:nonzero"
   inkscape:connector-curvature="0"
   id="path41705"
   d="m 244.68246,1327.9759 c 12,-8 24,-16 35,-24 21,-14 41,-31 65,-38 25,-7 50,-1 75,5 59,13 117,29 175,47 27,8 54,17 80,29 27,13 71,39 71,73 0,17 -16,28 -28,38 -20,17 -41,32 -64,46 -12,7 -24,15 -37,18 -14,3 -25,-6 -21,-22 3,-13 17,-22 28,-28 32,-17 147,-66 85,-113 -4,-3 -7,3 -4,6 17,13 17,32 2,47 -15,15 -34,27 -52,37 -23,13 -68,24 -66,58 2,35 41,19 59,9 18,-10 35,-21 52,-34 16,-12 36,-25 47,-42 16,-22 1,-48 -15,-64 -24,-24 -55,-38 -85,-49 -66,-25 -135,-42 -203,-58 -26,-6 -55,-15 -83,-12 -26,3 -46,17 -67,31 -17,12 -34,23 -51,34 -4,2 0,8 4,6 v 0 z"
   class="fil12" /><path
   style="fill:#282828;fill-rule:nonzero"
   inkscape:connector-curvature="0"
   id="path41707"
   d="m 348.68246,1308.9759 c 30,-21 72,-3 105,5 34,9 68,18 99,32 4,2 8,-4 4,-6 -36,-16 -74,-26 -112,-36 -32,-8 -70,-23 -100,-2 -4,3 0,9 4,6 v 0 z"
   class="fil12" /><path
   style="fill:#282828;fill-rule:nonzero"
   inkscape:connector-curvature="0"
   id="path41709"
   d="m 607.68246,1366.9759 c 15,6 30,12 45,17 14,6 41,14 46,30 2,4 8,2 7,-2 -5,-14 -21,-22 -34,-27 -20,-9 -41,-15 -61,-24 -4,-2 -8,4 -4,6 v 0 z"
   class="fil12" /><path
   style="fill:#282828;fill-rule:nonzero"
   inkscape:connector-curvature="0"
   id="path41711"
   d="m 427.68246,1479.9759 c 40,-3 69,29 64,68 -4,34 -32,50 -64,47 -29,-2 -53,-17 -55,-48 -2,-35 21,-63 56,-68 4,-1 3,-7 -2,-7 -39,5 -65,40 -61,79 4,34 33,50 65,51 37,1 66,-20 68,-58 2,-42 -30,-74 -71,-71 -4,0 -4,7 0,7 z"
   class="fil12" /><path
   style="fill:#282828;fill-rule:nonzero"
   inkscape:connector-curvature="0"
   id="path41713"
   d="m 430.68246,1510.9759 c 19,-1 33,15 29,34 -3,15 -16,20 -30,19 -14,-1 -24,-8 -25,-23 -1,-16 10,-28 26,-30 4,-1 3,-7 -2,-7 -20,3 -33,21 -31,41 2,17 17,26 34,26 18,1 33,-10 35,-28 2,-22 -14,-40 -37,-39 -4,0 -4,7 0,7 z"
   class="fil12" /><path
   style="fill:#282828;fill-rule:nonzero"
   inkscape:connector-curvature="0"
   id="path41715"
   d="m 206.68246,1452.9759 c 17,2 35,6 52,10 4,1 6,-6 2,-7 -18,-5 -35,-8 -54,-11 -4,-1 -4,6 0,7 v 0 z"
   class="fil12" /><path
   style="fill:#282828;fill-rule:nonzero"
   inkscape:connector-curvature="0"
   id="path41717"
   d="m 203.68246,1481.9759 c 15,3 30,6 45,11 4,1 6,-5 2,-7 -15,-4 -30,-8 -45,-11 -4,-1 -6,6 -2,7 z"
   class="fil12" /><path
   style="fill:#282828;fill-rule:nonzero"
   inkscape:connector-curvature="0"
   id="path41719"
   d="m 200.68246,1517.9759 c 13,1 26,4 40,6 4,1 6,-6 2,-7 -14,-3 -27,-5 -41,-7 -4,0 -4,6 0,7 v 0 z"
   class="fil12" /><path
   style="fill:#282828;fill-rule:nonzero"
   inkscape:connector-curvature="0"
   id="path41721"
   d="m 194.68246,1556.9759 c 15,1 30,4 44,8 4,1 6,-5 2,-7 -15,-5 -30,-7 -46,-8 -4,0 -4,7 0,7 z"
   class="fil12" /><path
   style="fill:#282828;fill-rule:nonzero"
   inkscape:connector-curvature="0"
   id="path41723"
   d="m 288.68246,1469.9759 c 14,2 29,4 43,6 4,1 6,-6 2,-7 -14,-2 -29,-4 -43,-6 -4,-1 -6,6 -2,7 z"
   class="fil12" /><path
   style="fill:#282828;fill-rule:nonzero"
   inkscape:connector-curvature="0"
   id="path41725"
   d="m 288.68246,1501.9759 c 14,2 27,4 41,7 4,1 6,-6 2,-7 -14,-3 -28,-6 -43,-7 -4,-1 -4,6 0,7 z"
   class="fil12" /><path
   style="fill:#282828;fill-rule:nonzero"
   inkscape:connector-curvature="0"
   id="path41727"
   d="m 281.68246,1533.9759 c 14,2 27,4 41,8 4,1 6,-6 2,-7 -14,-4 -28,-6 -42,-8 -4,-1 -4,6 0,7 v 0 z"
   class="fil12" /><path
   style="fill:#282828;fill-rule:nonzero"
   inkscape:connector-curvature="0"
   id="path41729"
   d="m 276.68246,1570.9759 c 14,4 28,6 42,7 4,0 4,-7 0,-7 -14,-1 -27,-3 -40,-6 -4,-1 -6,6 -2,7 v 0 z"
   class="fil12" /><path
   style="fill:#282828;fill-rule:nonzero"
   inkscape:connector-curvature="0"
   id="path41731"
   d="m 370.68246,1150.9759 c 4,9 9,18 15,25 2,2 4,1 5,-1 3,-4 6,-7 11,-10 2,-1 2,-3 1,-5 -4,-8 -8,-16 -12,-24 -1,-1 -2,-2 -3,-2 -7,0 -12,3 -15,8 -3,4 3,7 6,4 2,-3 5,-5 9,-5 -1,-1 -2,-1 -3,-2 4,8 8,16 12,24 0,-2 1,-3 1,-5 -5,3 -9,8 -13,13 2,0 4,0 5,-1 -6,-7 -11,-14 -14,-22 -2,-4 -8,-2 -7,2 v 0 z"
   class="fil12" /><path
   style="fill:#282828;fill-rule:nonzero"
   inkscape:connector-curvature="0"
   id="path41733"
   d="m 392.68246,1171.9759 c 54,76 102,157 160,230 3,3 8,-1 5,-5 -58,-72 -105,-153 -159,-228 -3,-4 -9,0 -6,4 v 0 z"
   class="fil12" /><path
   style="fill:#e5654f;fill-rule:nonzero"
   inkscape:connector-curvature="0"
   id="path41751"
   d="m 1847.1837,542.35056 c 0,-8 0,-16 0,-23 -4,3 -9,5 -14,7 3,6 8,12 13,16 z"
   class="fil3" /><path
   style="fill:#fff7ed;fill-rule:nonzero"
   inkscape:connector-curvature="0"
   id="path41753"
   d="m 1734.1837,281.35056 c -74,4 -144,52 -153,130 -3,25 1,55 16,76 15,21 41,32 65,37 53,11 116,3 163,-24 45,-26 56,-78 42,-126 -18,-60 -71,-95 -133,-93 z m 37,65 c 4,16 20,1 26,-2 3,-2 6,-3 10,-3 9,0 15,8 20,15 2,3 -3,6 -6,3 -3,-4 -8,-10 -13,-11 -7,-1 -11,3 -16,6 -4,3 -8,5 -12,6 -9,1 -14,-4 -16,-12 -1,-4 5,-6 6,-2 z m -15,1 c 4,4 7,10 7,16 0,4 -6,4 -6,0 0,-4 -2,-9 -5,-12 -3,-3 2,-7 5,-5 z m -127,45 c 2,-9 7,-17 16,-21 4,-2 9,-2 14,-2 7,0 11,2 17,-3 3,-2 4,-6 6,-9 2,-4 7,0 6,3 -4,7 -9,15 -18,16 -8,1 -14,-2 -22,1 -7,3 -12,9 -13,17 -1,4 -7,2 -6,-2 z m 125,107 c -80,16 -133,-18 -111,-56 21,-38 55,-14 74,-7 14,5 30,0 41,-9 21,-18 57,-36 73,-12 16,24 4,69 -76,85 z"
   class="fil24" /><path
   style="fill:#e5654f;fill-rule:nonzero"
   inkscape:connector-curvature="0"
   id="path41755"
   d="m 1735.1837,262.35056 c -66,4 -130,38 -160,95 0,1 -1,2 -2,3 -8,16 -13,33 -15,51 -3,29 1,64 18,88 17,24 46,36 74,42 61,13 134,4 189,-27 52,-30 65,-89 49,-144 -20,-69 -82,-111 -153,-108 z m 132,205 c -12,22 -33,37 -56,47 -53,23 -124,30 -178,8 -54,-22 -69,-83 -53,-137 20,-69 85,-106 154,-111 72,-3 132,46 144,118 4,25 2,52 -10,75 z"
   class="fil3" /><path
   style="fill:#e5654f;fill-rule:nonzero"
   inkscape:connector-curvature="0"
   id="path41757"
   d="m 1618.1837,569.35056 c 8,-7 16,-15 24,-22 -6,-2 -11,-3 -17,-5 -4,9 -7,18 -8,28 z"
   class="fil3" /><path
   style="fill:#e5654f;fill-rule:nonzero"
   inkscape:connector-curvature="0"
   id="path41759"
   d="m 1838.1837,287.35056 c 6,5 12,10 18,15 3,-4 5,-8 7,-12 0,0 0,0 0,0 -6,-4 -11,-9 -17,-13 -2,4 -5,7 -8,10 z"
   class="fil3" /><path
   style="fill:#e5654f;fill-rule:nonzero"
   inkscape:connector-curvature="0"
   id="path41761"
   d="m 1575.1837,326.35056 c -5,5 -9,11 -14,16 0,0 0,0 0,0 3,4 6,7 10,10 4,-7 8,-13 12,-19 -3,-2 -6,-5 -8,-7 z"
   class="fil3" /><path
   style="fill:#e5654f;fill-rule:nonzero"
   inkscape:connector-curvature="0"
   id="path41763"
   d="m 1572.1837,319.35056 c 0,-1 1,-2 2,-2 9,-11 18,-21 27,-32 -1,-1 -2,-3 -3,-4 -7,6 -14,13 -20,21 -3,3 -7,-1 -5,-5 6,-8 13,-15 21,-21 -7,-9 -18,-15 -29,-16 -19,-1 -36,15 -48,28 -12,13 -23,30 -22,48 1,11 6,21 14,28 1,1 2,2 3,2 18,-19 36,-39 53,-60 3,-3 7,1 5,5 -17,21 -34,40 -53,60 3,2 6,4 9,5 2,0 7,-9 10,-13 7,-9 14,-17 22,-26 5,-6 10,-12 15,-18 z m -4,-42 c -8,-2 -15,0 -20,6 -3,3 -7,-1 -5,-5 6,-8 17,-11 26,-8 4,1 2,7 -2,6 z"
   class="fil3" /><path
   style="fill:#e5654f;fill-rule:nonzero"
   inkscape:connector-curvature="0"
   id="path41765"
   d="m 1821.1837,230.35056 c 20,17 42,33 63,49 3,2 0,8 -3,6 -22,-16 -44,-32 -65,-50 0,0 0,0 0,0 -1,2 -2,5 -3,7 11,9 22,17 33,26 1,0 2,1 2,2 7,6 14,11 21,17 6,4 32,30 36,29 3,-1 5,-3 8,-6 -8,-6 -15,-11 -23,-17 -3,-2 0,-8 3,-6 8,6 16,12 23,18 2,-3 4,-6 5,-8 7,-13 7,-27 0,-40 -14,-25 -58,-60 -88,-42 -6,4 -11,9 -15,15 1,0 2,0 2,1 z m 88,21 c 9,6 13,16 11,27 -1,4 -7,2 -6,-2 2,-7 -1,-15 -8,-20 -3,-2 0,-8 3,-6 z"
   class="fil3" /><path
   style="fill:#282828;fill-rule:nonzero"
   inkscape:connector-curvature="0"
   id="path41767"
   d="m 1735.1837,256.35056 c -78,5 -153,48 -177,126 -18,61 -2,131 60,157 63,26 144,18 206,-8 26,-11 51,-28 64,-53 14,-26 17,-57 12,-86 -13,-83 -82,-139 -165,-136 -4,0 -4,7 0,7 71,-3 132,39 153,107 17,55 4,115 -48,145 -55,31 -128,40 -189,27 -28,-6 -56,-18 -73,-42 -18,-25 -22,-61 -18,-90 11,-89 91,-142 175,-147 4,0 4,-7 0,-7 z"
   class="fil12" /><path
   style="fill:#282828;fill-rule:nonzero"
   inkscape:connector-curvature="0"
   id="path41769"
   d="m 1734.1837,275.35056 c -69,4 -134,42 -154,110 -16,53 -2,114 52,137 55,23 126,16 179,-7 23,-10 44,-24 56,-46 12,-23 14,-50 11,-75 -11,-72 -71,-121 -144,-118 -4,0 -4,7 0,7 62,-2 115,34 133,93 14,48 3,99 -42,125 -47,27 -109,34 -161,24 -24,-5 -50,-15 -66,-36 -15,-21 -19,-50 -16,-75 8,-79 78,-127 153,-131 4,0 4,-7 0,-7 z"
   class="fil12" /><path
   style="fill:#282828;fill-rule:nonzero"
   inkscape:connector-curvature="0"
   id="path41771"
   d="m 1620.1837,536.35056 c -6,13 -11,26 -9,41 0,3 4,3 6,2 11,-10 22,-20 33,-30 3,-3 -2,-8 -5,-5 -11,10 -22,20 -33,30 2,1 4,1 6,2 -2,-12 3,-24 8,-35 2,-4 -4,-8 -6,-4 v 0 z"
   class="fil12" /><path
   style="fill:#282828;fill-rule:nonzero"
   inkscape:connector-curvature="0"
   id="path41773"
   d="m 1827.1837,528.35056 c 5,10 12,18 21,23 2,1 5,0 5,-3 0,-11 0,-22 0,-33 0,-4 -7,-4 -7,0 0,11 0,22 0,33 2,-1 3,-2 5,-3 -8,-5 -15,-12 -19,-21 -2,-4 -8,-1 -6,4 v 0 z"
   class="fil12" /><path
   style="fill:#282828;fill-rule:nonzero"
   inkscape:connector-curvature="0"
   id="path41775"
   d="m 1602.1837,283.35056 c -15,17 -29,34 -44,52 -7,9 -15,17 -22,26 -2,2 -10,14 -11,14 -4,0 -13,-8 -16,-10 -9,-8 -15,-18 -15,-30 -1,-32 39,-78 72,-74 15,2 27,14 34,27 2,4 8,0 6,-4 -6,-12 -16,-23 -29,-28 -29,-12 -58,15 -74,36 -14,19 -23,43 -10,65 7,11 18,20 30,25 1,0 3,0 3,-1 26,-31 53,-62 79,-93 3,-3 -2,-8 -5,-5 z"
   class="fil12" /><path
   style="fill:#282828;fill-rule:nonzero"
   inkscape:connector-curvature="0"
   id="path41777"
   d="m 1516.1837,372.35056 c 18,-20 36,-40 53,-60 3,-3 -2,-8 -5,-5 -17,21 -35,41 -53,60 -3,3 2,8 5,5 z"
   class="fil12" /><path
   style="fill:#282828;fill-rule:nonzero"
   inkscape:connector-curvature="0"
   id="path41779"
   d="m 1578.1837,302.35056 c 7,-8 14,-16 22,-23 3,-3 -2,-8 -5,-5 -8,7 -15,15 -22,23 -3,3 2,8 5,5 z"
   class="fil12" /><path
   style="fill:#282828;fill-rule:nonzero"
   inkscape:connector-curvature="0"
   id="path41781"
   d="m 1556.1837,347.35056 c 4,5 9,9 14,13 3,3 8,-2 5,-5 -5,-4 -10,-9 -14,-13 -3,-3 -8,2 -5,5 z"
   class="fil12" /><path
   style="fill:#282828;fill-rule:nonzero"
   inkscape:connector-curvature="0"
   id="path41783"
   d="m 1572.1837,323.35056 c 4,5 8,8 13,12 4,3 7,-4 4,-6 -4,-3 -8,-7 -12,-11 -3,-3 -8,1 -5,5 z"
   class="fil12" /><path
   style="fill:#282828;fill-rule:nonzero"
   inkscape:connector-curvature="0"
   id="path41785"
   d="m 1807.1837,245.35056 c 32,25 63,51 95,76 1,1 3,1 4,1 12,-8 22,-21 26,-35 8,-31 -19,-56 -43,-71 -19,-12 -44,-20 -64,-5 -9,7 -17,19 -20,31 -1,4 6,6 7,2 3,-12 11,-24 21,-30 30,-17 74,18 87,43 7,13 7,27 -1,40 -3,4 -10,17 -16,18 -4,1 -28,-22 -35,-28 -19,-16 -39,-31 -58,-47 -3,-3 -8,2 -5,5 z"
   class="fil12" /><path
   style="fill:#282828;fill-rule:nonzero"
   inkscape:connector-curvature="0"
   id="path41787"
   d="m 1884.1837,279.35056 c -22,-15 -43,-32 -63,-49 -3,-3 -8,2 -5,5 21,17 42,34 65,50 4,3 7,-3 4,-6 v 0 z"
   class="fil12" /><path
   style="fill:#282828;fill-rule:nonzero"
   inkscape:connector-curvature="0"
   id="path41789"
   d="m 1862.1837,290.35056 c -2,4 -4,8 -8,12 -3,3 2,8 5,5 3,-4 6,-9 9,-14 2,-4 -4,-7 -6,-4 v 0 z"
   class="fil12" /><path
   style="fill:#282828;fill-rule:nonzero"
   inkscape:connector-curvature="0"
   id="path41791"
   d="m 1842.1837,269.35056 c -3,5 -6,9 -9,13 -3,3 2,8 5,5 4,-4 8,-9 11,-14 2,-4 -4,-7 -6,-4 v 0 z"
   class="fil12" /><path
   style="fill:#282828;fill-rule:nonzero"
   inkscape:connector-curvature="0"
   id="path41793"
   d="m 1890.1837,292.35056 c 8,6 16,12 24,18 4,3 7,-3 4,-6 -8,-6 -16,-12 -24,-18 -4,-3 -7,3 -4,6 z"
   class="fil12" /><path
   style="fill:#282828;fill-rule:nonzero"
   inkscape:connector-curvature="0"
   id="path41795"
   d="m 1636.1837,394.35056 c 1,-8 5,-14 13,-17 7,-3 14,0 22,-1 9,-1 14,-9 18,-16 2,-4 -4,-7 -6,-4 -2,3 -3,7 -6,9 -6,6 -11,4 -17,3 -5,0 -9,0 -14,2 -9,4 -15,12 -16,21 -1,4 6,6 7,2 v 0 z"
   class="fil12" /><path
   style="fill:#282828;fill-rule:nonzero"
   inkscape:connector-curvature="0"
   id="path41797"
   d="m 1764.1837,348.35056 c 2,8 7,13 16,12 5,-1 9,-3 12,-6 5,-3 9,-7 16,-6 5,1 10,7 13,11 3,4 9,0 6,-4 -5,-7 -11,-14 -20,-15 -4,0 -7,1 -10,3 -6,3 -22,18 -26,3 -1,-4 -8,-2 -7,2 z"
   class="fil12" /><path
   style="fill:#282828;fill-rule:nonzero"
   inkscape:connector-curvature="0"
   id="path41799"
   d="m 1751.1837,352.35056 c 3,3 5,7 5,12 1,4 7,4 7,0 -1,-6 -3,-12 -7,-16 -3,-3 -8,2 -5,5 v 0 z"
   class="fil12" /><path
   style="fill:#282828;fill-rule:nonzero"
   inkscape:connector-curvature="0"
   id="path41801"
   d="m 1716.1837,436.35056 c 14,5 30,0 41,-9 21,-18 57,-36 73,-12 16,24 4,69 -76,85 -80,16 -133,-18 -111,-56 21,-38 55,-14 74,-7 z"
   class="fil12" /><path
   style="fill:#ed757e;fill-rule:nonzero"
   inkscape:connector-curvature="0"
   id="path41803"
   d="m 1743.1837,484.35056 c -10,5 -35,-14 -29,-26 6,-12 22,5 22,5 0,0 3,-15 17,-10 14,5 0,27 -10,31 z"
   class="fil20" /><path
   style="fill:#282828;fill-rule:nonzero"
   inkscape:connector-curvature="0"
   id="path41805"
   d="m 1905.1837,257.35056 c 6,4 9,12 8,19 -1,4 6,6 7,2 2,-11 -2,-21 -11,-27 -4,-3 -7,3 -4,6 z"
   class="fil12" /><path
   style="fill:#282828;fill-rule:nonzero"
   inkscape:connector-curvature="0"
   id="path41807"
   d="m 1547.1837,284.35056 c 5,-6 12,-8 20,-6 4,1 6,-6 2,-7 -10,-3 -20,0 -27,8 -3,3 2,8 5,5 z"
   class="fil12" /><path
   style="fill:#282828;fill-rule:nonzero"
   inkscape:connector-curvature="0"
   id="path41813"
   d="m 1951.1837,279.35056 c 9,18 3,38 -14,48 -4,2 0,8 4,6 20,-12 27,-36 16,-58 -2,-4 -8,0 -6,4 z"
   class="fil12" /><path
   style="fill:#282828;fill-rule:nonzero"
   inkscape:connector-curvature="0"
   id="path41815"
   d="m 1973.1837,295.35056 c 2,8 1,15 -3,22 -2,4 4,7 6,4 5,-9 6,-18 4,-28 -1,-4 -8,-3 -7,2 z"
   class="fil12" /><path
   style="fill:#fff7ed;fill-rule:nonzero"
   inkscape:connector-curvature="0"
   id="path41817"
   d="m 446.32736,840.79217 c -7,59 -13,119 -19,178.00003 0,0 0,0 0,0 19,-3 37,-9 54,-17 0,0 0,0 0,0 0,-53.00003 1,-107.00003 2,-160.00003 -12,0 -25,-1 -37,-1 z"
   class="fil24" /><path
   style="fill:#fff7ed;fill-rule:nonzero"
   inkscape:connector-curvature="0"
   id="path41819"
   d="m 419.32736,1018.7922 c 6,-60.00003 12,-119.00003 19,-178.00003 -15,-1 -29,-1 -44,-2 0,0 0,0 0,0 -9,61 -11,123 -18,184.00003 2,0 3,0 5,0 13,0 26,-1 39,-2 0,-1 0,-1 0,-2 z"
   class="fil24" /><path
   style="fill:#fff7ed;fill-rule:nonzero"
   inkscape:connector-curvature="0"
   id="path41821"
   d="m 385.32736,837.79217 c -13,-1 -26,-2 -40,-2 -9,61 -18,121 -27,182.00003 0,0 0,0 0,1 1,0 2,0 3,0 15,2 31,4 46,4 7,-61.00003 10,-123.00003 18,-185.00003 z"
   class="fil24" /><path
   style="fill:#fff7ed;fill-rule:nonzero"
   inkscape:connector-curvature="0"
   id="path41823"
   d="m 287.32736,832.79217 c -5,-1 -11,-1 -16,-3 -12,-3 -6,-5 -10,2 -7,11 -7,32 -9,44 -5,36 -11,90 16,120 3,-55 9,-109 18,-163 z"
   class="fil24" /><path
   style="fill:#fff7ed;fill-rule:nonzero"
   inkscape:connector-curvature="0"
   id="path41825"
   d="m 310.32736,1014.7922 c 9,-60.00003 18,-120.00003 27,-180.00003 -13,0 -27,0 -41,-1 -10,56 -16,112 -18,169.00003 0,0 0,1 0,1 10,7 21,10 33,12 0,0 0,-1 0,-2 z"
   class="fil24" /><path
   style="fill:#fff7ed;fill-rule:nonzero"
   inkscape:connector-curvature="0"
   id="path41827"
   d="m 539.32736,841.79217 c -1,35 4,69 3,103 20,-31 29,-69 19,-104 -7,0 -15,0 -22,0 z"
   class="fil24" /><path
   style="fill:#fff7ed;fill-rule:nonzero"
   inkscape:connector-curvature="0"
   id="path41829"
   d="m 489.32736,997.79217 c 16,-9 32,-23 44,-39 3,-39 -4,-78 -3,-117 -13,0 -26,0 -39,0 -1,52 -2,104 -2,156 z"
   class="fil24" /><path
   style="fill:#fdbc47;fill-rule:nonzero"
   inkscape:connector-curvature="0"
   id="path41831"
   d="m 288.32736,828.79217 c -10,57 -17,115 -19,174.00003 0,4 7,4 7,0 2,-58.00003 9,-115.00003 19,-172.00003 1,-4 -6,-6 -7,-2 z"
   class="fil2" /><path
   style="fill:#8ba150;fill-rule:nonzero"
   inkscape:connector-curvature="0"
   id="path41833"
   d="m 338.32736,832.79217 c -9,61 -18,121 -27,182.00003 -1,4 6,6 7,2 9,-61.00003 18,-121.00003 27,-182.00003 1,-4 -6,-6 -7,-2 z"
   class="fil28" /><path
   style="fill:#f4855f;fill-rule:nonzero"
   inkscape:connector-curvature="0"
   id="path41835"
   d="m 386.32736,835.79217 c -5,38 -9,76 -13,115 -2,24 -3,52.00003 -6,74.00003 -1,4 6,6 7,2 9,-62.00003 10,-126.00003 19,-188.00003 1,-4 -6,-6 -7,-2 v 0 z"
   class="fil29" /><path
   style="fill:#fdbc47;fill-rule:nonzero"
   inkscape:connector-curvature="0"
   id="path41837"
   d="m 439.32736,836.79217 c -7,60 -14,121 -19,181.00003 0,4 7,4 7,0 6,-60.00003 12,-121.00003 19,-181.00003 1,-4 -6,-4 -7,0 z"
   class="fil2" /><path
   style="fill:#8ba150;fill-rule:nonzero"
   inkscape:connector-curvature="0"
   id="path41839"
   d="m 484.32736,840.79217 c -2,54 -2,107 -2,161.00003 0,4 7,4 7,0 0,-54.00003 1,-107.00003 2,-161.00003 0,-4 -7,-4 -7,0 z"
   class="fil28" /><path
   style="fill:#f4855f;fill-rule:nonzero"
   inkscape:connector-curvature="0"
   id="path41841"
   d="m 532.32736,841.79217 c -2,39 6,79 2,118 0,4 7,4 7,0 3,-39 -4,-78 -2,-118 0,-4 -7,-4 -7,0 z"
   class="fil29" /><path
   style="fill:#3d693f;fill-rule:nonzero"
   inkscape:connector-curvature="0"
   id="path41843"
   d="m 295.32736,680.79217 c 6,24 5,51 7,75 2,25 4,49 6,74 0,4 7,4 7,0 -2,-27 -4,-54 -6,-81 -2,-23 -2,-48 -7,-70 -1,-4 -8,-3 -7,2 z"
   class="fil30" /><path
   style="fill:#3d693f;fill-rule:nonzero"
   inkscape:connector-curvature="0"
   id="path41845"
   d="m 431.32736,619.79217 c -14,70 -24,142 -29,213 0,4 7,4 7,0 5,-71 15,-141 29,-211 1,-4 -6,-6 -7,-2 z"
   class="fil30" /><path
   style="fill:#3d693f;fill-rule:nonzero"
   inkscape:connector-curvature="0"
   id="path41847"
   d="m 572.32736,663.79217 c -40,51 -62,113 -87,172 -2,4 4,8 6,4 25,-58 47,-120 86,-171 3,-3 -2,-8 -5,-5 z"
   class="fil30" /><path
   style="fill:#282828;fill-rule:nonzero"
   inkscape:connector-curvature="0"
   id="path41849"
   d="m 565.32736,833.79217 c -102,2 -204,-6 -306,-12 -2,0 -3,1 -3,3 -6,22 -10,45 -13,67 -3,34 -4,74 15,103 9,13.00003 22,22.00003 37,26.00003 29,8 61,10 91,9 55,-1 112,-17 149,-60.00003 30,-35 49,-89 34,-134 -1,-4 -8,-2 -7,2 20,60 -19,129 -70,159 -33,20.00003 -73,26.00003 -111,26.00003 -20,0 -39,-2 -58,-5 -15,-2 -30,-4 -43,-12 -38,-26.00003 -33,-88.00003 -27,-128.00003 2,-15 3,-32 9,-46 1,-1 0,-4 1,-5 4,-4 -8,3 4,1 10,-1 22,1 33,2 13,1 26,2 39,2 75,5 151,9 227,7 4,0 4,-7 0,-7 z"
   class="fil12" /><path
   style="fill:#3d693f;fill-rule:nonzero"
   inkscape:connector-curvature="0"
   id="path41851"
   d="m 307.32736,773.79217 c -2,-12 -57,-5 -56,15 1,20 58,-3 56,-15 z"
   class="fil30" /><path
   style="fill:#3d693f;fill-rule:nonzero"
   inkscape:connector-curvature="0"
   id="path41853"
   d="m 308.32736,728.79217 c -1,-12 -56,-10 -57,10 -1,20 58,3 57,-10 z"
   class="fil30" /><path
   style="fill:#3d693f;fill-rule:nonzero"
   inkscape:connector-curvature="0"
   id="path41855"
   d="m 302.32736,692.79217 c 0,-12 -56,-14 -58,6 -2,20 58,7 58,-6 z"
   class="fil30" /><path
   style="fill:#3d693f;fill-rule:nonzero"
   inkscape:connector-curvature="0"
   id="path41857"
   d="m 307.32736,775.79217 c -1,-12 55,-18 58,2 3,20 -57,10 -58,-2 z"
   class="fil30" /><path
   style="fill:#3d693f;fill-rule:nonzero"
   inkscape:connector-curvature="0"
   id="path41859"
   d="m 306.32736,730.79217 c -3,-12 51,-27 57,-8 7,19 -54,20 -57,8 z"
   class="fil30" /><path
   style="fill:#3d693f;fill-rule:nonzero"
   inkscape:connector-curvature="0"
   id="path41861"
   d="m 299.32736,691.79217 c -3,-12 51,-27 57,-8 7,19 -54,20 -57,8 z"
   class="fil30" /><path
   style="fill:#3d693f;fill-rule:nonzero"
   inkscape:connector-curvature="0"
   id="path41863"
   d="m 300.32736,685.79217 c 12,1 17,-55 -3,-58 -20,-3 -10,57 3,58 z"
   class="fil30" /><path
   style="fill:#3d693f;fill-rule:nonzero"
   inkscape:connector-curvature="0"
   id="path41865"
   d="m 429.32736,652.79217 c 1,-7 -45,-40 -57,-17 -12,22 55,25 57,17 z"
   class="fil30" /><path
   style="fill:#3d693f;fill-rule:nonzero"
   inkscape:connector-curvature="0"
   id="path41867"
   d="m 429.32736,653.79217 c -2,9 59,18 60,-3 1,-21 -59,-6 -60,3 z"
   class="fil30" /><path
   style="fill:#3d693f;fill-rule:nonzero"
   inkscape:connector-curvature="0"
   id="path41869"
   d="m 419.32736,700.79217 c 1,11 -63,16 -60,-8 3,-23 59,-1 60,8 z"
   class="fil30" /><path
   style="fill:#3d693f;fill-rule:nonzero"
   inkscape:connector-curvature="0"
   id="path41871"
   d="m 413.32736,755.79217 c 1,-7 -56,-30 -57,-6 -1,24 56,14 57,6 z"
   class="fil30" /><path
   style="fill:#3d693f;fill-rule:nonzero"
   inkscape:connector-curvature="0"
   id="path41873"
   d="m 421.32736,701.79217 c -3,10 57,31 60,7 3,-23 -57,-16 -60,-7 z"
   class="fil30" /><path
   style="fill:#3d693f;fill-rule:nonzero"
   inkscape:connector-curvature="0"
   id="path41875"
   d="m 413.32736,756.79217 c 1,-7 62,-15 57,8 -5,23 -57,0 -57,-8 z"
   class="fil30" /><path
   style="fill:#3d693f;fill-rule:nonzero"
   inkscape:connector-curvature="0"
   id="path41877"
   d="m 432.32736,635.79217 c 8,3 41,-53 14,-61 -27,-8 -26,57 -14,61 z"
   class="fil30" /><path
   style="fill:#3d693f;fill-rule:nonzero"
   inkscape:connector-curvature="0"
   id="path41879"
   d="m 569.32736,674.79217 c 9,5 51,-33 32,-47 -19,-14 -41,42 -32,47 z"
   class="fil30" /><path
   style="fill:#3d693f;fill-rule:nonzero"
   inkscape:connector-curvature="0"
   id="path41881"
   d="m 554.32736,695.79217 c -3,4 -53,-12 -40,-33 13,-21 45,26 40,33 z"
   class="fil30" /><path
   style="fill:#3d693f;fill-rule:nonzero"
   inkscape:connector-curvature="0"
   id="path41883"
   d="m 537.32736,733.79217 c -4,8 40,38 42,17 2,-20 -36,-31 -42,-17 z"
   class="fil30" /><path
   style="fill:#3d693f;fill-rule:nonzero"
   inkscape:connector-curvature="0"
   id="path41885"
   d="m 516.32736,774.79217 c -4,7 -53,-6 -40,-27 13,-20 45,19 40,27 z"
   class="fil30" /><path
   style="fill:#3d693f;fill-rule:nonzero"
   inkscape:connector-curvature="0"
   id="path41887"
   d="m 555.32736,696.79217 c -3,4 45,44 47,22 2,-22 -42,-29 -47,-22 z"
   class="fil30" /><path
   style="fill:#3d693f;fill-rule:nonzero"
   inkscape:connector-curvature="0"
   id="path41889"
   d="m 537.32736,733.79217 c -6,7 -48,-8 -41,-27 7,-19 50,15 41,27 z"
   class="fil30" /><path
   style="fill:#3d693f;fill-rule:nonzero"
   inkscape:connector-curvature="0"
   id="path41891"
   d="m 517.32736,773.79217 c -5,7 31,42 41,25 11,-17 -37,-32 -41,-25 z"
   class="fil30" /><path
   style="fill:#f6a4a9;fill-rule:nonzero"
   inkscape:connector-curvature="0"
   id="path41905"
   d="m 1234.3444,814.04104 c -16,22 -30,48 -29,76 1,20 9,38 17,56 8,17 15,34 23,51 9,-31 23,-61 27,-94 4,-32 -2,-68 -26,-90 l -12,2 z"
   class="fil32" /><path
   style="fill:#80cdeb;fill-rule:nonzero"
   inkscape:connector-curvature="0"
   id="path41907"
   d="m 1147.3444,937.04104 c -18,13 -42,50 -41,76.99996 1,20 32,83 41,128 23,-64 30,-81 34,-113 4,-31.99996 -10,-69.99996 -34,-91.99996 z"
   class="fil11" /><path
   style="fill:#d1a7cd;fill-rule:nonzero"
   inkscape:connector-curvature="0"
   id="path41909"
   d="m 1036.3444,675.04104 c -16,22 -30,48 -29,76 1,20 10,31 18,49 8,17 14,33 22,50 9,-31 23,-54 27,-87 4,-32 -2,-68 -26,-90 z"
   class="fil33" /><path
   style="fill:#fdbc47;fill-rule:nonzero"
   inkscape:connector-curvature="0"
   id="path41911"
   d="m 1012.3444,298.04104 c 18,46 58,71 98,95 0,-4 0,-8 0,-12 -55,25 -98,66 -125.00004,119 -2,3 -1,8 2,9 54.00004,25 112.00004,23 164.00004,-4 -3,-3 -7,-5 -10,-8 -7,34 -6,67 4,100 2,8 15,5 13,-4 -9,-31 -11,-61 -4,-93 1,-6 -5,-10 -10,-8 -48,25 -101,27 -151.00004,4 1,3 2,6 2,9 26.00004,-52 67.00004,-90 120.00004,-114 5,-2 4,-9 0,-12 -37,-22 -76,-45 -92,-87 -3,-8 -16,-4 -13,4 v 0 z"
   class="fil2" /><path
   style="fill:#fdbc47;fill-rule:nonzero"
   inkscape:connector-curvature="0"
   id="path41913"
   d="m 1084.3444,235.04104 c 0,26 12,50 34,65 1,-4 1,-8 2,-12 -54,17 -101,46 -140.00004,87 -3,3 -2,7 0,9 37.00004,42 87.00004,64 143.00004,63 -2,-4 -3,-8 -5,-11 -34,40 -53,87 -57,140 0,4 3,7 7,7 48,0 96,-2 138,-29 -3,-1 -7,-3 -10,-4 6,23 21,43 42,53 8,4 15,-8 7,-12 -19,-9 -31,-25 -36,-45 -1,-4 -6,-6 -10,-4 -18,11 -37,19 -57,23 -12,2 -55,11 -65,3 -9,-7 9,-51 13,-61 9,-23 22,-42 37,-61 4,-4 1,-12 -5,-11 -27,1 -53,-4 -77,-16 -15,-7 -51.00004,-24 -48.00004,-42 2,-15 46.00004,-37 59.00004,-45 21,-13 44,-22 68,-30 6,-2 6,-9 2,-12 -18,-12 -27,-32 -27,-54 0,-9 -14,-9 -13,0 v 0 z"
   class="fil2" /><path
   style="fill:#282828;fill-rule:nonzero"
   inkscape:connector-curvature="0"
   id="path41915"
   d="m 1233.3444,602.04104 c -1,55 0,111 3,166 0,4 7,4 7,0 -3,-55 -4,-111 -3,-166 0,-4 -7,-4 -7,0 z"
   class="fil12" /><path
   style="fill:#282828;fill-rule:nonzero"
   inkscape:connector-curvature="0"
   id="path41917"
   d="m 1262.3444,793.04104 c 0,-13 -9,-24 -22,-24 -13,-1 -21,9 -21,22 0,12 8,23 21,24 13,1 22,-9 22,-21 0,-4 -7,-4 -7,0 -1,21 -29,17 -29,-3 0,-8 5,-15 14,-15 9,1 15,9 15,17 0,4 7,4 7,0 z"
   class="fil12" /><path
   style="fill:#282828;fill-rule:nonzero"
   inkscape:connector-curvature="0"
   id="path41919"
   d="m 1229.3444,812.04104 c -17,25 -32,53 -29,84 4,35 25,70 39,102 1,2.99996 6,1.99996 6,-1 18,-59 54,-135 1,-187 -3,-3 -8,2 -5,5 51,50 15,124 -2,181 2,0 4,-1 6,-1 -13,-28 -30,-58 -37,-88 -8,-34 8,-63 26,-90 3,-4 -3,-7 -6,-4 v 0 z"
   class="fil12" /><path
   style="fill:#282828;fill-rule:nonzero"
   inkscape:connector-curvature="0"
   id="path41921"
   d="m 1168.3444,740.04104 c 0,-13 -9,-24 -22,-24 -13,-1 -21,9 -21,22 0,12 8,23 21,24 13,1 22,-9 22,-21 0,-4 -7,-4 -7,0 -1,21 -29,17 -29,-3 0,-8 5,-15 14,-15 9,1 15,9 15,17 0,4 7,4 7,0 z"
   class="fil12" /><path
   style="fill:#282828;fill-rule:nonzero"
   inkscape:connector-curvature="0"
   id="path41923"
   d="m 1145.3444,934.04104 c -25,19 -48,57 -41,89.99996 9,41 31,78 39,120 1,4 6,3 7,0 25,-68 61,-148.99996 -1,-208.99996 -3,-3 -8,2 -5,5 60,58 23,136.99996 -1,201.99996 2,0 4,0 7,0 -8,-36 -23,-69 -34,-103 -5,-15 -8,-28 -3,-43.99996 6,-21 19,-42 36,-55 4,-3 0,-9 -4,-6 z"
   class="fil12" /><path
   style="fill:#282828;fill-rule:nonzero"
   inkscape:connector-curvature="0"
   id="path41925"
   d="m 1136.3444,608.04104 c 0,37 3,75 5,112 0,4 7,4 7,0 -2,-37 -5,-75 -5,-112 0,-4 -7,-4 -7,0 z"
   class="fil12" /><path
   style="fill:#282828;fill-rule:nonzero"
   inkscape:connector-curvature="0"
   id="path41927"
   d="m 1141.3444,764.04104 c -2,58 5,116 2,173 0,4 7,4 7,0 2,-58 -5,-116 -2,-173 0,-4 -7,-4 -7,0 z"
   class="fil12" /><path
   style="fill:#282828;fill-rule:nonzero"
   inkscape:connector-curvature="0"
   id="path41929"
   d="m 1037.3444,566.04104 c -1,23 0,46 2,68 0,4 7,4 7,0 -2,-23 -3,-46 -2,-68 0,-4 -7,-4 -7,0 z"
   class="fil12" /><path
   style="fill:#282828;fill-rule:nonzero"
   inkscape:connector-curvature="0"
   id="path41931"
   d="m 1064.3444,655.04104 c 0,-13 -9,-24 -22,-24 -13,-1 -21,9 -21,22 0,12 8,23 21,24 13,1 22,-9 22,-21 0,-4 -7,-4 -7,0 -1,21 -29,17 -29,-3 0,-8 5,-15 14,-15 9,1 15,9 15,17 0,4 7,4 7,0 z"
   class="fil12" /><path
   style="fill:#282828;fill-rule:nonzero"
   inkscape:connector-curvature="0"
   id="path41933"
   d="m 1033.3444,674.04104 c -17,24 -33,53 -29,84 2,13 8,25 14,37 9,19 17,39 25,58 1,3 6,2 6,-1 11,-33 27,-65 29,-100 1,-29 -7,-59 -28,-80 -3,-3 -8,2 -5,5 51,50 15,118 -2,174 2,0 4,-1 6,-1 -6,-15 -13,-29 -19,-44 -6,-13 -14,-25 -17,-39 -9,-32 8,-63 26,-89 3,-4 -3,-7 -6,-4 z"
   class="fil12" /><path
   style="fill:#282828;fill-rule:nonzero"
   inkscape:connector-curvature="0"
   id="path41935"
   d="m 1300.3444,583.04104 c -89,24 -207,27 -277,-44 -74.00004,-74 -58.00004,-205 19,-270 33,-28 77,-48 121,-49 -1,-2 -2,-3 -3,-5 -38,50 -56,120 -48,182 11,79 65,139 136,173 17,8 34,15 53,19 4,1 6,-6 2,-7 -42,-10 -84,-32 -116,-60 -69,-61 -85,-156 -54,-241 8,-22 19,-44 33,-62 2,-2 -1,-5 -3,-5 -89,1 -172.00004,72 -190.00004,158 -11,52 -2,111 30.00004,155 29,39 73,61 120,71 59,13 122,8 180,-8 4,-1 2,-8 -2,-7 z"
   class="fil12" /><path
   style="fill:#fdbc47;fill-rule:nonzero"
   inkscape:connector-curvature="0"
   id="path41951"
   d="m 449.69576,2012.9768 c -54,14 -109,26 -164,37 0,0 77,280 82,285 4,5 115,-21 121,-26 6,-4 -39,-296 -39,-296 z"
   class="fil2" /><path
   style="fill:#282828;fill-rule:nonzero"
   inkscape:connector-curvature="0"
   id="path41953"
   d="m 244.69576,2017.9768 c 14,63 30,126 47,189 8,30 17,60 26,90 5,15 9,30 14,45 2,7 4,23 10,28 4,4 12,2 17,2 12,-1 25,-3 37,-5 31,-5 62,-12 92,-21 10,-3 29,-5 31,-17 2,-14 -3,-32 -5,-46 -7,-62 -16,-123 -24,-184 -6,-44 -12,-88 -18,-133 -1,-4 -7,-3 -7,2 12,91 25,183 36,274 3,22 6,44 8,66 1,6 2,13 2,19 0,5 1,4 -5,6 -24,9 -49,15 -74,20 -26,5 -53,12 -79,13 -8,0 -8,0 -10,-9 -5,-16 -10,-32 -15,-48 -10,-32 -19,-64 -28,-97 -18,-65 -34,-130 -49,-195 -1,-4 -8,-3 -7,2 v 0 z"
   class="fil12" /><path
   style="fill:#282828;fill-rule:nonzero"
   inkscape:connector-curvature="0"
   id="path41955"
   d="m 467.69576,1961.9768 c -27,17 -59,28 -90,36 -37,10 -77,18 -116,17 -3,0 -12,-2 -11,0 -1,-3 4,-8 5,-10 7,-8 16,-14 25,-20 30,-18 64,-28 98,-34 4,-1 3,-7 -2,-7 -36,6 -72,17 -102,37 -10,7 -32,20 -30,34 0,2 1,3 3,3 13,4 28,2 41,1 24,-2 48,-5 72,-11 38,-8 79,-22 113,-42 4,-2 0,-8 -4,-6 v 0 z"
   class="fil12" /><path
   style="fill:#282828;fill-rule:nonzero"
   inkscape:connector-curvature="0"
   id="path41957"
   d="m 433.69576,1948.9768 c 10,2 30,6 32,18 1,4 8,3 7,-2 -3,-14 -25,-20 -37,-22 -4,-1 -6,6 -2,7 v 0 z"
   class="fil12" /><path
   style="fill:#282828;fill-rule:nonzero"
   inkscape:connector-curvature="0"
   id="path41959"
   d="m 474.69576,2000.9768 c 29,-7 48,-34 47,-64 -1,-34 -28,-59 -61,-63 -67,-8 -120,88 -47,120 4,2 8,-4 4,-6 -66,-29 -17,-115 43,-107 30,4 54,26 55,57 1,27 -16,51 -42,57 -4,1 -3,8 2,7 v 0 z"
   class="fil12" /><path
   style="fill:#282828;fill-rule:nonzero"
   inkscape:connector-curvature="0"
   id="path41961"
   d="m 444.69576,1879.9768 c 1,21 2,42 3,63 0,4 7,4 7,0 -1,-21 -1,-42 -3,-63 0,-4 -7,-4 -7,0 z"
   class="fil12" /><path
   style="fill:#282828;fill-rule:nonzero"
   inkscape:connector-curvature="0"
   id="path41963"
   d="m 391.69576,1920.9768 c 41,12 79,29 115,52 4,2 7,-4 4,-6 -36,-23 -75,-41 -117,-53 -4,-1 -6,5 -2,7 z"
   class="fil12" /><path
   style="fill:#282828;fill-rule:nonzero"
   inkscape:connector-curvature="0"
   id="path41965"
   d="m 454.69576,1937.9768 c 6,-7 12,-15 17,-22 3,-4 6,-8 8,-12 1,-2 7,-13 8,-13 -1,-1 -3,-2 -4,-3 0,0 0,0 0,1 1,-1 3,-2 4,-3 0,0 0,0 0,0 -4,-1 -6,6 -2,7 0,0 0,0 0,0 2,0 4,-1 4,-3 0,0 0,0 0,-1 0,-2 -2,-4 -4,-3 -6,1 -10,13 -14,18 -7,11 -15,21 -23,31 -3,3 2,8 5,5 v 0 z"
   class="fil12" /><path
   style="fill:#282828;fill-rule:nonzero"
   inkscape:connector-curvature="0"
   id="path41967"
   d="m 451.69576,1939.9768 c 19,-7 39,-11 59,-14 4,-1 3,-7 -2,-7 -20,3 -40,7 -59,14 -4,1 -2,8 2,7 z"
   class="fil12" /><path
   style="fill:#282828;fill-rule:nonzero"
   inkscape:connector-curvature="0"
   id="path41969"
   d="m 414.69576,1892.9768 c 9,17 20,33 33,48 3,3 8,-2 5,-5 -12,-14 -23,-30 -32,-47 -2,-4 -8,0 -6,4 z"
   class="fil12" /><path
   style="fill:#282828;fill-rule:nonzero"
   inkscape:connector-curvature="0"
   id="path41971"
   d="m 387.69576,1959.9768 c 12,-4 24,-8 35,-11 4,-1 2,-8 -2,-7 -12,4 -24,8 -35,11 -4,1 -2,8 2,7 z"
   class="fil12" /><path
   style="fill:#282828;fill-rule:nonzero"
   inkscape:connector-curvature="0"
   id="path41973"
   d="m 412.69576,1987.9768 c 8,-10 16,-19 25,-28 3,-3 -2,-8 -5,-5 -9,9 -17,19 -25,28 -3,3 2,8 5,5 z"
   class="fil12" /><path
   style="fill:#282828;fill-rule:nonzero"
   inkscape:connector-curvature="0"
   id="path41975"
   d="m 445.69576,1965.9768 c 0,4 -1,8 -1,11 0,4 7,4 7,0 0,-4 1,-8 1,-11 0,-4 -7,-4 -7,0 z"
   class="fil12" /><path
   style="fill:#282828;fill-rule:nonzero"
   inkscape:connector-curvature="0"
   id="path41977"
   d="m 324.69576,2106.9768 c 2,7 4,13 6,20 1,4 8,3 7,-2 -1,-7 -3,-14 -6,-20 -1,-4 -8,-2 -7,2 z"
   class="fil12" /><path
   style="fill:#282828;fill-rule:nonzero"
   inkscape:connector-curvature="0"
   id="path41979"
   d="m 336.69576,2150.9768 c 3,9 6,18 9,27 1,4 8,2 7,-2 -3,-9 -6,-18 -9,-27 -1,-4 -8,-2 -7,2 z"
   class="fil12" /><path
   style="fill:#282828;fill-rule:nonzero"
   inkscape:connector-curvature="0"
   id="path41981"
   d="m 348.69576,2128.9768 c 1,5 3,10 4,15 1,4 8,2 7,-2 -1,-5 -3,-10 -4,-15 -1,-4 -8,-2 -7,2 z"
   class="fil12" /><path
   style="fill:#fdbc47;fill-rule:nonzero"
   inkscape:connector-curvature="0"
   id="path42043"
   d="m 331.65116,217.17753 c 16,-32 61,-61 113,-34 51,27 30,106 13,117 -10,-15 -32,-27 -73,-31 -4,-12 -7,-64 -52,-52 z"
   class="fil2" /><path
   style="fill:#282828;fill-rule:nonzero"
   inkscape:connector-curvature="0"
   id="path42045"
   d="m 459.65116,320.17753 c 5,-27 -20,-39 -42,-46 -7,-2 -27,-3 -32,-8 -6,-6 -3,-23 -6,-31 -10,-28 -47,-25 -69,-15 -15,7 -25,19 -38,27 -19,11 -33,-2 -51,-9 -29,-12 -70,-2 -92,20 -22,21 -22,52 8,63 21,8 41,3 63,1 25,-1 32,13 27,34 -6,25 16,35 38,37 24,2 51,-2 73,-12 10,-5 18,-15 29,-18 19,-5 39,-1 58,-7 18,-6 28,-19 33,-37 1,-4 -5,-6 -7,-2 -13,45 -52,29 -86,39 -7,2 -11,5 -16,10 -14,11 -31,15 -48,18 -18,3 -42,5 -58,-4 -14,-8 -9,-17 -7,-30 3,-19 -7,-33 -27,-35 -20,-2 -39,6 -60,2 -24,-5 -38,-22 -23,-45 10,-16 29,-24 47,-29 20,-5 35,-5 54,4 10,5 20,12 31,12 10,0 18,-6 26,-12 12,-9 22,-19 37,-24 17,-5 44,-7 52,13 5,14 -2,32 15,37 22,7 71,10 64,44 -1,4 6,6 7,2 z"
   class="fil12" /><path
   style="fill:#282828;fill-rule:nonzero"
   inkscape:connector-curvature="0"
   id="path42047"
   d="m 305.65116,157.17753 c 5,7 10,14 16,20 3,3 8,-2 5,-5 -6,-6 -10,-12 -15,-19 -2,-4 -8,0 -6,4 z"
   class="fil12" /><path
   style="fill:#282828;fill-rule:nonzero"
   inkscape:connector-curvature="0"
   id="path42049"
   d="m 374.65116,122.17753 c 1,9 2,18 3,27 1,4 8,4 7,0 -1,-9 -2,-18 -3,-27 -1,-4 -8,-4 -7,0 z"
   class="fil12" /><path
   style="fill:#282828;fill-rule:nonzero"
   inkscape:connector-curvature="0"
   id="path42051"
   d="m 435.65116,122.17753 c 1,8 0,16 -1,24 -1,4 6,6 7,2 2,-9 2,-17 2,-26 0,-4 -7,-4 -7,0 v 0 z"
   class="fil12" /><path
   style="fill:#282828;fill-rule:nonzero"
   inkscape:connector-curvature="0"
   id="path42053"
   d="m 481.65116,178.17753 c 7,-5 15,-10 22,-14 4,-2 0,-8 -4,-6 -7,5 -15,10 -22,14 -4,2 0,8 4,6 z"
   class="fil12" /><path
   style="fill:#282828;fill-rule:nonzero"
   inkscape:connector-curvature="0"
   id="path42055"
   d="m 498.65116,228.17753 c 9,-1 18,-2 26,-3 4,-1 4,-7 0,-7 -9,1 -18,2 -26,3 -4,1 -4,7 0,7 z"
   class="fil12" /><path
   style="fill:#282828;fill-rule:nonzero"
   inkscape:connector-curvature="0"
   id="path42057"
   d="m 492.65116,281.17753 c 10,3 20,5 30,8 4,1 6,-6 2,-7 -10,-3 -20,-5 -30,-8 -4,-1 -6,6 -2,7 z"
   class="fil12" /><path
   style="fill:#282828;fill-rule:nonzero"
   inkscape:connector-curvature="0"
   id="path42059"
   d="m 481.65116,328.17753 c 5,5 10,10 15,16 3,4 9,0 6,-4 -5,-6 -10,-12 -16,-17 -3,-3 -8,2 -5,5 z"
   class="fil12" /><path
   style="fill:#282828;fill-rule:nonzero"
   inkscape:connector-curvature="0"
   id="path42061"
   d="m 275.65116,199.17753 c 8,4 15,8 23,12 4,2 8,-4 4,-6 -8,-4 -15,-8 -23,-12 -4,-2 -8,4 -4,6 z"
   class="fil12" /><path
   style="fill:#282828;fill-rule:nonzero"
   inkscape:connector-curvature="0"
   id="path42063"
   d="m 261.65116,336.17753 c -5,14 6,28 20,26 4,-1 4,-7 0,-7 -10,1 -17,-7 -14,-17 2,-4 -5,-6 -7,-2 v 0 z"
   class="fil12" />
</svg>