<?xml version="1.0" encoding="UTF-8" standalone="no"?>
<!-- Created with Inkscape (http://www.inkscape.org/) -->

<svg
   xmlns:dc="http://purl.org/dc/elements/1.1/"
   xmlns:cc="http://creativecommons.org/ns#"
   xmlns:rdf="http://www.w3.org/1999/02/22-rdf-syntax-ns#"
   xmlns:svg="http://www.w3.org/2000/svg"
   xmlns="http://www.w3.org/2000/svg"
   xmlns:sodipodi="http://sodipodi.sourceforge.net/DTD/sodipodi-0.dtd"
   xmlns:inkscape="http://www.inkscape.org/namespaces/inkscape"
   version="1.1"
   id="svg13825"
   xml:space="preserve"
   width="666.66669"
   height="666.66669"
   viewBox="0 0 666.66669 666.66669"
   sodipodi:docname="ShapeMaster4.svg"
   inkscape:version="0.92.3 (2405546, 2018-03-11)"><metadata
     id="metadata13831"><rdf:RDF><cc:Work
         rdf:about=""><dc:format>image/svg+xml</dc:format><dc:type
           rdf:resource="http://purl.org/dc/dcmitype/StillImage" /><dc:title /></cc:Work></rdf:RDF></metadata><defs
     id="defs13829"><clipPath
       clipPathUnits="userSpaceOnUse"
       id="clipPath13843"><path
         d="M 0,500 H 500 V 0 H 0 Z"
         id="path13841"
         inkscape:connector-curvature="0" /></clipPath><clipPath
       clipPathUnits="userSpaceOnUse"
       id="clipPath14397"><path
         d="M 0,500 H 500 V 0 H 0 Z"
         id="path14395"
         inkscape:connector-curvature="0" /></clipPath></defs><sodipodi:namedview
     pagecolor="#ffffff"
     bordercolor="#666666"
     borderopacity="1"
     objecttolerance="10"
     gridtolerance="10"
     guidetolerance="10"
     inkscape:pageopacity="0"
     inkscape:pageshadow="2"
     inkscape:window-width="1555"
     inkscape:window-height="914"
     id="namedview13827"
     showgrid="false"
     inkscape:zoom="0.70799998"
     inkscape:cx="416.32498"
     inkscape:cy="260.26035"
     inkscape:window-x="0"
     inkscape:window-y="38"
     inkscape:window-maximized="1"
     inkscape:current-layer="g13833" /><g
     id="g13833"
     inkscape:groupmode="layer"
     inkscape:label="528660-PJ82MA-521"
     transform="matrix(1.3333333,0,0,-1.3333333,0,666.66667)"><g
       id="g5765"><path
         d="m 243.6721,244.8181 -32.212,-32.212 c -0.875,-0.875 -2.308,-0.875 -3.183,0 -0.875,0.875 -0.875,2.307 0,3.182 l 32.213,32.213 c 0.875,0.875 2.307,0.875 3.182,0 0.875,-0.875 0.875,-2.308 0,-3.183"
         style="fill:#ffd5ae;fill-opacity:1;fill-rule:nonzero;stroke:none"
         id="path13847"
         inkscape:connector-curvature="0" /><path
         d="m 243.6717,244.8181 c 0.875,0.875 0.875,2.308 0,3.183 -0.875,0.875 -2.307,0.875 -3.182,0 l -22.333,-22.334 3.182,-3.182 z"
         style="fill:#d59d78;fill-opacity:1;fill-rule:nonzero;stroke:none"
         id="path13851"
         inkscape:connector-curvature="0" /><path
         d="m 243.6721,244.8181 -32.212,-32.212 c -0.875,-0.875 -2.308,-0.875 -3.183,0 -0.875,0.875 -0.875,2.307 0,3.182 l 32.213,32.213 c 0.875,0.875 2.307,0.875 3.182,0 0.875,-0.875 0.875,-2.308 0,-3.183 z"
         style="fill:none;stroke:#622241;stroke-width:2;stroke-linecap:butt;stroke-linejoin:miter;stroke-miterlimit:10;stroke-dasharray:none;stroke-opacity:1"
         id="path13855"
         inkscape:connector-curvature="0" /><path
         d="m 298.1824,255.5154 c 1.594,3.615 2.484,7.609 2.484,11.813 0,16.201 -13.132,29.333 -29.333,29.333 -8.409,0 -15.985,-3.543 -21.334,-9.211 -5.348,5.668 -12.924,9.211 -21.333,9.211 -16.2,0 -29.333,-13.132 -29.333,-29.333 0,-4.194 0.886,-8.178 2.472,-11.787 7.112,-17.37 48.145,-46.843 48.193,-46.879 v -0.001 h 0.001 v 0.001 c 0.049,0.036 41.04,29.479 48.183,46.853"
         style="fill:#ef5562;fill-opacity:1;fill-rule:nonzero;stroke:none"
         id="path13859"
         inkscape:connector-curvature="0" /><path
         d="m 217.4353,215.4305 c -1.297,1.297 -3.013,1.92 -4.713,1.87 0.049,1.7 -0.573,3.416 -1.87,4.713 -2.5,2.5 -6.553,2.5 -9.053,0 -0.647,-0.646 -1.125,-1.398 -1.437,-2.2 -1.583,-3.778 0.2,-14.656 0.202,-14.67 h 0.001 c 0.013,-0.002 10.881,-1.783 14.664,-0.205 0.804,0.312 1.557,0.791 2.206,1.439 2.5,2.5 2.5,6.553 0,9.053"
         style="fill:#ff8686;fill-opacity:1;fill-rule:nonzero;stroke:none"
         id="path13863"
         inkscape:connector-curvature="0" /><path
         d="m 205.3777,209.9558 v 0 c -0.002,0.013 -1.541,9.401 -0.489,13.764 -1.132,-0.26 -2.208,-0.825 -3.09,-1.706 -0.647,-0.647 -1.125,-1.399 -1.437,-2.201 -1.583,-3.777 0.201,-14.656 0.203,-14.669 h 0.001 c 0.012,-0.002 10.88,-1.784 14.664,-0.206 0.803,0.313 1.557,0.791 2.206,1.44 0.881,0.882 1.445,1.958 1.705,3.09 -4.362,-1.052 -13.751,0.486 -13.763,0.488"
         style="fill:#ef5562;fill-opacity:1;fill-rule:nonzero;stroke:none"
         id="path13867"
         inkscape:connector-curvature="0" /><path
         d="m 298.6346,278.0545 c 0.446,-1.701 0.688,-3.467 0.688,-5.281 0,-3.472 -0.867,-6.77 -2.417,-9.755 -4.904,-10.116 -26.189,-25.188 -38.333,-33.206 -5.203,-3.437 -11.941,-3.437 -17.144,0 -12.154,8.026 -33.465,23.117 -38.345,33.228 -1.544,2.979 -2.407,6.269 -2.407,9.733 0,1.815 0.243,3.58 0.689,5.281 -1.307,-3.323 -2.032,-6.938 -2.032,-10.726 0,-4.194 0.886,-8.178 2.472,-11.787 7.112,-17.37 48.144,-46.843 48.193,-46.879 v -0.001 h 10e-4 v 0.001 c 0.049,0.036 41.04,29.479 48.183,46.853 1.594,3.615 2.484,7.609 2.484,11.813 0,3.787 -0.725,7.403 -2.032,10.726"
         style="fill:#b52849;fill-opacity:1;fill-rule:nonzero;stroke:none"
         id="path13871"
         inkscape:connector-curvature="0" /><path
         d="m 298.1824,255.5154 c 1.594,3.615 2.484,7.609 2.484,11.813 0,16.201 -13.132,29.333 -29.333,29.333 -8.409,0 -15.985,-3.543 -21.334,-9.211 -5.348,5.668 -12.924,9.211 -21.333,9.211 -16.2,0 -29.333,-13.132 -29.333,-29.333 0,-4.194 0.886,-8.178 2.472,-11.787 7.112,-17.37 48.194,-46.879 48.194,-46.879 0.049,0.036 41.04,29.479 48.183,46.853 z"
         style="fill:none;stroke:#622241;stroke-width:2;stroke-linecap:butt;stroke-linejoin:miter;stroke-miterlimit:10;stroke-dasharray:none;stroke-opacity:1"
         id="path13875"
         inkscape:connector-curvature="0" /><path
         d="m 299.7771,300.9231 -22.734,-22.733 c -0.875,-0.875 -2.307,-0.875 -3.182,0 -0.875,0.875 -0.875,2.306 0,3.181 l 22.733,22.734 c 0.875,0.875 2.308,0.875 3.183,0 0.875,-0.875 0.875,-2.307 0,-3.182"
         style="fill:#ffd5ae;fill-opacity:1;fill-rule:nonzero;stroke:none"
         id="path13879"
         inkscape:connector-curvature="0" /><path
         d="m 280.1775,287.6878 -6.316,-6.316 c -0.875,-0.875 -0.875,-2.307 0,-3.182 0.875,-0.875 2.306,-0.875 3.181,0 l 6.317,6.316 z"
         style="fill:#d59d78;fill-opacity:1;fill-rule:nonzero;stroke:none"
         id="path13883"
         inkscape:connector-curvature="0" /><path
         d="m 299.7771,300.9231 -22.734,-22.733 c -0.875,-0.875 -2.307,-0.875 -3.182,0 -0.875,0.875 -0.875,2.306 0,3.181 l 22.733,22.734 c 0.875,0.875 2.308,0.875 3.183,0 0.875,-0.875 0.875,-2.307 0,-3.182 z"
         style="fill:none;stroke:#622241;stroke-width:2;stroke-linecap:butt;stroke-linejoin:miter;stroke-miterlimit:10;stroke-dasharray:none;stroke-opacity:1"
         id="path13887"
         inkscape:connector-curvature="0" /><path
         d="m 265.9744,283.7019 c 0,0 12.771,0.709 13.125,-13.125 z"
         style="fill:#ef5562;fill-opacity:1;fill-rule:nonzero;stroke:none"
         id="path13891"
         inkscape:connector-curvature="0" /><path
         d="m 266.1609,283.7068 c 1.576,0.022 12.609,-0.285 12.938,-13.13"
         style="fill:none;stroke:#622241;stroke-width:2;stroke-linecap:round;stroke-linejoin:miter;stroke-miterlimit:10;stroke-dasharray:none;stroke-opacity:1"
         id="path13895"
         inkscape:connector-curvature="0" /><path
         d="m 228.4544,288.8767 c 2.419,-3.074 -0.339,-9.281 -6.161,-13.864 -5.823,-4.583 -12.505,-5.806 -14.924,-2.733 -2.419,3.075 0.339,9.282 6.161,13.865 5.823,4.583 12.505,5.806 14.924,2.732"
         style="fill:#ff8686;fill-opacity:1;fill-rule:nonzero;stroke:none"
         id="path13899"
         inkscape:connector-curvature="0" /><path
         d="m 302.7869,307.2034 -2.353,12.937 -12.432,-12.433 2.352,-12.937 12.937,-2.352 12.433,12.433 z"
         style="fill:#ff8686;fill-opacity:1;fill-rule:nonzero;stroke:none"
         id="path13903"
         inkscape:connector-curvature="0" /><path
         d="m 294.0857,313.7908 -6.084,-6.083 2.353,-12.937 12.936,-2.352 6.083,6.083 -12.936,2.352 z"
         style="fill:#ef5562;fill-opacity:1;fill-rule:nonzero;stroke:none"
         id="path13907"
         inkscape:connector-curvature="0" /><path
         d="m 217.4353,215.4305 c -1.297,1.297 -3.013,1.92 -4.713,1.87 0.049,1.7 -0.573,3.416 -1.87,4.713 -2.5,2.5 -6.553,2.5 -9.053,0 -0.647,-0.646 -1.125,-1.398 -1.437,-2.2 -1.583,-3.778 0.202,-14.67 0.202,-14.67 0,0 10.882,-1.783 14.665,-0.205 0.804,0.312 1.557,0.791 2.206,1.439 2.5,2.5 2.5,6.553 0,9.053 z"
         style="fill:none;stroke:#622241;stroke-width:2;stroke-linecap:round;stroke-linejoin:miter;stroke-miterlimit:10;stroke-dasharray:none;stroke-opacity:1"
         id="path13911"
         inkscape:connector-curvature="0" /><path
         d="m 302.7869,307.2034 -2.353,12.937 -12.432,-12.433 2.352,-12.937 12.937,-2.352 12.433,12.433 z"
         style="fill:none;stroke:#622241;stroke-width:2;stroke-linecap:round;stroke-linejoin:miter;stroke-miterlimit:10;stroke-dasharray:none;stroke-opacity:1"
         id="path13915"
         inkscape:connector-curvature="0" /></g><g
       id="g5712"><path
         d="m 291.9187,366.9954 h -83.838 c -8.053,0 -14.581,6.528 -14.581,14.581 v 40.838 c 0,8.053 6.528,14.581 14.581,14.581 h 83.838 c 8.053,0 14.581,-6.528 14.581,-14.581 v -40.838 c 0,-8.053 -6.528,-14.581 -14.581,-14.581"
         style="fill:#ffd5ae;fill-opacity:1;fill-rule:nonzero;stroke:none"
         id="path13919"
         inkscape:connector-curvature="0" /><path
         d="m 291.9187,366.9954 h -83.838 c -8.053,0 -14.581,6.528 -14.581,14.581 v 40.838 c 0,8.053 6.528,14.581 14.581,14.581 h 83.838 c 8.053,0 14.581,-6.528 14.581,-14.581 v -40.838 c 0,-8.053 -6.528,-14.581 -14.581,-14.581"
         style="fill:#ffd5ae;fill-opacity:1;fill-rule:nonzero;stroke:none"
         id="path13923"
         inkscape:connector-curvature="0" /><path
         d="m 208.0808,371.9954 c -5.283,0 -9.581,4.298 -9.581,9.581 v 40.838 c 0,5.283 4.298,9.581 9.581,9.581 h 83.838 c 5.283,0 9.581,-4.298 9.581,-9.581 v -40.838 c 0,-5.283 -4.298,-9.581 -9.581,-9.581 z"
         style="fill:#ffe4cc;fill-opacity:1;fill-rule:nonzero;stroke:none"
         id="path13927"
         inkscape:connector-curvature="0" /><path
         d="m 249.9998,385.8284 56.5,35.378 v 1.208 c 0,8.053 -6.528,14.581 -14.581,14.581 h -83.838 c -8.053,0 -14.581,-6.528 -14.581,-14.581 v -1.208 z"
         style="fill:#d59d78;fill-opacity:1;fill-rule:nonzero;stroke:none"
         id="path13931"
         inkscape:connector-curvature="0" /><path
         d="m 249.9998,392.6619 55.583,34.804 c -2.057,5.559 -7.39,9.529 -13.664,9.529 h -83.838 c -6.274,0 -11.606,-3.97 -13.664,-9.529 z"
         style="fill:#ffe4cc;fill-opacity:1;fill-rule:nonzero;stroke:none"
         id="path13935"
         inkscape:connector-curvature="0" /><path
         d="m 249.9998,392.6619 55.583,34.804 c -2.057,5.559 -7.39,9.529 -13.664,9.529 h -83.838 c -6.274,0 -11.606,-3.97 -13.664,-9.529 z"
         style="fill:none;stroke:#622241;stroke-width:2;stroke-linecap:round;stroke-linejoin:miter;stroke-miterlimit:10;stroke-dasharray:none;stroke-opacity:1"
         id="path13939"
         inkscape:connector-curvature="0" /><path
         d="m 291.9187,366.9954 h -83.838 c -8.053,0 -14.581,6.528 -14.581,14.581 v 40.838 c 0,8.053 6.528,14.581 14.581,14.581 h 83.838 c 8.053,0 14.581,-6.528 14.581,-14.581 v -40.838 c 0,-8.053 -6.528,-14.581 -14.581,-14.581 z"
         style="fill:none;stroke:#622241;stroke-width:2;stroke-linecap:round;stroke-linejoin:miter;stroke-miterlimit:10;stroke-dasharray:none;stroke-opacity:1"
         id="path13943"
         inkscape:connector-curvature="0" /><path
         d="m 262.2283,396.9695 c 0.404,0.917 0.63,1.931 0.63,2.998 0,4.111 -3.333,7.444 -7.444,7.444 -2.134,0 -4.057,-0.899 -5.415,-2.338 -1.356,1.439 -3.279,2.338 -5.414,2.338 -4.111,0 -7.444,-3.333 -7.444,-7.444 0,-1.064 0.225,-2.076 0.628,-2.991 1.804,-4.409 12.218,-11.889 12.23,-11.898 v 0 0 c 0.013,0.009 10.417,7.482 12.229,11.891"
         style="fill:#ef5562;fill-opacity:1;fill-rule:nonzero;stroke:none"
         id="path13947"
         inkscape:connector-curvature="0" /><path
         d="m 262.2283,396.9695 c 0.404,0.917 0.63,1.931 0.63,2.998 0,4.111 -3.333,7.444 -7.444,7.444 -2.134,0 -4.057,-0.899 -5.415,-2.338 -1.356,1.439 -3.279,2.338 -5.414,2.338 -4.111,0 -7.444,-3.333 -7.444,-7.444 0,-1.064 0.225,-2.076 0.628,-2.991 1.804,-4.409 12.218,-11.889 12.23,-11.898 v 0 0 c 0.013,0.009 10.417,7.482 12.229,11.891 z"
         style="fill:none;stroke:#622241;stroke-width:2;stroke-linecap:round;stroke-linejoin:round;stroke-miterlimit:10;stroke-dasharray:none;stroke-opacity:1"
         id="path13951"
         inkscape:connector-curvature="0" /></g><g
       id="g5726"><path
         d="m 395.6619,457.8284 c -4.687,0 -8.5,-3.813 -8.5,-8.5 v -31 c 0,-4.687 3.813,-8.5 8.5,-8.5 h 8 c 4.687,0 8.5,3.813 8.5,8.5 v 31 c 0,4.687 -3.813,8.5 -8.5,8.5 z m 8,-55 h -8 c -8.547,0 -15.5,6.953 -15.5,15.5 v 31 c 0,8.547 6.953,15.5 15.5,15.5 h 8 c 8.547,0 15.5,-6.953 15.5,-15.5 v -31 c 0,-8.547 -6.953,-15.5 -15.5,-15.5"
         style="fill:#ef5562;fill-opacity:1;fill-rule:nonzero;stroke:none"
         id="path13955"
         inkscape:connector-curvature="0" /><path
         d="m 382.1072,456.8284 c 1.264,-2.276 3.089,-4.192 5.28,-5.584 0.561,2.417 2.149,4.443 4.283,5.584 -2.134,1.141 -3.722,3.167 -4.283,5.584 -2.191,-1.391 -4.016,-3.308 -5.28,-5.584"
         style="fill:#ff8686;fill-opacity:1;fill-rule:nonzero;stroke:none"
         id="path13959"
         inkscape:connector-curvature="0" /><path
         d="m 417.2166,456.8284 c -1.265,2.276 -3.088,4.193 -5.28,5.584 -0.561,-2.417 -2.149,-4.443 -4.283,-5.584 2.134,-1.141 3.722,-3.167 4.283,-5.584 2.191,1.391 4.015,3.308 5.28,5.584"
         style="fill:#ff8686;fill-opacity:1;fill-rule:nonzero;stroke:none"
         id="path13963"
         inkscape:connector-curvature="0" /><path
         d="m 419.1619,418.3284 v 28.784 c -2.425,-0.137 -4.769,-0.572 -7,-1.263 v -27.521 c 0,-4.687 -3.813,-8.5 -8.5,-8.5 h -8 c -4.687,0 -8.5,3.813 -8.5,8.5 v 27.425 c -2.228,0.719 -4.574,1.17 -7,1.333 v -28.758 c 0,-8.547 6.953,-15.5 15.5,-15.5 h 8 c 8.547,0 15.5,6.953 15.5,15.5"
         style="fill:#b52849;fill-opacity:1;fill-rule:nonzero;stroke:none"
         id="path13967"
         inkscape:connector-curvature="0" /><path
         d="m 395.6619,457.8284 c -4.687,0 -8.5,-3.813 -8.5,-8.5 v -31 c 0,-4.687 3.813,-8.5 8.5,-8.5 h 8 c 4.687,0 8.5,3.813 8.5,8.5 v 31 c 0,4.687 -3.813,8.5 -8.5,8.5 z m 8,-55 h -8 c -8.547,0 -15.5,6.953 -15.5,15.5 v 31 c 0,8.547 6.953,15.5 15.5,15.5 h 8 c 8.547,0 15.5,-6.953 15.5,-15.5 v -31 c 0,-8.547 -6.953,-15.5 -15.5,-15.5 z"
         style="fill:none;stroke:#622241;stroke-width:2;stroke-linecap:round;stroke-linejoin:miter;stroke-miterlimit:10;stroke-dasharray:none;stroke-opacity:1"
         id="path13971"
         inkscape:connector-curvature="0" /><path
         d="m 447.6824,398.0154 c 1.594,3.615 2.484,7.609 2.484,11.813 0,16.201 -13.132,29.333 -29.333,29.333 -8.409,0 -15.985,-3.543 -21.334,-9.211 -5.348,5.668 -12.924,9.211 -21.333,9.211 -16.2,0 -29.333,-13.132 -29.333,-29.333 0,-4.194 0.886,-8.178 2.472,-11.787 7.112,-17.37 48.145,-46.844 48.193,-46.879 v -10e-4 l 10e-4,10e-4 v -10e-4 10e-4 c 0.049,0.035 41.04,29.479 48.183,46.853"
         style="fill:#ff8686;fill-opacity:1;fill-rule:nonzero;stroke:none"
         id="path13975"
         inkscape:connector-curvature="0" /><path
         d="m 399.5017,357.3606 c -12.718,9.478 -38.633,30.519 -43.569,42.576 l -0.05,0.117 c -1.36,3.093 -2.049,6.382 -2.049,9.775 0,13.417 10.916,24.333 24.333,24.333 6.761,0 13.046,-2.714 17.696,-7.643 l 3.637,-3.854 3.637,3.854 c 4.65,4.929 10.935,7.643 17.697,7.643 13.417,0 24.333,-10.916 24.333,-24.333 0,-3.401 -0.693,-6.697 -2.06,-9.796 l -0.048,-0.116 c -4.982,-12.116 -30.855,-33.104 -43.557,-42.556"
         style="fill:#b52849;fill-opacity:1;fill-rule:nonzero;stroke:none"
         id="path13979"
         inkscape:connector-curvature="0" /><path
         d="m 448.1346,420.5545 c 0.446,-1.701 0.688,-3.467 0.688,-5.281 0,-3.472 -0.867,-6.77 -2.417,-9.755 -4.904,-10.116 -26.189,-25.187 -38.333,-33.207 -5.203,-3.435 -11.941,-3.436 -17.144,0 -12.153,8.027 -33.465,23.118 -38.346,33.229 -1.543,2.979 -2.406,6.269 -2.406,9.733 0,1.815 0.243,3.58 0.689,5.281 -1.306,-3.323 -2.032,-6.938 -2.032,-10.726 0,-4.194 0.886,-8.178 2.472,-11.787 7.112,-17.37 48.144,-46.844 48.193,-46.879 v -0.001 l 10e-4,0.001 v -0.001 0.001 c 0.049,0.035 41.04,29.479 48.183,46.853 1.594,3.615 2.484,7.609 2.484,11.813 0,3.787 -0.725,7.403 -2.032,10.726"
         style="fill:#b52849;fill-opacity:1;fill-rule:nonzero;stroke:none"
         id="path13983"
         inkscape:connector-curvature="0" /><path
         d="m 447.6824,398.0154 c 1.594,3.615 2.484,7.609 2.484,11.813 0,16.201 -13.132,29.333 -29.333,29.333 -8.409,0 -15.985,-3.543 -21.334,-9.211 -5.348,5.668 -12.924,9.211 -21.333,9.211 -16.2,0 -29.333,-13.132 -29.333,-29.333 0,-4.194 0.886,-8.178 2.472,-11.787 7.112,-17.37 48.194,-46.879 48.194,-46.879 0.049,0.035 41.04,29.479 48.183,46.853 z"
         style="fill:none;stroke:#622241;stroke-width:2;stroke-linecap:butt;stroke-linejoin:miter;stroke-miterlimit:10;stroke-dasharray:none;stroke-opacity:1"
         id="path13987"
         inkscape:connector-curvature="0" /><path
         d="m 399.5047,366.1409 c -16.306,12.56 -33.793,28.385 -37.094,36.448 l -0.082,0.193 c -1.005,2.289 -1.495,4.63 -1.495,7.047 0,9.557 7.775,17.333 17.333,17.333 4.815,0 9.291,-1.935 12.605,-5.447 l 8.728,-9.25 8.728,9.249 c 3.314,3.513 7.792,5.448 12.606,5.448 9.558,0 17.333,-7.776 17.333,-17.333 0,-2.422 -0.493,-4.768 -1.465,-6.973 l -0.093,-0.218 c -3.357,-8.164 -20.829,-23.975 -37.104,-36.497"
         style="fill:#ef5562;fill-opacity:1;fill-rule:nonzero;stroke:none"
         id="path13991"
         inkscape:connector-curvature="0" /><path
         d="m 406.0115,400.1316 c 0,-3.596 -2.916,-6.511 -6.512,-6.511 -3.595,0 -6.511,2.915 -6.511,6.511 0,3.596 2.916,6.511 6.511,6.511 3.596,0 6.512,-2.915 6.512,-6.511"
         style="fill:#622241;fill-opacity:1;fill-rule:nonzero;stroke:none"
         id="path13995"
         inkscape:connector-curvature="0" /><path
         d="m 403.3914,385.3284 h -7.834 l 1,11.667 h 5.834 z"
         style="fill:#622241;fill-opacity:1;fill-rule:nonzero;stroke:none"
         id="path13999"
         inkscape:connector-curvature="0" /></g><g
       id="g5776"><path
         d="m 157.7263,288.3694 -15.178,15.178 c -0.091,0.104 -0.161,0.22 -0.26,0.32 -2.398,2.398 -6.323,2.398 -8.721,0 l -15.851,-15.851 c 0,0 0,-10e-4 0,-10e-4 l -21.886,-21.885 c -9.053,1.069 -23.812,2.231 -30.364,-0.503 -2.079,-0.807 -4.028,-2.045 -5.706,-3.723 -6.465,-6.465 -6.465,-16.948 0,-23.412 3.356,-3.357 7.794,-4.966 12.19,-4.838 -0.127,-4.397 1.482,-8.834 4.838,-12.191 6.465,-6.465 16.947,-6.465 23.413,0 1.673,1.674 2.91,3.618 3.717,5.691 2.72,6.491 1.597,21.079 0.536,30.157 l 17.622,17.623 11.108,-11.107 c 2.398,-2.398 6.322,-2.398 8.721,0 2.398,2.398 2.398,6.322 0,8.721 l -11.108,11.107 7.101,7.101 11.107,-11.108 c 2.399,-2.398 6.323,-2.398 8.721,0 2.398,2.398 2.398,6.323 0,8.721"
         style="fill:#ffe4cc;fill-opacity:1;fill-rule:nonzero;stroke:none"
         id="path14003"
         inkscape:connector-curvature="0" /><path
         d="m 141.7259,263.6809 -12.772,12.772 c -1.588,1.588 -4.163,1.588 -5.75,0 l -1.125,-1.125 0.058,-0.453 11.047,-11.048 c 2.343,-2.342 6.132,-2.38 8.542,-0.146"
         style="fill:#d59d78;fill-opacity:1;fill-rule:nonzero;stroke:none"
         id="path14007"
         inkscape:connector-curvature="0" /><path
         d="m 76.7879,221.4637 c 6.466,-6.465 16.948,-6.465 23.413,0 1.674,1.674 2.91,3.618 3.718,5.69 1.452,3.468 1.804,9.249 1.659,15.264 -15.927,-6.306 -37.148,-8.292 -45.217,20.027 -0.199,-0.181 -0.408,-0.347 -0.6,-0.54 -6.466,-6.465 -6.466,-16.948 0,-23.413 3.355,-3.356 7.793,-4.965 12.19,-4.838 -0.128,-4.396 1.482,-8.834 4.837,-12.19"
         style="fill:#d59d78;fill-opacity:1;fill-rule:nonzero;stroke:none"
         id="path14011"
         inkscape:connector-curvature="0" /><path
         d="m 144.4954,291.9119 c -1.588,1.588 -4.163,1.588 -5.75,0 l -5.25,-5.25 0.157,-0.151 4.246,4.245 11.107,-11.107 c 2.233,-2.233 5.773,-2.36 8.188,-0.435 z"
         style="fill:#d59d78;fill-opacity:1;fill-rule:nonzero;stroke:none"
         id="path14015"
         inkscape:connector-curvature="0" /><path
         d="m 157.7263,288.3694 -15.178,15.178 c -0.091,0.104 -0.161,0.22 -0.26,0.32 -2.398,2.398 -6.323,2.398 -8.721,0 l -15.851,-15.851 c 0,0 0,-10e-4 0,-10e-4 l -21.886,-21.885 c -9.053,1.069 -23.812,2.231 -30.364,-0.503 -2.079,-0.807 -4.028,-2.045 -5.706,-3.723 -6.465,-6.465 -6.465,-16.948 0,-23.412 3.356,-3.357 7.794,-4.966 12.19,-4.838 -0.127,-4.397 1.482,-8.834 4.838,-12.191 6.465,-6.465 16.947,-6.465 23.413,0 1.673,1.674 2.91,3.618 3.717,5.691 2.72,6.491 1.597,21.079 0.536,30.157 l 17.622,17.623 11.108,-11.107 c 2.398,-2.398 6.322,-2.398 8.721,0 2.398,2.398 2.398,6.322 0,8.721 l -11.108,11.107 7.101,7.101 11.107,-11.108 c 2.399,-2.398 6.323,-2.398 8.721,0 2.398,2.398 2.398,6.323 0,8.721 z"
         style="fill:none;stroke:#622241;stroke-width:2;stroke-linecap:butt;stroke-linejoin:miter;stroke-miterlimit:10;stroke-dasharray:none;stroke-opacity:1"
         id="path14019"
         inkscape:connector-curvature="0" /><path
         d="m 96.3318,258.0364 c 1.432,-11.31 1.891,-23.776 0.208,-27.791 l -0.076,-0.189 c -0.43,-1.104 -1.076,-2.093 -1.92,-2.936 -3.336,-3.335 -8.763,-3.335 -12.099,0 -1.68,1.68 -2.567,3.918 -2.497,6.301 l 0.246,8.475 -8.475,-0.245 c -2.384,-0.07 -4.622,0.817 -6.302,2.497 -3.336,3.336 -3.336,8.763 0,12.099 0.845,0.846 1.836,1.493 2.946,1.923 l 0.184,0.074 c 4.033,1.683 16.492,1.224 27.785,-0.208"
         style="fill:#ef5562;fill-opacity:1;fill-rule:nonzero;stroke:none"
         id="path14023"
         inkscape:connector-curvature="0" /><path
         d="m 86.6014,231.2771 c -1.68,1.68 -2.567,3.917 -2.498,6.301 l 0.247,8.474 -8.475,-0.245 c -2.384,-0.069 -4.622,0.818 -6.302,2.497 -2.604,2.605 -3.165,6.482 -1.703,9.645 -0.91,-0.42 -1.737,-0.985 -2.454,-1.701 -3.335,-3.336 -3.335,-8.764 0.001,-12.1 1.68,-1.68 3.918,-2.566 6.302,-2.497 l 8.474,0.245 -0.246,-8.474 c -0.069,-2.384 0.818,-4.622 2.498,-6.301 3.336,-3.336 8.763,-3.336 12.099,0 0.717,0.717 1.282,1.544 1.702,2.453 -3.164,-1.463 -7.041,-0.901 -9.645,1.703"
         style="fill:#b52849;fill-opacity:1;fill-rule:nonzero;stroke:none"
         id="path14027"
         inkscape:connector-curvature="0" /><path
         d="m 96.3318,258.0364 c 1.432,-11.31 1.891,-23.776 0.208,-27.791 l -0.076,-0.189 c -0.43,-1.104 -1.076,-2.093 -1.92,-2.936 -3.336,-3.335 -8.763,-3.335 -12.099,0 -1.68,1.68 -2.567,3.918 -2.497,6.301 l 0.246,8.475 -8.475,-0.245 c -2.384,-0.07 -4.622,0.817 -6.302,2.497 -3.336,3.336 -3.336,8.763 0,12.099 0.845,0.846 1.836,1.493 2.946,1.923 l 0.184,0.074 c 4.033,1.683 16.492,1.224 27.785,-0.208 z"
         style="fill:none;stroke:#622241;stroke-width:2;stroke-linecap:round;stroke-linejoin:miter;stroke-miterlimit:10;stroke-dasharray:none;stroke-opacity:1"
         id="path14031"
         inkscape:connector-curvature="0" /><path
         d="m 84.5784,253.8284 c 0,-1.564 -3.022,-2.833 -6.75,-2.833 -3.728,0 -6.75,1.269 -6.75,2.833 0,1.565 3.022,2.833 6.75,2.833 3.728,0 6.75,-1.268 6.75,-2.833"
         style="fill:#ff8686;fill-opacity:1;fill-rule:nonzero;stroke:none"
         id="path14035"
         inkscape:connector-curvature="0" /></g><g
       id="g5745"><path
         d="m 431.6619,206.3289 h -64.333 c -4.143,0 -7.5,3.357 -7.5,7.5 v 55 c 0,4.142 3.357,7.5 7.5,7.5 h 64.333 c 4.143,0 7.5,-3.358 7.5,-7.5 v -55 c 0,-4.143 -3.357,-7.5 -7.5,-7.5"
         style="fill:#ffe4cc;fill-opacity:1;fill-rule:nonzero;stroke:none"
         id="path14039"
         inkscape:connector-curvature="0" /><path
         inkscape:connector-curvature="0"
         id="path14041"
         style="fill:#d59d78;fill-opacity:1;fill-rule:nonzero;stroke:none"
         d="m 439.162,255.662 h -79.333 v 20.667 h 79.333 z" /><path
         d="m 431.8699,206.3289 h -64.75 c -4.026,0 -7.291,3.265 -7.291,7.291 v 55.417 c 0,4.027 3.265,7.292 7.291,7.292 h 64.75 c 4.027,0 7.292,-3.265 7.292,-7.292 v -55.417 c 0,-4.026 -3.265,-7.291 -7.292,-7.291 z"
         style="fill:none;stroke:#622241;stroke-width:2;stroke-linecap:round;stroke-linejoin:round;stroke-miterlimit:10;stroke-dasharray:none;stroke-opacity:1"
         id="path14045"
         inkscape:connector-curvature="0" /><path
         d="m 441.9383,262.2566 h -84.886 c -1.274,0 -2.307,1.033 -2.307,2.307 v 20.322 c 0,1.274 1.033,2.307 2.307,2.307 h 84.886 c 1.274,0 2.307,-1.033 2.307,-2.307 v -20.322 c 0,-1.274 -1.033,-2.307 -2.307,-2.307"
         style="fill:#ef5562;fill-opacity:1;fill-rule:nonzero;stroke:none"
         id="path14049"
         inkscape:connector-curvature="0" /><path
         d="m 441.9383,269.7566 h -84.886 c -1.274,0 -2.307,1.033 -2.307,2.307 v -7.5 c 0,-1.274 1.033,-2.307 2.307,-2.307 h 84.886 c 1.274,0 2.307,1.033 2.307,2.307 v 7.5 c 0,-1.274 -1.033,-2.307 -2.307,-2.307"
         style="fill:#b52849;fill-opacity:1;fill-rule:nonzero;stroke:none"
         id="path14053"
         inkscape:connector-curvature="0" /><path
         d="m 441.9383,262.2566 h -84.886 c -1.274,0 -2.307,1.033 -2.307,2.307 v 20.322 c 0,1.274 1.033,2.307 2.307,2.307 h 84.886 c 1.274,0 2.307,-1.033 2.307,-2.307 v -20.322 c 0,-1.274 -1.033,-2.307 -2.307,-2.307 z"
         style="fill:none;stroke:#622241;stroke-width:2;stroke-linecap:round;stroke-linejoin:round;stroke-miterlimit:10;stroke-dasharray:none;stroke-opacity:1"
         id="path14057"
         inkscape:connector-curvature="0" /><path
         d="m 419.3465,233.4744 c 0.64,1.451 0.997,3.055 0.997,4.743 0,6.505 -5.273,11.778 -11.778,11.778 -3.376,0 -6.418,-1.423 -8.566,-3.699 -2.147,2.276 -5.189,3.699 -8.565,3.699 -6.505,0 -11.777,-5.273 -11.777,-11.778 0,-1.683 0.355,-3.284 0.992,-4.732 2.855,-6.975 19.331,-18.809 19.35,-18.823 0.02,0.014 16.479,11.836 19.347,18.812"
         style="fill:#ef5562;fill-opacity:1;fill-rule:nonzero;stroke:none"
         id="path14061"
         inkscape:connector-curvature="0" /><path
         d="m 419.3465,240.9744 c -2.868,-6.976 -19.327,-18.798 -19.347,-18.812 -0.019,0.014 -16.495,11.848 -19.35,18.823 -0.141,0.318 -0.261,0.647 -0.373,0.98 -0.396,-1.178 -0.619,-2.436 -0.619,-3.748 0,-1.683 0.355,-3.284 0.992,-4.732 2.855,-6.975 19.331,-18.809 19.35,-18.823 0.02,0.014 16.479,11.836 19.347,18.812 0.64,1.451 0.997,3.055 0.997,4.743 0,1.312 -0.224,2.57 -0.619,3.748 -0.113,-0.337 -0.236,-0.669 -0.378,-0.991"
         style="fill:#b52849;fill-opacity:1;fill-rule:nonzero;stroke:none"
         id="path14065"
         inkscape:connector-curvature="0" /><path
         d="m 419.3465,233.4744 c 0.64,1.451 0.997,3.055 0.997,4.743 0,6.505 -5.273,11.778 -11.778,11.778 -3.376,0 -6.418,-1.423 -8.566,-3.699 -2.147,2.276 -5.189,3.699 -8.565,3.699 -6.505,0 -11.777,-5.273 -11.777,-11.778 0,-1.683 0.355,-3.284 0.992,-4.732 2.855,-6.975 19.331,-18.809 19.35,-18.823 0.02,0.014 16.479,11.836 19.347,18.812 z"
         style="fill:none;stroke:#622241;stroke-width:2;stroke-linecap:round;stroke-linejoin:round;stroke-miterlimit:10;stroke-dasharray:none;stroke-opacity:1"
         id="path14069"
         inkscape:connector-curvature="0" /><path
         d="m 430.1834,306.8899 c -4.729,5.602 -13.103,6.311 -18.704,1.583 -4.94,-4.169 -10.159,-22.072 -11.325,-26.249 -1.166,4.177 -6.385,22.08 -11.325,26.249 -5.602,4.728 -13.976,4.019 -18.705,-1.583 -4.727,-5.602 -4.018,-13.976 1.583,-18.704 5.134,-4.333 24.942,-6.471 28.217,-6.798 -0.006,-0.022 -0.012,-0.046 -0.012,-0.046 0,0 0.086,0.008 0.242,0.023 0.155,-0.015 0.242,-0.023 0.242,-0.023 0,0 -0.006,0.024 -0.012,0.046 3.275,0.327 23.082,2.465 28.216,6.798 5.603,4.728 6.311,13.102 1.583,18.704"
         style="fill:#ff8686;fill-opacity:1;fill-rule:nonzero;stroke:none"
         id="path14073"
         inkscape:connector-curvature="0" /><path
         d="m 428.6004,293.8528 c -4.681,-3.951 -21.553,-6.076 -26.978,-6.668 -0.68,-2.185 -1.19,-3.965 -1.468,-4.961 -0.278,0.996 -0.788,2.776 -1.468,4.961 -5.426,0.592 -22.298,2.717 -26.979,6.668 -2.329,1.966 -3.798,4.565 -4.397,7.331 -1.022,-4.658 0.501,-9.709 4.397,-12.998 5.134,-4.333 24.942,-6.471 28.217,-6.798 -0.006,-0.022 -0.012,-0.046 -0.012,-0.046 0,0 0.086,0.008 0.242,0.023 0.155,-0.015 0.242,-0.023 0.242,-0.023 0,0 -0.006,0.024 -0.012,0.046 3.275,0.327 23.082,2.465 28.216,6.798 3.896,3.289 5.419,8.341 4.397,12.998 -0.597,-2.766 -2.067,-5.365 -4.397,-7.331"
         style="fill:#ef5562;fill-opacity:1;fill-rule:nonzero;stroke:none"
         id="path14077"
         inkscape:connector-curvature="0" /><path
         d="m 430.1834,306.8899 c -4.729,5.602 -13.103,6.311 -18.704,1.583 -4.94,-4.169 -10.159,-22.072 -11.325,-26.249 -1.166,4.177 -6.385,22.08 -11.325,26.249 -5.602,4.728 -13.976,4.019 -18.705,-1.583 -4.727,-5.602 -4.018,-13.976 1.583,-18.704 5.134,-4.333 24.942,-6.471 28.217,-6.798 -0.006,-0.022 -0.012,-0.046 -0.012,-0.046 0,0 0.086,0.008 0.242,0.023 0.155,-0.015 0.242,-0.023 0.242,-0.023 0,0 -0.006,0.024 -0.012,0.046 3.275,0.327 23.082,2.465 28.216,6.798 5.603,4.728 6.311,13.102 1.583,18.704 z"
         style="fill:none;stroke:#622241;stroke-width:2;stroke-linecap:round;stroke-linejoin:miter;stroke-miterlimit:10;stroke-dasharray:none;stroke-opacity:1"
         id="path14081"
         inkscape:connector-curvature="0" /><path
         d="m 432.9949,266.9954 c 0,0 -25.916,10 -28.416,17 l -4.48,-1.82 -4.479,1.82 c -2.5,-7 -28.416,-17 -28.416,-17 l 11.583,-2.417 -3.333,-10.833 c 16.078,3.357 22.547,18.367 24.645,24.958 2.1,-6.591 8.568,-21.601 24.646,-24.958 l -3.333,10.833 z"
         style="fill:#ff8686;fill-opacity:1;fill-rule:nonzero;stroke:none"
         id="path14085"
         inkscape:connector-curvature="0" /><path
         d="m 432.9949,266.9954 c 0,0 -25.916,10 -28.416,17 l -4.48,-1.82 -4.479,1.82 c -2.5,-7 -28.416,-17 -28.416,-17 l 11.583,-2.417 -3.333,-10.833 c 16.078,3.357 22.547,18.367 24.645,24.958 2.1,-6.591 8.568,-21.601 24.646,-24.958 l -3.333,10.833 z"
         style="fill:none;stroke:#622241;stroke-width:2;stroke-linecap:round;stroke-linejoin:miter;stroke-miterlimit:10;stroke-dasharray:none;stroke-opacity:1"
         id="path14089"
         inkscape:connector-curvature="0" /><path
         d="m 405.9246,282.2239 c 0,-3.187 -2.584,-5.771 -5.771,-5.771 -3.186,0 -5.77,2.584 -5.77,5.771 0,3.187 2.584,5.77 5.77,5.77 3.187,0 5.771,-2.583 5.771,-5.77"
         style="fill:#ff8686;fill-opacity:1;fill-rule:nonzero;stroke:none"
         id="path14093"
         inkscape:connector-curvature="0" /><path
         d="m 400.1541,280.6204 c -2.451,0 -4.54,1.531 -5.376,3.687 -0.251,-0.647 -0.395,-1.348 -0.395,-2.083 0,-3.187 2.584,-5.771 5.771,-5.771 3.187,0 5.771,2.584 5.771,5.771 0,0.735 -0.144,1.436 -0.394,2.083 -0.837,-2.156 -2.926,-3.687 -5.377,-3.687"
         style="fill:#ef5562;fill-opacity:1;fill-rule:nonzero;stroke:none"
         id="path14097"
         inkscape:connector-curvature="0" /><path
         d="m 405.9246,282.2239 c 0,-3.187 -2.584,-5.771 -5.771,-5.771 -3.186,0 -5.77,2.584 -5.77,5.771 0,3.187 2.584,5.77 5.77,5.77 3.187,0 5.771,-2.583 5.771,-5.77 z"
         style="fill:none;stroke:#622241;stroke-width:2;stroke-linecap:round;stroke-linejoin:miter;stroke-miterlimit:10;stroke-dasharray:none;stroke-opacity:1"
         id="path14101"
         inkscape:connector-curvature="0" /></g><g
       id="g5701"><path
         d="m 139.2732,447.5369 c -0.424,0 -0.836,-0.05 -1.234,-0.138 -0.794,0.124 -1.618,0.132 -2.451,0.004 l -57.33,-6.19 c -4.319,-0.666 -7.315,-4.712 -6.721,-9.026 v -67.286 c 0,-3.155 2.581,-5.736 5.736,-5.736 3.155,0 5.736,2.581 5.736,5.736 v 60.695 l 50.528,5.455 v -57.15 c 0,-3.155 2.581,-5.736 5.736,-5.736 3.155,0 5.736,2.581 5.736,5.736 v 67.9 c 0,3.154 -2.581,5.736 -5.736,5.736"
         style="fill:#b52849;fill-opacity:1;fill-rule:nonzero;stroke:none"
         id="path14105"
         inkscape:connector-curvature="0" /><path
         d="m 139.2732,447.5369 c -0.424,0 -0.836,-0.05 -1.234,-0.138 -0.794,0.124 -1.618,0.132 -2.451,0.004 l -57.33,-6.19 c -4.319,-0.666 -7.315,-4.712 -6.721,-9.026 v -67.286 c 0,-3.155 2.581,-5.736 5.736,-5.736 3.155,0 5.736,2.581 5.736,5.736 v 60.695 l 50.528,5.455 v -57.15 c 0,-3.155 2.581,-5.736 5.736,-5.736 3.155,0 5.736,2.581 5.736,5.736 v 67.9 c 0,3.154 -2.581,5.736 -5.736,5.736"
         style="fill:#ef5562;fill-opacity:1;fill-rule:nonzero;stroke:none"
         id="path14109"
         inkscape:connector-curvature="0" /><path
         d="m 83.0096,370.449 v 7.544 c -1.437,3.193 -4.64,5.425 -8.362,5.425 -1.082,0 -2.127,-0.195 -3.111,-0.549 v -17.968 c 0,-1.887 0.927,-3.563 2.344,-4.61 4.016,3.478 7.974,7.41 9.129,10.158"
         style="fill:#b52849;fill-opacity:1;fill-rule:nonzero;stroke:none"
         id="path14113"
         inkscape:connector-curvature="0" /><path
         d="m 144.8162,382.0091 c -0.729,4.339 -4.501,7.659 -9.044,7.659 -0.767,0 -1.513,-0.104 -2.235,-0.284 v -15.483 c 0,-2.443 1.55,-4.536 3.714,-5.359 1.556,1.434 3.022,2.891 4.22,4.268 0.627,0.72 1.181,1.419 1.637,2.08 0.457,0.661 0.815,1.285 1.05,1.856 l 0.018,0.044 c 0.516,1.169 0.777,2.413 0.777,3.696 0,0.421 -0.038,0.832 -0.093,1.238 -0.013,0.096 -0.028,0.19 -0.044,0.285"
         style="fill:#b52849;fill-opacity:1;fill-rule:nonzero;stroke:none"
         id="path14117"
         inkscape:connector-curvature="0" /><path
         d="m 139.2732,447.5369 c -0.424,0 -0.836,-0.05 -1.234,-0.138 -0.794,0.124 -1.618,0.132 -2.451,0.004 l -57.33,-6.19 c -4.319,-0.666 -7.315,-4.712 -6.721,-9.026 v -67.286 c 0,-3.155 2.581,-5.736 5.736,-5.736 3.155,0 5.736,2.581 5.736,5.736 v 60.695 l 50.528,5.455 v -57.15 c 0,-3.155 2.581,-5.736 5.736,-5.736 3.155,0 5.736,2.581 5.736,5.736 v 67.9 c 0,3.154 -2.581,5.736 -5.736,5.736 z"
         style="fill:none;stroke:#622241;stroke-width:2;stroke-linecap:round;stroke-linejoin:miter;stroke-miterlimit:10;stroke-dasharray:none;stroke-opacity:1"
         id="path14121"
         inkscape:connector-curvature="0" /><path
         d="m 66.5979,346.1883 c -4.799,3.576 -14.578,11.516 -16.44,16.065 l -0.019,0.044 c -0.513,1.167 -0.773,2.409 -0.773,3.689 0,5.062 4.119,9.181 9.182,9.181 2.55,0 4.922,-1.024 6.677,-2.884 l 1.372,-1.454 1.373,1.454 c 1.754,1.86 4.126,2.884 6.677,2.884 5.063,0 9.181,-4.119 9.181,-9.181 0,-1.283 -0.261,-2.527 -0.776,-3.696 l -0.019,-0.044 c -1.879,-4.572 -11.642,-12.492 -16.435,-16.058"
         style="fill:#ef5562;fill-opacity:1;fill-rule:nonzero;stroke:none"
         id="path14125"
         inkscape:connector-curvature="0" /><path
         d="m 83.0516,367.6648 -0.019,-0.044 c -1.879,-4.572 -11.642,-12.491 -16.435,-16.058 -4.798,3.577 -14.577,11.516 -16.44,16.065 l -0.019,0.045 c -0.144,0.329 -0.264,0.666 -0.368,1.006 -0.262,-0.852 -0.405,-1.756 -0.405,-2.693 0,-1.28 0.261,-2.521 0.773,-3.688 l 0.019,-0.045 c 1.863,-4.549 11.642,-12.488 16.44,-16.065 4.793,3.567 14.556,11.486 16.435,16.058 l 0.019,0.044 c 0.516,1.169 0.777,2.413 0.777,3.696 0,0.937 -0.143,1.842 -0.405,2.695 -0.105,-0.344 -0.226,-0.684 -0.372,-1.016"
         style="fill:#b52849;fill-opacity:1;fill-rule:nonzero;stroke:none"
         id="path14129"
         inkscape:connector-curvature="0" /><path
         d="m 66.5979,346.1883 c -4.799,3.576 -14.578,11.516 -16.44,16.065 l -0.019,0.044 c -0.513,1.167 -0.773,2.409 -0.773,3.689 0,5.062 4.119,9.181 9.182,9.181 2.55,0 4.922,-1.024 6.677,-2.884 l 1.372,-1.454 1.373,1.454 c 1.754,1.86 4.126,2.884 6.677,2.884 5.063,0 9.181,-4.119 9.181,-9.181 0,-1.283 -0.261,-2.527 -0.776,-3.696 l -0.019,-0.044 c -1.879,-4.572 -11.642,-12.492 -16.435,-16.058 z"
         style="fill:none;stroke:#622241;stroke-width:2;stroke-linecap:round;stroke-linejoin:miter;stroke-miterlimit:10;stroke-dasharray:none;stroke-opacity:1"
         id="path14133"
         inkscape:connector-curvature="0" /><path
         d="m 59.4471,371.1975 c 0.563,-1.166 -0.352,-2.774 -2.046,-3.593 -1.693,-0.82 -3.523,-0.539 -4.087,0.626 -0.563,1.165 0.352,2.774 2.046,3.593 1.693,0.819 3.523,0.539 4.087,-0.626"
         style="fill:#ff8686;fill-opacity:1;fill-rule:nonzero;stroke:none"
         id="path14137"
         inkscape:connector-curvature="0" /><path
         d="m 127.7229,352.4383 c -4.799,3.576 -14.578,11.516 -16.44,16.065 l -0.019,0.044 c -0.513,1.167 -0.773,2.409 -0.773,3.689 0,5.062 4.119,9.181 9.182,9.181 2.55,0 4.922,-1.024 6.677,-2.884 l 1.372,-1.454 1.373,1.454 c 1.754,1.86 4.126,2.884 6.677,2.884 5.063,0 9.181,-4.119 9.181,-9.181 0,-1.283 -0.261,-2.527 -0.776,-3.696 l -0.019,-0.044 c -1.879,-4.572 -11.642,-12.492 -16.435,-16.058"
         style="fill:#ef5562;fill-opacity:1;fill-rule:nonzero;stroke:none"
         id="path14141"
         inkscape:connector-curvature="0" /><path
         d="m 144.1765,373.9148 -0.019,-0.044 c -1.879,-4.572 -11.642,-12.491 -16.435,-16.058 -4.798,3.577 -14.577,11.516 -16.44,16.065 l -0.019,0.045 c -0.144,0.329 -0.264,0.666 -0.368,1.006 -0.262,-0.852 -0.405,-1.756 -0.405,-2.693 0,-1.28 0.261,-2.521 0.773,-3.688 l 0.019,-0.045 c 1.863,-4.549 11.642,-12.488 16.44,-16.065 4.793,3.567 14.556,11.486 16.435,16.058 l 0.019,0.044 c 0.516,1.169 0.777,2.413 0.777,3.696 0,0.937 -0.143,1.842 -0.405,2.695 -0.105,-0.344 -0.226,-0.684 -0.372,-1.016"
         style="fill:#b52849;fill-opacity:1;fill-rule:nonzero;stroke:none"
         id="path14145"
         inkscape:connector-curvature="0" /><path
         d="m 127.7229,352.4383 c -4.799,3.576 -14.578,11.516 -16.44,16.065 l -0.019,0.044 c -0.513,1.167 -0.773,2.409 -0.773,3.689 0,5.062 4.119,9.181 9.182,9.181 2.55,0 4.922,-1.024 6.677,-2.884 l 1.372,-1.454 1.373,1.454 c 1.754,1.86 4.126,2.884 6.677,2.884 5.063,0 9.181,-4.119 9.181,-9.181 0,-1.283 -0.261,-2.527 -0.776,-3.696 l -0.019,-0.044 c -1.879,-4.572 -11.642,-12.492 -16.435,-16.058 z"
         style="fill:none;stroke:#622241;stroke-width:2;stroke-linecap:round;stroke-linejoin:miter;stroke-miterlimit:10;stroke-dasharray:none;stroke-opacity:1"
         id="path14149"
         inkscape:connector-curvature="0" /><path
         d="m 120.5721,377.4475 c 0.563,-1.166 -0.352,-2.774 -2.046,-3.593 -1.693,-0.82 -3.523,-0.539 -4.087,0.626 -0.563,1.165 0.352,2.774 2.046,3.593 1.693,0.819 3.523,0.539 4.087,-0.626"
         style="fill:#ff8686;fill-opacity:1;fill-rule:nonzero;stroke:none"
         id="path14153"
         inkscape:connector-curvature="0" /></g><g
       id="g5831"><path
         d="m 293.2361,120.8045 c 0,-23.879 -19.357,-43.236 -43.236,-43.236 -23.879,0 -43.236,19.357 -43.236,43.236 0,23.878 19.357,23.901 43.236,23.901 23.879,0 43.236,-0.023 43.236,-23.901"
         style="fill:#ef5562;fill-opacity:1;fill-rule:nonzero;stroke:none"
         id="path14157"
         inkscape:connector-curvature="0" /><path
         d="m 249.9998,110.408 c -17.383,0 -32.36,10.264 -39.228,25.057 -2.566,-3.446 -4.008,-8.165 -4.008,-14.661 0,-23.878 19.358,-43.236 43.236,-43.236 23.879,0 43.236,19.358 43.236,43.236 0,6.496 -1.441,11.215 -4.007,14.661 -6.869,-14.793 -21.846,-25.057 -39.229,-25.057"
         style="fill:#b52849;fill-opacity:1;fill-rule:nonzero;stroke:none"
         id="path14161"
         inkscape:connector-curvature="0" /><path
         d="m 293.2361,120.8045 c 0,-23.879 -19.357,-43.236 -43.236,-43.236 -23.879,0 -43.236,19.357 -43.236,43.236 0,23.878 19.357,23.901 43.236,23.901 23.879,0 43.236,-0.023 43.236,-23.901 z"
         style="fill:none;stroke:#622241;stroke-width:2;stroke-linecap:round;stroke-linejoin:round;stroke-miterlimit:10;stroke-dasharray:none;stroke-opacity:1"
         id="path14165"
         inkscape:connector-curvature="0" /><path
         d="m 282.2234,149.5301 c 0,-17.797 -14.427,-18.524 -32.224,-18.524 -17.796,0 -32.223,0.727 -32.223,18.524 0,17.797 14.427,17.813 32.223,17.813 17.797,0 32.224,-0.016 32.224,-17.813"
         style="fill:#ef5562;fill-opacity:1;fill-rule:nonzero;stroke:none"
         id="path14169"
         inkscape:connector-curvature="0" /><path
         d="m 249.9998,144.4138 c -15.207,0 -27.946,0.541 -31.333,11.8 -0.577,-1.892 -0.891,-4.095 -0.891,-6.684 0,-17.797 14.428,-18.524 32.224,-18.524 17.797,0 32.224,0.727 32.224,18.524 0,2.589 -0.314,4.792 -0.891,6.684 -3.387,-11.259 -16.126,-11.8 -31.333,-11.8"
         style="fill:#b52849;fill-opacity:1;fill-rule:nonzero;stroke:none"
         id="path14173"
         inkscape:connector-curvature="0" /><path
         d="m 282.2234,149.5301 c 0,-17.797 -14.427,-18.524 -32.224,-18.524 -17.796,0 -32.223,0.727 -32.223,18.524 0,17.797 14.427,17.813 32.223,17.813 17.797,0 32.224,-0.016 32.224,-17.813 z"
         style="fill:none;stroke:#622241;stroke-width:2;stroke-linecap:round;stroke-linejoin:round;stroke-miterlimit:10;stroke-dasharray:none;stroke-opacity:1"
         id="path14177"
         inkscape:connector-curvature="0" /><path
         d="m 295.3211,116.616 c 0,3.986 -3.232,7.218 -7.219,7.218 -2.743,0 -5.129,-1.531 -6.35,-3.784 -1.221,2.253 -3.607,3.784 -6.35,3.784 -2.744,0 -5.13,-1.531 -6.351,-3.784 -1.221,2.253 -3.607,3.784 -6.35,3.784 -2.743,0 -5.129,-1.531 -6.351,-3.784 -1.22,2.253 -3.606,3.784 -6.349,3.784 -2.744,0 -5.13,-1.531 -6.351,-3.784 -1.222,2.253 -3.607,3.784 -6.35,3.784 -2.744,0 -5.129,-1.531 -6.351,-3.784 -1.221,2.253 -3.607,3.784 -6.35,3.784 -2.743,0 -5.129,-1.531 -6.35,-3.784 -1.222,2.253 -3.607,3.784 -6.351,3.784 -3.986,0 -7.218,-3.232 -7.218,-7.218 0,-0.979 0.197,-1.911 0.55,-2.762 l 11.768,-53.775 h 65.99 l 11.754,53.704 c 0.372,0.87 0.579,1.827 0.579,2.833"
         style="fill:#ffe4cc;fill-opacity:1;fill-rule:nonzero;stroke:none"
         id="path14181"
         inkscape:connector-curvature="0" /><path
         d="m 249.992,66.1033 v 0 c -18.195,0 -34.182,11.155 -40.771,27.536 l 7.777,-33.559 h 65.99 l 7.778,33.566 c -6.587,-16.385 -22.576,-27.543 -40.774,-27.543"
         style="fill:#ffd5ae;fill-opacity:1;fill-rule:nonzero;stroke:none"
         id="path14185"
         inkscape:connector-curvature="0" /><path
         d="m 295.3211,116.616 c 0,3.986 -3.232,7.218 -7.219,7.218 -2.743,0 -5.129,-1.531 -6.35,-3.784 -1.221,2.253 -3.607,3.784 -6.35,3.784 -2.744,0 -5.13,-1.531 -6.351,-3.784 -1.221,2.253 -3.607,3.784 -6.35,3.784 -2.743,0 -5.129,-1.531 -6.351,-3.784 -1.22,2.253 -3.606,3.784 -6.349,3.784 -2.744,0 -5.13,-1.531 -6.351,-3.784 -1.222,2.253 -3.607,3.784 -6.35,3.784 -2.744,0 -5.129,-1.531 -6.351,-3.784 -1.221,2.253 -3.607,3.784 -6.35,3.784 -2.743,0 -5.129,-1.531 -6.35,-3.784 -1.222,2.253 -3.607,3.784 -6.351,3.784 -3.986,0 -7.218,-3.232 -7.218,-7.218 0,-0.979 0.197,-1.911 0.55,-2.762 l 11.768,-53.775 h 65.99 l 11.754,53.704 c 0.372,0.87 0.579,1.827 0.579,2.833 z"
         style="fill:none;stroke:#622241;stroke-width:2;stroke-linecap:round;stroke-linejoin:round;stroke-miterlimit:10;stroke-dasharray:none;stroke-opacity:1"
         id="path14189"
         inkscape:connector-curvature="0" /><path
         d="m 221.9695,84.5281 2.18,-20.757"
         style="fill:none;stroke:#622241;stroke-width:2;stroke-linecap:round;stroke-linejoin:round;stroke-miterlimit:10;stroke-dasharray:none;stroke-opacity:1"
         id="path14193"
         inkscape:connector-curvature="0" /><path
         d="m 218.1746,120.658 1.587,-15.109"
         style="fill:none;stroke:#622241;stroke-width:2;stroke-linecap:round;stroke-linejoin:round;stroke-miterlimit:10;stroke-dasharray:none;stroke-opacity:1"
         id="path14197"
         inkscape:connector-curvature="0" /><path
         d="M 243.9217,82.1834 V 63.9654"
         style="fill:none;stroke:#622241;stroke-width:2;stroke-linecap:round;stroke-linejoin:round;stroke-miterlimit:10;stroke-dasharray:none;stroke-opacity:1"
         id="path14201"
         inkscape:connector-curvature="0" /><path
         d="M 243.9217,120.5125 V 92.2395"
         style="fill:none;stroke:#622241;stroke-width:2;stroke-linecap:round;stroke-linejoin:round;stroke-miterlimit:10;stroke-dasharray:none;stroke-opacity:1"
         id="path14205"
         inkscape:connector-curvature="0" /><path
         d="m 230.8782,120.5125 1.725,-43.625"
         style="fill:none;stroke:#622241;stroke-width:2;stroke-linecap:round;stroke-linejoin:round;stroke-miterlimit:10;stroke-dasharray:none;stroke-opacity:1"
         id="path14209"
         inkscape:connector-curvature="0" /><path
         d="m 278.3474,84.5281 -2.181,-20.757"
         style="fill:none;stroke:#622241;stroke-width:2;stroke-linecap:round;stroke-linejoin:round;stroke-miterlimit:10;stroke-dasharray:none;stroke-opacity:1"
         id="path14213"
         inkscape:connector-curvature="0" /><path
         d="m 282.1424,120.658 -1.587,-15.109"
         style="fill:none;stroke:#622241;stroke-width:2;stroke-linecap:round;stroke-linejoin:round;stroke-miterlimit:10;stroke-dasharray:none;stroke-opacity:1"
         id="path14217"
         inkscape:connector-curvature="0" /><path
         d="M 256.3943,90.3445 V 72.1265"
         style="fill:none;stroke:#622241;stroke-width:2;stroke-linecap:round;stroke-linejoin:round;stroke-miterlimit:10;stroke-dasharray:none;stroke-opacity:1"
         id="path14221"
         inkscape:connector-curvature="0" /><path
         d="m 256.3943,120.5125 v -16.031"
         style="fill:none;stroke:#622241;stroke-width:2;stroke-linecap:round;stroke-linejoin:round;stroke-miterlimit:10;stroke-dasharray:none;stroke-opacity:1"
         id="path14225"
         inkscape:connector-curvature="0" /><path
         d="m 269.4383,120.5125 -1.725,-43.625"
         style="fill:none;stroke:#622241;stroke-width:2;stroke-linecap:round;stroke-linejoin:round;stroke-miterlimit:10;stroke-dasharray:none;stroke-opacity:1"
         id="path14229"
         inkscape:connector-curvature="0" /><path
         d="m 277.6365,153.0857 c 0,-4.267 -3.458,-7.725 -7.725,-7.725 -4.265,0 -7.723,3.458 -7.723,7.725 0,4.266 3.458,7.724 7.723,7.724 4.267,0 7.725,-3.458 7.725,-7.724"
         style="fill:#ff8686;fill-opacity:1;fill-rule:nonzero;stroke:none"
         id="path14233"
         inkscape:connector-curvature="0" /><path
         d="m 277.6365,153.0857 c 0,-4.267 -3.458,-7.725 -7.725,-7.725 -4.265,0 -7.723,3.458 -7.723,7.725 0,4.266 3.458,7.724 7.723,7.724 4.267,0 7.725,-3.458 7.725,-7.724 z"
         style="fill:none;stroke:#622241;stroke-width:2;stroke-linecap:round;stroke-linejoin:round;stroke-miterlimit:10;stroke-dasharray:none;stroke-opacity:1"
         id="path14237"
         inkscape:connector-curvature="0" /><path
         d="m 273.4832,156.2556 c 0,-1.55 -1.599,-2.806 -3.571,-2.806 -1.972,0 -3.571,1.256 -3.571,2.806 0,1.549 1.599,2.805 3.571,2.805 1.972,0 3.571,-1.256 3.571,-2.805"
         style="fill:#ffabab;fill-opacity:1;fill-rule:nonzero;stroke:none"
         id="path14241"
         inkscape:connector-curvature="0" /><path
         d="m 237.4124,153.0857 c 0,-4.267 -3.458,-7.725 -7.725,-7.725 -4.265,0 -7.724,3.458 -7.724,7.725 0,4.266 3.459,7.724 7.724,7.724 4.267,0 7.725,-3.458 7.725,-7.724"
         style="fill:#ff8686;fill-opacity:1;fill-rule:nonzero;stroke:none"
         id="path14245"
         inkscape:connector-curvature="0" /><path
         d="m 237.4124,153.0857 c 0,-4.267 -3.458,-7.725 -7.725,-7.725 -4.265,0 -7.724,3.458 -7.724,7.725 0,4.266 3.459,7.724 7.724,7.724 4.267,0 7.725,-3.458 7.725,-7.724 z"
         style="fill:none;stroke:#622241;stroke-width:2;stroke-linecap:round;stroke-linejoin:round;stroke-miterlimit:10;stroke-dasharray:none;stroke-opacity:1"
         id="path14249"
         inkscape:connector-curvature="0" /><path
         d="m 233.2586,156.2556 c 0,-1.55 -1.599,-2.806 -3.571,-2.806 -1.971,0 -3.57,1.256 -3.57,2.806 0,1.549 1.599,2.805 3.57,2.805 1.972,0 3.571,-1.256 3.571,-2.805"
         style="fill:#ffabab;fill-opacity:1;fill-rule:nonzero;stroke:none"
         id="path14253"
         inkscape:connector-curvature="0" /><path
         d="m 222.8382,136.6658 c 0,-4.267 -3.458,-7.725 -7.724,-7.725 -4.266,0 -7.724,3.458 -7.724,7.725 0,4.266 3.458,7.724 7.724,7.724 4.266,0 7.724,-3.458 7.724,-7.724"
         style="fill:#ff8686;fill-opacity:1;fill-rule:nonzero;stroke:none"
         id="path14257"
         inkscape:connector-curvature="0" /><path
         d="m 222.8382,136.6658 c 0,-4.267 -3.458,-7.725 -7.724,-7.725 -4.266,0 -7.724,3.458 -7.724,7.725 0,4.266 3.458,7.724 7.724,7.724 4.266,0 7.724,-3.458 7.724,-7.724 z"
         style="fill:none;stroke:#622241;stroke-width:2;stroke-linecap:round;stroke-linejoin:round;stroke-miterlimit:10;stroke-dasharray:none;stroke-opacity:1"
         id="path14261"
         inkscape:connector-curvature="0" /><path
         d="m 218.6848,139.8357 c 0,-1.55 -1.599,-2.806 -3.571,-2.806 -1.972,0 -3.571,1.256 -3.571,2.806 0,1.549 1.599,2.805 3.571,2.805 1.972,0 3.571,-1.256 3.571,-2.805"
         style="fill:#ffabab;fill-opacity:1;fill-rule:nonzero;stroke:none"
         id="path14265"
         inkscape:connector-curvature="0" /><path
         d="m 292.1131,136.6658 c 0,-4.267 -3.458,-7.725 -7.725,-7.725 -4.265,0 -7.723,3.458 -7.723,7.725 0,4.266 3.458,7.724 7.723,7.724 4.267,0 7.725,-3.458 7.725,-7.724"
         style="fill:#ff8686;fill-opacity:1;fill-rule:nonzero;stroke:none"
         id="path14269"
         inkscape:connector-curvature="0" /><path
         d="m 292.1131,136.6658 c 0,-4.267 -3.458,-7.725 -7.725,-7.725 -4.265,0 -7.723,3.458 -7.723,7.725 0,4.266 3.458,7.724 7.723,7.724 4.267,0 7.725,-3.458 7.725,-7.724 z"
         style="fill:none;stroke:#622241;stroke-width:2;stroke-linecap:round;stroke-linejoin:round;stroke-miterlimit:10;stroke-dasharray:none;stroke-opacity:1"
         id="path14273"
         inkscape:connector-curvature="0" /><path
         d="m 287.9597,139.8357 c 0,-1.55 -1.599,-2.806 -3.571,-2.806 -1.972,0 -3.571,1.256 -3.571,2.806 0,1.549 1.599,2.805 3.571,2.805 1.972,0 3.571,-1.256 3.571,-2.805"
         style="fill:#ffabab;fill-opacity:1;fill-rule:nonzero;stroke:none"
         id="path14277"
         inkscape:connector-curvature="0" /><path
         d="m 257.7244,165.8865 c 0,-4.267 -3.459,-7.725 -7.725,-7.725 -4.265,0 -7.724,3.458 -7.724,7.725 0,4.266 3.459,7.724 7.724,7.724 4.266,0 7.725,-3.458 7.725,-7.724"
         style="fill:#ff8686;fill-opacity:1;fill-rule:nonzero;stroke:none"
         id="path14281"
         inkscape:connector-curvature="0" /><path
         d="m 257.7244,165.8865 c 0,-4.267 -3.459,-7.725 -7.725,-7.725 -4.265,0 -7.724,3.458 -7.724,7.725 0,4.266 3.459,7.724 7.724,7.724 4.266,0 7.725,-3.458 7.725,-7.724 z"
         style="fill:none;stroke:#622241;stroke-width:2;stroke-linecap:round;stroke-linejoin:round;stroke-miterlimit:10;stroke-dasharray:none;stroke-opacity:1"
         id="path14285"
         inkscape:connector-curvature="0" /><path
         d="m 253.5701,169.0564 c 0,-1.55 -1.599,-2.806 -3.57,-2.806 -1.972,0 -3.571,1.256 -3.571,2.806 0,1.549 1.599,2.805 3.571,2.805 1.971,0 3.57,-1.256 3.57,-2.805"
         style="fill:#ffabab;fill-opacity:1;fill-rule:nonzero;stroke:none"
         id="path14289"
         inkscape:connector-curvature="0" /><path
         d="m 257.7244,135.0867 c 0,-4.266 -3.459,-7.725 -7.725,-7.725 -4.265,0 -7.724,3.459 -7.724,7.725 0,4.266 3.459,7.724 7.724,7.724 4.266,0 7.725,-3.458 7.725,-7.724"
         style="fill:#ff8686;fill-opacity:1;fill-rule:nonzero;stroke:none"
         id="path14293"
         inkscape:connector-curvature="0" /><path
         d="m 257.7244,135.0867 c 0,-4.266 -3.459,-7.725 -7.725,-7.725 -4.265,0 -7.724,3.459 -7.724,7.725 0,4.266 3.459,7.724 7.724,7.724 4.266,0 7.725,-3.458 7.725,-7.724 z"
         style="fill:none;stroke:#622241;stroke-width:2;stroke-linecap:round;stroke-linejoin:round;stroke-miterlimit:10;stroke-dasharray:none;stroke-opacity:1"
         id="path14297"
         inkscape:connector-curvature="0" /><path
         d="m 253.5701,138.2566 c 0,-1.55 -1.599,-2.806 -3.57,-2.806 -1.972,0 -3.571,1.256 -3.571,2.806 0,1.549 1.599,2.806 3.571,2.806 1.971,0 3.57,-1.257 3.57,-2.806"
         style="fill:#ffabab;fill-opacity:1;fill-rule:nonzero;stroke:none"
         id="path14301"
         inkscape:connector-curvature="0" /><path
         d="m 270.3416,90.7781 c 0.672,1.525 1.049,3.212 1.049,4.986 0,6.84 -5.545,12.384 -12.384,12.384 -3.55,0 -6.749,-1.496 -9.007,-3.889 -2.258,2.393 -5.456,3.889 -9.006,3.889 -6.839,0 -12.383,-5.544 -12.383,-12.384 0,-1.77 0.374,-3.452 1.043,-4.975 3.002,-7.333 20.326,-19.777 20.346,-19.791 0.021,0.014 17.326,12.445 20.342,19.78"
         style="fill:#ef5562;fill-opacity:1;fill-rule:nonzero;stroke:none"
         id="path14305"
         inkscape:connector-curvature="0" /><path
         d="m 270.3416,98.6639 c -3.016,-7.335 -20.321,-19.766 -20.342,-19.78 -0.02,0.014 -17.344,12.458 -20.346,19.791 -0.147,0.336 -0.274,0.681 -0.392,1.031 -0.417,-1.239 -0.651,-2.562 -0.651,-3.941 0,-1.771 0.374,-3.453 1.043,-4.976 3.002,-7.333 20.326,-19.776 20.346,-19.791 0.021,0.015 17.326,12.445 20.342,19.78 0.672,1.526 1.049,3.212 1.049,4.987 0,1.379 -0.236,2.702 -0.652,3.941 -0.119,-0.354 -0.248,-0.703 -0.397,-1.042"
         style="fill:#b52849;fill-opacity:1;fill-rule:nonzero;stroke:none"
         id="path14309"
         inkscape:connector-curvature="0" /><path
         d="m 270.3416,90.7781 c 0.672,1.525 1.049,3.212 1.049,4.986 0,6.84 -5.545,12.384 -12.384,12.384 -3.55,0 -6.749,-1.496 -9.007,-3.889 -2.258,2.393 -5.456,3.889 -9.006,3.889 -6.839,0 -12.383,-5.544 -12.383,-12.384 0,-1.77 0.374,-3.452 1.043,-4.975 3.002,-7.333 20.326,-19.777 20.346,-19.791 0.021,0.014 17.326,12.445 20.342,19.78 z"
         style="fill:none;stroke:#622241;stroke-width:2;stroke-linecap:round;stroke-linejoin:round;stroke-miterlimit:10;stroke-dasharray:none;stroke-opacity:1"
         id="path14313"
         inkscape:connector-curvature="0" /></g><g
       id="g5789"><path
         d="m 102.9954,71.3289 c -15.096,0 -27.333,12.237 -27.333,27.333 0,15.096 12.237,27.333 27.333,27.333 15.096,0 27.333,-12.237 27.333,-27.333 0,-15.096 -12.237,-27.333 -27.333,-27.333 m 0,67.333 c -22.091,0 -40,-17.908 -40,-40 0,-22.092 17.909,-40 40,-40 22.091,0 40,17.908 40,40 0,22.092 -17.909,40 -40,40"
         style="fill:#ffe4cc;fill-opacity:1;fill-rule:nonzero;stroke:none"
         id="path14317"
         inkscape:connector-curvature="0" /><path
         d="m 87.9124,135.7107 c 0.905,-4.228 4.679,-7.424 9.166,-7.424 h 12.292 c 4.428,0 8.157,3.115 9.124,7.26 -4.767,2.005 -10.003,3.115 -15.499,3.115 -5.338,0 -10.427,-1.054 -15.083,-2.951"
         style="fill:#d59d78;fill-opacity:1;fill-rule:nonzero;stroke:none"
         id="path14321"
         inkscape:connector-curvature="0" /><path
         d="m 128.7014,89.3572 c -3.807,-10.515 -13.878,-18.028 -25.706,-18.028 -11.828,0 -21.899,7.513 -25.707,18.028 -6.111,5.133 -10.659,12.061 -12.843,19.972 -0.939,-3.398 -1.45,-6.972 -1.45,-10.667 0,-22.092 17.909,-40 40,-40 22.091,0 40,17.908 40,40 0,3.695 -0.512,7.269 -1.45,10.667 -2.184,-7.911 -6.732,-14.839 -12.844,-19.972"
         style="fill:#ffd5ae;fill-opacity:1;fill-rule:nonzero;stroke:none"
         id="path14325"
         inkscape:connector-curvature="0" /><path
         d="m 102.9954,71.3289 c -15.096,0 -27.333,12.237 -27.333,27.333 0,15.096 12.237,27.333 27.333,27.333 15.096,0 27.333,-12.237 27.333,-27.333 0,-15.096 -12.237,-27.333 -27.333,-27.333 z m 0,67.333 c -22.091,0 -40,-17.908 -40,-40 0,-22.092 17.909,-40 40,-40 22.091,0 40,17.908 40,40 0,22.092 -17.909,40 -40,40 z"
         style="fill:none;stroke:#622241;stroke-width:2;stroke-linecap:round;stroke-linejoin:round;stroke-miterlimit:10;stroke-dasharray:none;stroke-opacity:1"
         id="path14329"
         inkscape:connector-curvature="0" /><path
         d="m 122.388,157.6824 c 0.639,1.452 0.997,3.056 0.997,4.743 0,6.505 -5.273,11.778 -11.778,11.778 -3.376,0 -6.418,-1.422 -8.565,-3.699 -2.148,2.277 -5.19,3.699 -8.566,3.699 -6.505,0 -11.778,-5.273 -11.778,-11.778 0,-1.683 0.356,-3.283 0.993,-4.732 2.856,-6.975 19.331,-18.809 19.35,-18.823 v 0 0 h 0.001 v 0 c 0.019,0.014 16.478,11.836 19.346,18.812"
         style="fill:#ef5562;fill-opacity:1;fill-rule:nonzero;stroke:none"
         id="path14333"
         inkscape:connector-curvature="0" /><path
         d="m 120.6863,169.9275 c -0.625,0.756 -1.35,1.422 -2.142,2.002 -3.516,-3.786 -9.369,-6.268 -16.007,-6.268 -6.379,0 -12.02,2.297 -15.572,5.835 -0.816,-0.676 -1.534,-1.464 -2.142,-2.334 3.081,-5.012 9.844,-8.501 17.714,-8.501 8.264,0 15.31,3.846 18.149,9.266"
         style="fill:#ffabab;fill-opacity:1;fill-rule:nonzero;stroke:none"
         id="path14337"
         inkscape:connector-curvature="0" /><path
         d="m 122.388,165.1824 c -2.868,-6.976 -19.327,-14.382 -19.346,-14.396 h -0.001 c -0.019,0.014 -16.494,7.432 -19.35,14.407 -0.14,0.319 -0.261,0.648 -0.373,0.98 -0.396,-1.178 -0.62,-2.435 -0.62,-3.748 0,-1.683 0.356,-3.283 0.993,-4.732 2.856,-6.975 19.331,-18.809 19.35,-18.823 v 0 h 0.001 v 0 c 0.019,0.014 16.478,11.836 19.346,18.812 0.639,1.452 0.997,3.056 0.997,4.743 0,1.313 -0.224,2.57 -0.619,3.748 -0.113,-0.336 -0.236,-0.669 -0.378,-0.991"
         style="fill:#b52849;fill-opacity:1;fill-rule:nonzero;stroke:none"
         id="path14341"
         inkscape:connector-curvature="0" /><path
         d="m 122.388,157.6824 c 0.639,1.452 0.997,3.056 0.997,4.743 0,6.505 -5.273,11.778 -11.778,11.778 -3.376,0 -6.418,-1.422 -8.565,-3.699 -2.148,2.277 -5.19,3.699 -8.566,3.699 -6.505,0 -11.778,-5.273 -11.778,-11.778 0,-1.683 0.356,-3.283 0.993,-4.732 2.856,-6.975 19.331,-18.809 19.35,-18.823 v 0 0 h 0.001 v 0 c 0.019,0.014 16.478,11.836 19.346,18.812 z"
         style="fill:none;stroke:#622241;stroke-width:2;stroke-linecap:round;stroke-linejoin:round;stroke-miterlimit:10;stroke-dasharray:none;stroke-opacity:1"
         id="path14345"
         inkscape:connector-curvature="0" /><path
         d="m 107.4856,131.1619 h -8.522 c -3.575,0 -6.5,2.925 -6.5,6.5 0,3.575 2.925,6.5 6.5,6.5 h 8.522 c 3.575,0 6.5,-2.925 6.5,-6.5 0,-3.575 -2.925,-6.5 -6.5,-6.5"
         style="fill:#ffe4cc;fill-opacity:1;fill-rule:nonzero;stroke:none"
         id="path14349"
         inkscape:connector-curvature="0" /><path
         d="m 107.4856,136.5369 h -8.522 c -2.617,0 -4.88,1.57 -5.908,3.813 -0.377,-0.822 -0.592,-1.73 -0.592,-2.688 0,-3.575 2.925,-6.5 6.5,-6.5 h 8.522 c 3.575,0 6.5,2.925 6.5,6.5 0,0.958 -0.216,1.866 -0.592,2.688 -1.028,-2.243 -3.291,-3.813 -5.908,-3.813"
         style="fill:#ffd5ae;fill-opacity:1;fill-rule:nonzero;stroke:none"
         id="path14353"
         inkscape:connector-curvature="0" /><path
         d="m 107.4856,131.1619 h -8.522 c -3.575,0 -6.5,2.925 -6.5,6.5 0,3.575 2.925,6.5 6.5,6.5 h 8.522 c 3.575,0 6.5,-2.925 6.5,-6.5 0,-3.575 -2.925,-6.5 -6.5,-6.5 z"
         style="fill:none;stroke:#622241;stroke-width:2;stroke-linecap:round;stroke-linejoin:round;stroke-miterlimit:10;stroke-dasharray:none;stroke-opacity:1"
         id="path14357"
         inkscape:connector-curvature="0" /></g><g
       id="g5841"><path
         d="m 339.1648,115.6463 c 18.574,-39.742 59.744,-38.668 60.583,-38.645 0.838,-0.023 42.009,-1.097 60.582,38.645 -14.787,-4.931 -32.621,-10.537 -60.281,-10.577 -27.96,-0.041 -46.02,5.621 -60.884,10.577"
         style="fill:#b52849;fill-opacity:1;fill-rule:nonzero;stroke:none"
         id="path14361"
         inkscape:connector-curvature="0" /><path
         d="m 454.8553,105.951 c -9.331,-2.636 -25.825,-6.929 -48.818,-11.523 -27.293,-5.455 -44.522,7.305 -61.709,11.991 2.057,-3.107 4.266,-5.887 6.576,-8.372 14.045,-3.979 30.899,-15.079 55.508,-7.707 15.359,4.601 28.781,5.295 39.091,4.599 3.313,3.103 6.475,6.746 9.352,11.012"
         style="fill:#ff8686;fill-opacity:1;fill-rule:nonzero;stroke:none"
         id="path14365"
         inkscape:connector-curvature="0" /><path
         d="m 460.3299,115.6463 c -14.787,-4.931 -32.621,-10.537 -60.281,-10.577 -27.96,-0.041 -46.02,5.621 -60.884,10.577 1.022,-2.186 2.115,-4.241 3.264,-6.187 13.111,-4.024 28.714,-7.7 50.658,-8.334 1.317,-2.196 3.719,-3.684 6.495,-3.684 2.769,0 5.165,1.48 6.485,3.665 22.088,0.607 37.798,4.305 51.003,8.357 1.147,1.945 2.239,3.998 3.26,6.183"
         style="fill:#851937;fill-opacity:1;fill-rule:nonzero;stroke:none"
         id="path14369"
         inkscape:connector-curvature="0" /><path
         d="m 339.1648,115.6463 c 18.574,-39.742 59.744,-38.668 60.583,-38.645 0.838,-0.023 42.009,-1.097 60.582,38.645 -14.787,-4.931 -32.621,-10.537 -60.281,-10.577 -27.96,-0.041 -46.02,5.621 -60.884,10.577 z"
         style="fill:none;stroke:#622241;stroke-width:2;stroke-linecap:round;stroke-linejoin:round;stroke-miterlimit:10;stroke-dasharray:none;stroke-opacity:1"
         id="path14373"
         inkscape:connector-curvature="0" /><path
         d="m 460.409,115.4627 c 0,0 -28.649,21.679 -41.534,21.679 -7.899,0 -14.867,-3.658 -19.088,-9.239 -4.221,5.581 -11.19,9.239 -19.088,9.239 -12.885,0 -41.534,-21.679 -41.534,-21.679 13.739,-4.581 29.552,-9.754 54.636,-10.48 1.177,-1.961 3.323,-3.291 5.802,-3.291 2.474,0 4.616,1.322 5.795,3.274 25.202,0.692 41.111,5.889 54.932,10.497 -0.126,-0.27 -0.267,-0.518 -0.396,-0.784 0.16,0.262 0.325,0.517 0.475,0.784"
         style="fill:#ef5562;fill-opacity:1;fill-rule:nonzero;stroke:none"
         id="path14377"
         inkscape:connector-curvature="0" /><path
         d="m 380.0545,129.6414 c 8.165,0 15.369,-2.884 19.732,-7.284 4.364,4.4 11.568,7.284 19.733,7.284 10.284,0 30.273,-10.185 38.853,-14.829 0.657,0.218 1.312,0.435 1.957,0.65 -0.126,-0.269 -0.266,-0.517 -0.395,-0.784 0.159,0.262 0.323,0.518 0.474,0.784 0,0 -28.649,21.679 -41.534,21.679 -7.898,0 -14.867,-3.657 -19.088,-9.238 -4.22,5.581 -11.189,9.238 -19.087,9.238 -12.885,0 -41.535,-21.679 -41.535,-21.679 0.662,-0.22 1.334,-0.443 2.006,-0.666 8.565,4.637 28.588,14.845 38.884,14.845"
         style="fill:#ff8686;fill-opacity:1;fill-rule:nonzero;stroke:none"
         id="path14381"
         inkscape:connector-curvature="0" /><path
         d="m 399.6013,101.6922 c 0.001,0 0.001,-0.001 0.002,-0.001 0.007,0 0.014,0.002 0.02,0.002 -0.007,0 -0.014,-0.001 -0.022,-0.001"
         style="fill:#ff8686;fill-opacity:1;fill-rule:nonzero;stroke:none"
         id="path14385"
         inkscape:connector-curvature="0" /><path
         d="m 460.409,115.4627 c 0,0 -28.649,21.679 -41.534,21.679 -7.899,0 -14.867,-3.658 -19.088,-9.239 -4.221,5.581 -11.19,9.239 -19.088,9.239 -12.885,0 -41.534,-21.679 -41.534,-21.679 13.739,-4.581 29.552,-9.754 54.636,-10.48 1.177,-1.961 3.323,-3.291 5.802,-3.291 2.474,0 4.616,1.322 5.795,3.274 25.202,0.692 41.111,5.889 54.932,10.497 -0.126,-0.27 -0.267,-0.518 -0.396,-0.784 0.16,0.262 0.325,0.517 0.475,0.784 z"
         style="fill:none;stroke:#622241;stroke-width:2;stroke-linecap:round;stroke-linejoin:round;stroke-miterlimit:10;stroke-dasharray:none;stroke-opacity:1"
         id="path14389"
         inkscape:connector-curvature="0" /></g></g></svg>