<?xml version="1.0" encoding="UTF-8" standalone="no"?>
<!-- Created with Inkscape (http://www.inkscape.org/) -->

<svg
   xmlns:dc="http://purl.org/dc/elements/1.1/"
   xmlns:cc="http://creativecommons.org/ns#"
   xmlns:rdf="http://www.w3.org/1999/02/22-rdf-syntax-ns#"
   xmlns:svg="http://www.w3.org/2000/svg"
   xmlns="http://www.w3.org/2000/svg"
   xmlns:sodipodi="http://sodipodi.sourceforge.net/DTD/sodipodi-0.dtd"
   xmlns:inkscape="http://www.inkscape.org/namespaces/inkscape"
   width="210mm"
   height="297mm"
   viewBox="0 0 210 297"
   version="1.1"
   id="svg8"
   inkscape:version="0.92.3 (2405546, 2018-03-11)"
   sodipodi:docname="ui.svg">
  <defs
     id="defs2" />
  <sodipodi:namedview
     id="base"
     pagecolor="#ffffff"
     bordercolor="#666666"
     borderopacity="1.0"
     inkscape:pageopacity="0.0"
     inkscape:pageshadow="2"
     inkscape:zoom="1.4"
     inkscape:cx="148.41696"
     inkscape:cy="661.35392"
     inkscape:document-units="mm"
     inkscape:current-layer="layer1"
     showgrid="false"
     inkscape:window-width="1920"
     inkscape:window-height="1013"
     inkscape:window-x="-9"
     inkscape:window-y="29"
     inkscape:window-maximized="1" />
  <metadata
     id="metadata5">
    <rdf:RDF>
      <cc:Work
         rdf:about="">
        <dc:format>image/svg+xml</dc:format>
        <dc:type
           rdf:resource="http://purl.org/dc/dcmitype/StillImage" />
        <dc:title></dc:title>
      </cc:Work>
    </rdf:RDF>
  </metadata>
  <g
     inkscape:label="Layer 1"
     inkscape:groupmode="layer"
     id="layer1">
    <path
       style="fill:#b3b3b3;fill-opacity:1;stroke:#000000;stroke-width:0.26458332px;stroke-linecap:butt;stroke-linejoin:miter;stroke-opacity:1"
       d="m 36.049478,130.12351 c 1.366997,2.2287 1.319762,2.22763 1.319762,2.22763 0,0 6.196246,-7.4912 4.794989,-11.3275 -1.335548,1.57639 -6.114751,9.09987 -6.114751,9.09987 z"
       id="path874"
       inkscape:connector-curvature="0"
       sodipodi:nodetypes="cccc"
       inkscape:export-xdpi="112.21805"
       inkscape:export-ydpi="112.21805" />
    <path
       style="fill:#dde9af;fill-rule:nonzero;stroke:#000000;stroke-width:0.30000001;stroke-miterlimit:4;stroke-dasharray:none;stroke-opacity:1"
       d="m 131.36297,106.43683 0.13363,23.78698 H 16.036171 V 91.737 H 116.69655 v 14.43256 z"
       id="rect815"
       inkscape:connector-curvature="0"
       sodipodi:nodetypes="ccccc"
       inkscape:export-xdpi="112.21805"
       inkscape:export-ydpi="112.21805" />
    <path
       style="fill:none;stroke:#000000;stroke-width:0.26458332;stroke-linecap:butt;stroke-linejoin:miter;stroke-miterlimit:4;stroke-dasharray:2.11666654, 0.26458332;stroke-dashoffset:0;stroke-opacity:1"
       d="M 36.049477,130.12351 V 91.735303"
       id="path843"
       inkscape:connector-curvature="0"
       sodipodi:nodetypes="cc"
       inkscape:export-xdpi="112.21805"
       inkscape:export-ydpi="112.21805" />
    <path
       style="fill:#333333;fill-opacity:1;stroke:#000000;stroke-width:0.99999994px;stroke-linecap:butt;stroke-linejoin:miter;stroke-opacity:1"
       d="m 114.12891,455.31055 c 0,0 -4.47979,8.47083 0.49609,17.42578 4.97588,8.95495 18.69727,33.91601 18.69727,33.91601 0,0 5.76112,5.84821 6.25195,7.82422 0.49083,1.97598 0.65624,2.51563 0.65625,2.51563 0,0 -0.37679,20.44304 10.94531,21.32617 11.32211,0.88312 6.61709,-16.01478 4.51953,-18.02734 -2.09755,-2.0126 -7.65329,-5.08516 -11.71484,-3.2129 -2.6232,1.45849 -0.44203,-4.1182 0.41015,-6.24218 0.85218,-2.12402 -3.82421,-8.57227 -3.82421,-8.57227 z m 32.00586,64.09179 c 1.43265,0.0579 3.59728,0.5134 6.86914,1.45313 4.06517,5.80838 3.58857,11.98759 1.46289,14.14453 -1.29202,1.31112 -4.46984,1.23764 -6.07813,0.21875 -3.47349,-2.20052 -4.49219,-6.62305 -4.49219,-6.62305 -0.3465,-0.82771 -0.6335,-3.84913 -0.60742,-4.74609 0.0811,-2.77987 -0.30614,-4.57472 2.84571,-4.44727 z"
       transform="scale(0.26458333)"
       id="path856"
       inkscape:connector-curvature="0"
       inkscape:export-xdpi="112.21805"
       inkscape:export-ydpi="112.21805" />
    <circle
       style="fill:#ffffff;fill-rule:nonzero;stroke:#000000;stroke-width:0.26458332;stroke-miterlimit:4;stroke-dasharray:2.11666651, 0.26458331;stroke-dashoffset:0;stroke-opacity:1"
       id="path866"
       cx="-132.03253"
       cy="38.767975"
       r="0.49609375"
       transform="rotate(-88.694744)"
       inkscape:export-xdpi="112.21805"
       inkscape:export-ydpi="112.21805" />
    <path
       style="fill:#ffffff;fill-opacity:1;stroke:#000000;stroke-width:0.26458332px;stroke-linecap:butt;stroke-linejoin:miter;stroke-opacity:1"
       d="m 35.409057,131.26677 c -0.731601,-0.0403 -0.891541,-0.28024 -0.891541,-0.28024 0,0 -4.439648,-7.37909 -4.093399,-8.05646 0,0 -0.008,-0.68544 -0.242573,-0.76167 -0.234557,-0.0762 -0.278625,0.82069 -0.193842,1.24795 0.08479,0.42727 4.005927,7.74728 4.005927,7.74728 0,0 0.240419,0.85615 0.858238,0.70482 0.617819,-0.15134 0.55719,-0.60168 0.55719,-0.60168 z"
       id="path868"
       inkscape:connector-curvature="0"
       sodipodi:nodetypes="cccccccc"
       inkscape:export-xdpi="112.21805"
       inkscape:export-ydpi="112.21805" />
    <path
       style="fill:#b3b3b3;fill-opacity:1;stroke:#000000;stroke-width:0.99999994px;stroke-linecap:butt;stroke-linejoin:miter;stroke-opacity:1"
       d="m 129.36523,502.22656 c -4.39836,2.41282 0.0869,14.89356 -2.65039,16.06446 -2.57196,1.10018 -3.77162,-4.14227 -9.53515,-0.8418 -5.76353,3.30051 -5.69833,10.94438 -4.35352,14.63672 1.55235,4.2621 5.23008,5.6564 8.38477,4.38867 5.55462,-0.76656 8.11133,-14.99805 8.11133,-14.99805 l 3.24804,-13.70312 z m -8.99218,16.44336 c 2.07343,0.015 4.2405,1.16694 4.80273,4.49805 0.39343,2.33098 -0.004,4.1081 -1.98437,8.70703 -1.98028,4.59897 -8.46476,3.02364 -8.58203,-3.58789 -0.11729,-6.61153 1.77257,-7.19541 3.78515,-9.29297 0.60761,-0.20942 1.28737,-0.32922 1.97852,-0.32422 z"
       transform="scale(0.26458333)"
       id="path870"
       inkscape:connector-curvature="0"
       inkscape:export-xdpi="112.21805"
       inkscape:export-ydpi="112.21805" />
    <path
       style="fill:#ffffff;fill-opacity:1;stroke:#000000;stroke-width:0.26458332px;stroke-linecap:butt;stroke-linejoin:miter;stroke-opacity:1"
       d="m 116.66315,91.737002 14.69982,14.699828 -14.66642,-0.26727 z"
       id="path892"
       inkscape:connector-curvature="0"
       inkscape:export-xdpi="112.21805"
       inkscape:export-ydpi="112.21805" />
    <path
       style="fill:#000000;stroke-width:0.26458332"
       d="m 91.599077,287.40377 c -5.658096,-1.37158 -11.182281,-6.6912 -17.089101,-16.45629 -2.298401,-3.79969 -6.918809,-12.97312 -10.627492,-21.1 -3.553841,-7.78757 -7.011884,-14.65306 -8.716969,-17.3064 -2.11344,-3.2888 -2.711924,-4.90152 -2.865916,-7.72272 -0.153346,-2.80939 0.308596,-4.57362 1.770956,-6.76352 2.202372,-3.29807 5.786271,-5.01361 10.024615,-4.79857 3.784994,0.19204 4.607631,0.70777 10.167704,6.37439 l 4.696354,4.78634 v -9.96945 -9.96945 l -1.816299,-0.91468 c -9.734181,-4.90205 -15.758736,-15.93729 -14.577051,-26.70094 1.917121,-17.46257 19.430139,-28.59055 36.237099,-23.0255 1.527973,0.50593 3.552033,1.3431 4.497913,1.86037 14.33182,7.83756 18.69824,26.01735 9.42558,39.24385 -0.66111,0.943 -2.18453,2.69917 -3.38538,3.9026 -2.15096,2.15558 -2.17117,2.18806 -1.36153,2.18806 1.27857,0 4.07851,0.96035 5.45158,1.86983 1.54388,1.02262 3.04187,2.70106 3.84386,4.30688 l 0.61116,1.22373 1.29554,-0.65651 c 5.19164,-2.6308 11.85999,-0.50396 14.81028,4.72368 l 0.8216,1.45579 1.45625,-0.64402 c 5.67205,-2.50845 12.50598,0.0381 15.12994,5.63788 l 0.71675,1.52961 0.0732,18.23074 c 0.0796,19.82993 0.0468,20.40812 -1.42254,25.06454 -2.88828,9.153 -10.44681,17.41487 -20.71422,22.64175 l -2.74896,1.39943 -17.09479,-0.022 c -13.620999,-0.0176 -17.402717,-0.0967 -18.610143,-0.38938 z m 36.859523,-6.5054 c 5.40134,-2.82465 10.60369,-7.44296 13.7302,-12.18879 1.71877,-2.60897 2.82036,-5.04413 3.74503,-8.27876 0.59847,-2.09355 0.60611,-2.31031 0.69974,-19.84375 0.0667,-12.49782 0.008,-18.02106 -0.19969,-18.72366 -1.13674,-3.84858 -6.39414,-5.1763 -9.35609,-2.36283 -1.38562,1.31617 -1.41321,1.49214 -1.60476,10.23571 -0.19856,9.06321 -0.2081,9.11204 -1.92062,9.82758 -1.24652,0.52083 -2.585,0.0909 -3.28351,-1.0546 -0.47821,-0.78426 -0.50775,-1.44876 -0.50868,-11.44048 -0.001,-10.56413 -0.004,-10.61268 -0.61139,-11.77396 -0.74448,-1.42226 -2.61428,-2.7539 -4.20093,-2.99183 -2.19104,-0.32857 -4.52775,0.77976 -5.70451,2.70572 -0.53164,0.87012 -0.59417,1.31905 -0.59605,4.27939 -0.001,1.81901 -0.0811,5.56871 -0.17773,8.33266 l -0.17562,5.02536 -0.72932,0.72932 c -1.09772,1.09772 -2.63959,1.02934 -3.83919,-0.17026 l -0.89959,-0.89958 -0.006,-10.67594 c -0.005,-9.81294 -0.0453,-10.763 -0.49499,-11.75298 -0.87075,-1.91715 -3.11023,-3.29246 -5.35073,-3.28599 -1.33177,0.004 -3.49354,1.11974 -4.35357,2.2473 -0.68164,0.89368 -0.76811,1.25423 -0.94276,3.93108 -0.10576,1.62093 -0.2006,5.42961 -0.21076,8.46372 l -0.0185,5.51656 -0.93343,0.93343 c -0.843848,0.84385 -1.038158,0.91938 -2.024744,0.78705 -0.680694,-0.0913 -1.349897,-0.40492 -1.778548,-0.83352 l -0.687234,-0.68715 -0.132292,-25.19563 c -0.147251,-28.04457 0.0033,-25.92851 -1.967386,-27.65877 -2.575499,-2.26132 -6.917623,-1.48122 -8.615947,1.54793 l -0.661458,1.17979 -0.05686,27.87967 c -0.06322,30.99424 0.07397,28.83421 -1.868334,29.41614 -0.784368,0.23501 -1.177097,0.22305 -1.812777,-0.0552 -0.446315,-0.19536 -3.885441,-3.53507 -7.642495,-7.42158 -4.929758,-5.09962 -7.114886,-7.17997 -7.850938,-7.47448 -3.587305,-1.43536 -7.620851,1.21943 -7.620851,5.01586 0,1.47025 0.575527,2.89712 2.241106,5.55625 2.029514,3.24015 4.600637,8.34884 8.995916,17.87438 10.701597,23.19273 17.121743,32.45273 23.733812,34.2321 1.142214,0.30738 4.382492,0.38176 17.24848,0.3959 l 15.84206,0.0174 2.60171,-1.36057 z M 79.658315,174.38324 c 2.515161,-6.1278 9.457176,-8.89919 15.413923,-6.15355 2.270424,1.0465 4.475813,3.23121 5.527532,5.47568 l 0.71675,1.52962 0.13229,11.31441 0.13229,11.31441 1.05833,-0.69929 c 1.37413,-0.90794 4.16173,-3.61372 5.28416,-5.12905 1.29433,-1.7474 2.68051,-4.64879 3.36028,-7.03332 0.47714,-1.67375 0.59647,-2.75831 0.59433,-5.40154 -0.003,-3.9953 -0.45987,-6.02056 -2.11783,-9.39271 -2.14806,-4.36896 -5.38049,-7.61187 -9.766768,-9.7984 -3.419679,-1.70469 -5.908924,-2.29126 -9.789583,-2.30681 -6.135695,-0.0246 -11.115587,1.90358 -15.381205,5.9555 -3.255975,3.09286 -5.195231,6.44247 -6.226198,10.7543 -0.722382,3.02123 -0.580536,7.94337 0.309538,10.74125 1.56998,4.93511 4.477658,8.8839 8.597866,11.67638 l 1.322916,0.89661 0.132292,-11.18129 c 0.126111,-10.65894 0.158771,-11.2458 0.699087,-12.5622 z"
       id="path908"
       inkscape:connector-curvature="0"
       inkscape:export-xdpi="96.067299"
       inkscape:export-ydpi="96.067299" />
  </g>
</svg>
